STARTFONT 2.1
FONT -HBIOS-SYS-Regular-R-Regular--16-16-75-75-c-80-iso10646-1
SIZE 16 75 75
FONTBOUNDINGBOX 16 16 0 -3
STARTPROPERTIES 10
FAMILY_NAME "HBIOS-SYS"
WEIGHT_NAME "Regular"
FONT_VERSION "1.046"
COPYRIGHT "Copyright (c) 2022-2024 Lee Minseo (quiple@quiple.dev) and [IBM EGA 8x14] Copyright (c) 2015-2020 VileR (https://int10h.org)"
FOUNDRY "Made with Bits'n'Picas by Kreative Software"
FONT_ASCENT 13
FONT_DESCENT 3
POINT_SIZE 16
X_HEIGHT 7
CAP_HEIGHT 10
ENDPROPERTIES
CHARS 18086
STARTCHAR U+0000
ENCODING 0
SWIDTH 500 0
DWIDTH 8 0
BBX 0 0 0 0
BITMAP
ENDCHAR
STARTCHAR U+0001
ENCODING 1
SWIDTH 500 0
DWIDTH 8 0
BBX 8 9 0 1
BITMAP
7E
81
A5
81
81
BD
99
81
7E
ENDCHAR
STARTCHAR U+0002
ENCODING 2
SWIDTH 500 0
DWIDTH 8 0
BBX 8 9 0 1
BITMAP
7E
FF
DB
FF
FF
C3
E7
FF
7E
ENDCHAR
STARTCHAR U+0003
ENCODING 3
SWIDTH 500 0
DWIDTH 8 0
BBX 7 8 0 1
BITMAP
6C
FE
FE
FE
FE
7C
38
10
ENDCHAR
STARTCHAR U+0004
ENCODING 4
SWIDTH 500 0
DWIDTH 8 0
BBX 7 7 0 2
BITMAP
10
38
7C
FE
7C
38
10
ENDCHAR
STARTCHAR U+0005
ENCODING 5
SWIDTH 500 0
DWIDTH 8 0
BBX 8 9 0 1
BITMAP
18
3C
3C
E7
E7
E7
18
18
3C
ENDCHAR
STARTCHAR U+0006
ENCODING 6
SWIDTH 500 0
DWIDTH 8 0
BBX 8 9 0 1
BITMAP
18
3C
7E
FF
FF
7E
18
18
3C
ENDCHAR
STARTCHAR U+0007
ENCODING 7
SWIDTH 500 0
DWIDTH 8 0
BBX 4 4 2 3
BITMAP
60
F0
F0
60
ENDCHAR
STARTCHAR U+0008
ENCODING 8
SWIDTH 500 0
DWIDTH 8 0
BBX 8 16 0 -3
BITMAP
FF
FF
FF
FF
FF
FF
E7
C3
C3
E7
FF
FF
FF
FF
FF
FF
ENDCHAR
STARTCHAR U+0009
ENCODING 9
SWIDTH 500 0
DWIDTH 8 0
BBX 6 6 1 2
BITMAP
30
78
CC
CC
78
30
ENDCHAR
STARTCHAR U+000A
ENCODING 10
SWIDTH 500 0
DWIDTH 8 0
BBX 8 16 0 -3
BITMAP
FF
FF
FF
FF
FF
E7
C3
99
99
C3
E7
FF
FF
FF
FF
FF
ENDCHAR
STARTCHAR U+000B
ENCODING 11
SWIDTH 500 0
DWIDTH 8 0
BBX 7 9 0 1
BITMAP
1E
0E
1A
3A
6C
C6
C6
6C
38
ENDCHAR
STARTCHAR U+000C
ENCODING 12
SWIDTH 500 0
DWIDTH 8 0
BBX 6 9 1 1
BITMAP
30
78
CC
CC
78
30
FC
30
30
ENDCHAR
STARTCHAR U+000D
ENCODING 13
SWIDTH 500 0
DWIDTH 8 0
BBX 7 9 0 1
BITMAP
10
18
1C
16
12
12
74
F0
60
ENDCHAR
STARTCHAR U+000E
ENCODING 14
SWIDTH 500 0
DWIDTH 8 0
BBX 8 10 0 1
BITMAP
07
19
17
19
11
11
17
7F
F6
60
ENDCHAR
STARTCHAR U+000F
ENCODING 15
SWIDTH 500 0
DWIDTH 8 0
BBX 8 9 0 1
BITMAP
18
18
DB
3C
E7
3C
DB
18
18
ENDCHAR
STARTCHAR U+0010
ENCODING 16
SWIDTH 500 0
DWIDTH 8 0
BBX 7 9 0 1
BITMAP
80
C0
E0
F8
FE
F8
E0
C0
80
ENDCHAR
STARTCHAR U+0011
ENCODING 17
SWIDTH 500 0
DWIDTH 8 0
BBX 7 9 0 1
BITMAP
02
06
0E
3E
FE
3E
0E
06
02
ENDCHAR
STARTCHAR U+0012
ENCODING 18
SWIDTH 500 0
DWIDTH 8 0
BBX 6 9 1 1
BITMAP
30
78
FC
30
30
30
FC
78
30
ENDCHAR
STARTCHAR U+0013
ENCODING 19
SWIDTH 500 0
DWIDTH 8 0
BBX 6 9 1 1
BITMAP
CC
CC
CC
CC
CC
CC
00
CC
CC
ENDCHAR
STARTCHAR U+0014
ENCODING 20
SWIDTH 500 0
DWIDTH 8 0
BBX 8 9 0 1
BITMAP
7F
DB
DB
DB
7B
1B
1B
1B
1B
ENDCHAR
STARTCHAR U+0015
ENCODING 21
SWIDTH 500 0
DWIDTH 8 0
BBX 7 12 0 -1
BITMAP
7C
C6
60
38
6C
C6
C6
6C
38
0C
C6
7C
ENDCHAR
STARTCHAR U+0016
ENCODING 22
SWIDTH 500 0
DWIDTH 8 0
BBX 7 3 0 1
BITMAP
FE
FE
FE
ENDCHAR
STARTCHAR U+0017
ENCODING 23
SWIDTH 500 0
DWIDTH 8 0
BBX 6 10 1 0
BITMAP
30
78
FC
30
30
30
FC
78
30
FC
ENDCHAR
STARTCHAR U+0018
ENCODING 24
SWIDTH 500 0
DWIDTH 8 0
BBX 8 10 0 1
BITMAP
18
3C
7E
DB
99
18
18
18
18
18
ENDCHAR
STARTCHAR U+0019
ENCODING 25
SWIDTH 500 0
DWIDTH 8 0
BBX 8 10 0 1
BITMAP
18
18
18
18
18
99
DB
7E
3C
18
ENDCHAR
STARTCHAR U+001A
ENCODING 26
SWIDTH 500 0
DWIDTH 8 0
BBX 8 8 0 1
BITMAP
18
0C
06
FF
FF
06
0C
18
ENDCHAR
STARTCHAR U+001B
ENCODING 27
SWIDTH 500 0
DWIDTH 8 0
BBX 8 8 0 1
BITMAP
18
30
60
FF
FF
60
30
18
ENDCHAR
STARTCHAR U+001C
ENCODING 28
SWIDTH 500 0
DWIDTH 8 0
BBX 7 5 0 2
BITMAP
C0
C0
C0
C0
FE
ENDCHAR
STARTCHAR U+001D
ENCODING 29
SWIDTH 500 0
DWIDTH 8 0
BBX 8 6 0 2
BITMAP
24
66
FF
FF
66
24
ENDCHAR
STARTCHAR U+001E
ENCODING 30
SWIDTH 500 0
DWIDTH 8 0
BBX 7 7 0 2
BITMAP
10
38
38
7C
7C
FE
FE
ENDCHAR
STARTCHAR U+001F
ENCODING 31
SWIDTH 500 0
DWIDTH 8 0
BBX 7 7 0 2
BITMAP
FE
FE
7C
7C
38
38
10
ENDCHAR
STARTCHAR U+0020
ENCODING 32
SWIDTH 500 0
DWIDTH 8 0
BBX 0 0 0 0
BITMAP
ENDCHAR
STARTCHAR U+0021
ENCODING 33
SWIDTH 500 0
DWIDTH 8 0
BBX 4 9 2 1
BITMAP
60
F0
F0
F0
60
60
00
60
60
ENDCHAR
STARTCHAR U+0022
ENCODING 34
SWIDTH 500 0
DWIDTH 8 0
BBX 6 4 1 7
BITMAP
CC
CC
CC
88
ENDCHAR
STARTCHAR U+0023
ENCODING 35
SWIDTH 500 0
DWIDTH 8 0
BBX 7 9 0 1
BITMAP
6C
6C
FE
6C
6C
6C
FE
6C
6C
ENDCHAR
STARTCHAR U+0024
ENCODING 36
SWIDTH 500 0
DWIDTH 8 0
BBX 7 13 0 -1
BITMAP
18
18
7C
C6
C2
C0
7C
06
86
C6
7C
18
18
ENDCHAR
STARTCHAR U+0025
ENCODING 37
SWIDTH 500 0
DWIDTH 8 0
BBX 7 7 0 1
BITMAP
C2
C6
0C
18
30
66
C6
ENDCHAR
STARTCHAR U+0026
ENCODING 38
SWIDTH 500 0
DWIDTH 8 0
BBX 7 9 0 1
BITMAP
38
6C
6C
38
76
DC
CC
CC
76
ENDCHAR
STARTCHAR U+0027
ENCODING 39
SWIDTH 500 0
DWIDTH 8 0
BBX 3 4 1 7
BITMAP
60
60
60
C0
ENDCHAR
STARTCHAR U+0028
ENCODING 40
SWIDTH 500 0
DWIDTH 8 0
BBX 4 9 2 1
BITMAP
30
60
C0
C0
C0
C0
C0
60
30
ENDCHAR
STARTCHAR U+0029
ENCODING 41
SWIDTH 500 0
DWIDTH 8 0
BBX 4 9 2 1
BITMAP
C0
60
30
30
30
30
30
60
C0
ENDCHAR
STARTCHAR U+002A
ENCODING 42
SWIDTH 500 0
DWIDTH 8 0
BBX 8 5 0 3
BITMAP
66
3C
FF
3C
66
ENDCHAR
STARTCHAR U+002B
ENCODING 43
SWIDTH 500 0
DWIDTH 8 0
BBX 6 5 1 3
BITMAP
30
30
FC
30
30
ENDCHAR
STARTCHAR U+002C
ENCODING 44
SWIDTH 500 0
DWIDTH 8 0
BBX 3 4 2 -2
BITMAP
60
60
60
C0
ENDCHAR
STARTCHAR U+002D
ENCODING 45
SWIDTH 500 0
DWIDTH 8 0
BBX 7 1 0 5
BITMAP
FE
ENDCHAR
STARTCHAR U+002E
ENCODING 46
SWIDTH 500 0
DWIDTH 8 0
BBX 2 2 3 -1
BITMAP
C0
C0
ENDCHAR
STARTCHAR U+002F
ENCODING 47
SWIDTH 500 0
DWIDTH 8 0
BBX 7 8 0 2
BITMAP
02
06
0C
18
30
60
C0
80
ENDCHAR
STARTCHAR U+0030
ENCODING 48
SWIDTH 500 0
DWIDTH 8 0
BBX 7 9 0 1
BITMAP
7C
C6
CE
DE
F6
E6
C6
C6
7C
ENDCHAR
STARTCHAR U+0031
ENCODING 49
SWIDTH 500 0
DWIDTH 8 0
BBX 6 9 1 1
BITMAP
30
70
F0
30
30
30
30
30
FC
ENDCHAR
STARTCHAR U+0032
ENCODING 50
SWIDTH 500 0
DWIDTH 8 0
BBX 7 9 0 1
BITMAP
7C
C6
06
0C
18
30
60
C6
FE
ENDCHAR
STARTCHAR U+0033
ENCODING 51
SWIDTH 500 0
DWIDTH 8 0
BBX 7 9 0 1
BITMAP
7C
C6
06
06
3C
06
06
C6
7C
ENDCHAR
STARTCHAR U+0034
ENCODING 52
SWIDTH 500 0
DWIDTH 8 0
BBX 7 9 0 1
BITMAP
0C
1C
3C
6C
CC
FE
0C
0C
1E
ENDCHAR
STARTCHAR U+0035
ENCODING 53
SWIDTH 500 0
DWIDTH 8 0
BBX 7 9 0 1
BITMAP
FE
C0
C0
C0
FC
06
06
C6
7C
ENDCHAR
STARTCHAR U+0036
ENCODING 54
SWIDTH 500 0
DWIDTH 8 0
BBX 7 9 0 1
BITMAP
38
60
C0
C0
FC
C6
C6
C6
7C
ENDCHAR
STARTCHAR U+0037
ENCODING 55
SWIDTH 500 0
DWIDTH 8 0
BBX 7 9 0 1
BITMAP
FE
C6
06
0C
18
30
30
30
30
ENDCHAR
STARTCHAR U+0038
ENCODING 56
SWIDTH 500 0
DWIDTH 8 0
BBX 7 9 0 1
BITMAP
7C
C6
C6
C6
7C
C6
C6
C6
7C
ENDCHAR
STARTCHAR U+0039
ENCODING 57
SWIDTH 500 0
DWIDTH 8 0
BBX 7 9 0 1
BITMAP
7C
C6
C6
C6
7E
06
06
0C
78
ENDCHAR
STARTCHAR U+003A
ENCODING 58
SWIDTH 500 0
DWIDTH 8 0
BBX 2 7 3 2
BITMAP
C0
C0
00
00
00
C0
C0
ENDCHAR
STARTCHAR U+003B
ENCODING 59
SWIDTH 500 0
DWIDTH 8 0
BBX 3 8 2 1
BITMAP
60
60
00
00
00
60
60
C0
ENDCHAR
STARTCHAR U+003C
ENCODING 60
SWIDTH 500 0
DWIDTH 8 0
BBX 6 9 1 1
BITMAP
0C
18
30
60
C0
60
30
18
0C
ENDCHAR
STARTCHAR U+003D
ENCODING 61
SWIDTH 500 0
DWIDTH 8 0
BBX 6 4 1 3
BITMAP
FC
00
00
FC
ENDCHAR
STARTCHAR U+003E
ENCODING 62
SWIDTH 500 0
DWIDTH 8 0
BBX 6 9 1 1
BITMAP
C0
60
30
18
0C
18
30
60
C0
ENDCHAR
STARTCHAR U+003F
ENCODING 63
SWIDTH 500 0
DWIDTH 8 0
BBX 7 9 0 1
BITMAP
7C
C6
C6
0C
18
18
00
18
18
ENDCHAR
STARTCHAR U+0040
ENCODING 64
SWIDTH 500 0
DWIDTH 8 0
BBX 7 9 0 1
BITMAP
7C
C6
C6
DE
DE
DE
DC
C0
7C
ENDCHAR
STARTCHAR U+0041
ENCODING 65
SWIDTH 500 0
DWIDTH 8 0
BBX 7 9 0 1
BITMAP
10
38
6C
C6
C6
FE
C6
C6
C6
ENDCHAR
STARTCHAR U+0042
ENCODING 66
SWIDTH 500 0
DWIDTH 8 0
BBX 7 9 0 1
BITMAP
FC
66
66
66
7C
66
66
66
FC
ENDCHAR
STARTCHAR U+0043
ENCODING 67
SWIDTH 500 0
DWIDTH 8 0
BBX 7 9 0 1
BITMAP
3C
66
C2
C0
C0
C0
C2
66
3C
ENDCHAR
STARTCHAR U+0044
ENCODING 68
SWIDTH 500 0
DWIDTH 8 0
BBX 7 9 0 1
BITMAP
F8
6C
66
66
66
66
66
6C
F8
ENDCHAR
STARTCHAR U+0045
ENCODING 69
SWIDTH 500 0
DWIDTH 8 0
BBX 7 9 0 1
BITMAP
FE
66
62
68
78
68
62
66
FE
ENDCHAR
STARTCHAR U+0046
ENCODING 70
SWIDTH 500 0
DWIDTH 8 0
BBX 7 9 0 1
BITMAP
FE
66
62
68
78
68
60
60
F0
ENDCHAR
STARTCHAR U+0047
ENCODING 71
SWIDTH 500 0
DWIDTH 8 0
BBX 7 9 0 1
BITMAP
3C
66
C2
C0
C0
DE
C6
66
3A
ENDCHAR
STARTCHAR U+0048
ENCODING 72
SWIDTH 500 0
DWIDTH 8 0
BBX 7 9 0 1
BITMAP
C6
C6
C6
C6
FE
C6
C6
C6
C6
ENDCHAR
STARTCHAR U+0049
ENCODING 73
SWIDTH 500 0
DWIDTH 8 0
BBX 4 9 2 1
BITMAP
F0
60
60
60
60
60
60
60
F0
ENDCHAR
STARTCHAR U+004A
ENCODING 74
SWIDTH 500 0
DWIDTH 8 0
BBX 7 9 0 1
BITMAP
1E
0C
0C
0C
0C
0C
CC
CC
78
ENDCHAR
STARTCHAR U+004B
ENCODING 75
SWIDTH 500 0
DWIDTH 8 0
BBX 7 9 0 1
BITMAP
E6
66
6C
6C
78
6C
6C
66
E6
ENDCHAR
STARTCHAR U+004C
ENCODING 76
SWIDTH 500 0
DWIDTH 8 0
BBX 7 9 0 1
BITMAP
F0
60
60
60
60
60
62
66
FE
ENDCHAR
STARTCHAR U+004D
ENCODING 77
SWIDTH 500 0
DWIDTH 8 0
BBX 7 9 0 1
BITMAP
C6
EE
FE
D6
C6
C6
C6
C6
C6
ENDCHAR
STARTCHAR U+004E
ENCODING 78
SWIDTH 500 0
DWIDTH 8 0
BBX 7 9 0 1
BITMAP
C6
E6
F6
FE
DE
CE
C6
C6
C6
ENDCHAR
STARTCHAR U+004F
ENCODING 79
SWIDTH 500 0
DWIDTH 8 0
BBX 7 9 0 1
BITMAP
38
6C
C6
C6
C6
C6
C6
6C
38
ENDCHAR
STARTCHAR U+0050
ENCODING 80
SWIDTH 500 0
DWIDTH 8 0
BBX 7 9 0 1
BITMAP
FC
66
66
66
7C
60
60
60
F0
ENDCHAR
STARTCHAR U+0051
ENCODING 81
SWIDTH 500 0
DWIDTH 8 0
BBX 7 10 0 0
BITMAP
7C
C6
C6
C6
C6
D6
DE
7C
0C
0E
ENDCHAR
STARTCHAR U+0052
ENCODING 82
SWIDTH 500 0
DWIDTH 8 0
BBX 8 9 0 1
BITMAP
FC
66
66
66
7C
6C
66
66
E7
ENDCHAR
STARTCHAR U+0053
ENCODING 83
SWIDTH 500 0
DWIDTH 8 0
BBX 7 9 0 1
BITMAP
7C
C6
C6
60
38
0C
C6
C6
7C
ENDCHAR
STARTCHAR U+0054
ENCODING 84
SWIDTH 500 0
DWIDTH 8 0
BBX 8 9 0 1
BITMAP
FF
99
18
18
18
18
18
18
3C
ENDCHAR
STARTCHAR U+0055
ENCODING 85
SWIDTH 500 0
DWIDTH 8 0
BBX 7 9 0 1
BITMAP
C6
C6
C6
C6
C6
C6
C6
C6
7C
ENDCHAR
STARTCHAR U+0056
ENCODING 86
SWIDTH 500 0
DWIDTH 8 0
BBX 7 9 0 1
BITMAP
C6
C6
C6
C6
C6
C6
6C
38
10
ENDCHAR
STARTCHAR U+0057
ENCODING 87
SWIDTH 500 0
DWIDTH 8 0
BBX 7 9 0 1
BITMAP
C6
C6
C6
C6
C6
D6
FE
EE
C6
ENDCHAR
STARTCHAR U+0058
ENCODING 88
SWIDTH 500 0
DWIDTH 8 0
BBX 7 9 0 1
BITMAP
C6
C6
C6
6C
38
6C
C6
C6
C6
ENDCHAR
STARTCHAR U+0059
ENCODING 89
SWIDTH 500 0
DWIDTH 8 0
BBX 8 9 0 1
BITMAP
C3
C3
66
3C
18
18
18
18
3C
ENDCHAR
STARTCHAR U+005A
ENCODING 90
SWIDTH 500 0
DWIDTH 8 0
BBX 7 9 0 1
BITMAP
FE
C6
8C
18
30
60
C2
C6
FE
ENDCHAR
STARTCHAR U+005B
ENCODING 91
SWIDTH 500 0
DWIDTH 8 0
BBX 4 9 2 1
BITMAP
F0
C0
C0
C0
C0
C0
C0
C0
F0
ENDCHAR
STARTCHAR U+005C
ENCODING 92
SWIDTH 500 0
DWIDTH 8 0
BBX 7 9 0 1
BITMAP
80
C0
E0
70
38
1C
0E
06
02
ENDCHAR
STARTCHAR U+005D
ENCODING 93
SWIDTH 500 0
DWIDTH 8 0
BBX 4 9 2 1
BITMAP
F0
30
30
30
30
30
30
30
F0
ENDCHAR
STARTCHAR U+005E
ENCODING 94
SWIDTH 500 0
DWIDTH 8 0
BBX 7 4 0 8
BITMAP
10
38
6C
C6
ENDCHAR
STARTCHAR U+005F
ENCODING 95
SWIDTH 500 0
DWIDTH 8 0
BBX 8 1 0 -1
BITMAP
FF
ENDCHAR
STARTCHAR U+0060
ENCODING 96
SWIDTH 500 0
DWIDTH 8 0
BBX 3 3 2 9
BITMAP
C0
C0
60
ENDCHAR
STARTCHAR U+0061
ENCODING 97
SWIDTH 500 0
DWIDTH 8 0
BBX 7 6 0 1
BITMAP
78
0C
7C
CC
CC
76
ENDCHAR
STARTCHAR U+0062
ENCODING 98
SWIDTH 500 0
DWIDTH 8 0
BBX 7 9 0 1
BITMAP
E0
60
60
78
6C
66
66
66
DC
ENDCHAR
STARTCHAR U+0063
ENCODING 99
SWIDTH 500 0
DWIDTH 8 0
BBX 7 6 0 1
BITMAP
7C
C6
C0
C0
C6
7C
ENDCHAR
STARTCHAR U+0064
ENCODING 100
SWIDTH 500 0
DWIDTH 8 0
BBX 7 9 0 1
BITMAP
1C
0C
0C
3C
6C
CC
CC
CC
76
ENDCHAR
STARTCHAR U+0065
ENCODING 101
SWIDTH 500 0
DWIDTH 8 0
BBX 7 6 0 1
BITMAP
7C
C6
FE
C0
C6
7C
ENDCHAR
STARTCHAR U+0066
ENCODING 102
SWIDTH 500 0
DWIDTH 8 0
BBX 6 9 1 1
BITMAP
38
6C
64
60
F8
60
60
60
F0
ENDCHAR
STARTCHAR U+0067
ENCODING 103
SWIDTH 500 0
DWIDTH 8 0
BBX 7 8 0 -1
BITMAP
76
CC
CC
CC
7C
0C
CC
78
ENDCHAR
STARTCHAR U+0068
ENCODING 104
SWIDTH 500 0
DWIDTH 8 0
BBX 7 9 0 1
BITMAP
E0
60
60
6C
76
66
66
66
E6
ENDCHAR
STARTCHAR U+0069
ENCODING 105
SWIDTH 500 0
DWIDTH 8 0
BBX 4 9 2 1
BITMAP
60
60
00
E0
60
60
60
60
F0
ENDCHAR
STARTCHAR U+006A
ENCODING 106
SWIDTH 500 0
DWIDTH 8 0
BBX 6 11 1 -1
BITMAP
0C
0C
00
1C
0C
0C
0C
0C
CC
CC
78
ENDCHAR
STARTCHAR U+006B
ENCODING 107
SWIDTH 500 0
DWIDTH 8 0
BBX 7 9 0 1
BITMAP
E0
60
60
66
6C
78
6C
66
E6
ENDCHAR
STARTCHAR U+006C
ENCODING 108
SWIDTH 500 0
DWIDTH 8 0
BBX 4 9 2 1
BITMAP
E0
60
60
60
60
60
60
60
F0
ENDCHAR
STARTCHAR U+006D
ENCODING 109
SWIDTH 500 0
DWIDTH 8 0
BBX 7 6 0 1
BITMAP
EC
FE
D6
D6
D6
D6
ENDCHAR
STARTCHAR U+006E
ENCODING 110
SWIDTH 500 0
DWIDTH 8 0
BBX 7 6 0 1
BITMAP
DC
66
66
66
66
66
ENDCHAR
STARTCHAR U+006F
ENCODING 111
SWIDTH 500 0
DWIDTH 8 0
BBX 7 6 0 1
BITMAP
7C
C6
C6
C6
C6
7C
ENDCHAR
STARTCHAR U+0070
ENCODING 112
SWIDTH 500 0
DWIDTH 8 0
BBX 7 8 0 -1
BITMAP
DC
66
66
66
7C
60
60
F0
ENDCHAR
STARTCHAR U+0071
ENCODING 113
SWIDTH 500 0
DWIDTH 8 0
BBX 7 8 0 -1
BITMAP
76
CC
CC
CC
7C
0C
0C
1E
ENDCHAR
STARTCHAR U+0072
ENCODING 114
SWIDTH 500 0
DWIDTH 8 0
BBX 7 6 0 1
BITMAP
DC
76
66
60
60
F0
ENDCHAR
STARTCHAR U+0073
ENCODING 115
SWIDTH 500 0
DWIDTH 8 0
BBX 7 6 0 1
BITMAP
7C
C6
70
1C
C6
7C
ENDCHAR
STARTCHAR U+0074
ENCODING 116
SWIDTH 500 0
DWIDTH 8 0
BBX 7 9 0 1
BITMAP
10
30
30
FC
30
30
30
36
1C
ENDCHAR
STARTCHAR U+0075
ENCODING 117
SWIDTH 500 0
DWIDTH 8 0
BBX 7 6 0 1
BITMAP
CC
CC
CC
CC
CC
76
ENDCHAR
STARTCHAR U+0076
ENCODING 118
SWIDTH 500 0
DWIDTH 8 0
BBX 7 6 0 1
BITMAP
C6
C6
C6
6C
38
10
ENDCHAR
STARTCHAR U+0077
ENCODING 119
SWIDTH 500 0
DWIDTH 8 0
BBX 7 6 0 1
BITMAP
C6
C6
D6
D6
FE
6C
ENDCHAR
STARTCHAR U+0078
ENCODING 120
SWIDTH 500 0
DWIDTH 8 0
BBX 7 6 0 1
BITMAP
C6
6C
38
38
6C
C6
ENDCHAR
STARTCHAR U+0079
ENCODING 121
SWIDTH 500 0
DWIDTH 8 0
BBX 7 8 0 -1
BITMAP
C6
C6
C6
C6
7E
06
0C
78
ENDCHAR
STARTCHAR U+007A
ENCODING 122
SWIDTH 500 0
DWIDTH 8 0
BBX 7 6 0 1
BITMAP
FE
CC
18
30
66
FE
ENDCHAR
STARTCHAR U+007B
ENCODING 123
SWIDTH 500 0
DWIDTH 8 0
BBX 6 9 1 1
BITMAP
1C
30
30
30
E0
30
30
30
1C
ENDCHAR
STARTCHAR U+007C
ENCODING 124
SWIDTH 500 0
DWIDTH 8 0
BBX 2 9 3 1
BITMAP
C0
C0
C0
C0
C0
C0
C0
C0
C0
ENDCHAR
STARTCHAR U+007D
ENCODING 125
SWIDTH 500 0
DWIDTH 8 0
BBX 6 9 1 1
BITMAP
E0
30
30
30
1C
30
30
30
E0
ENDCHAR
STARTCHAR U+007E
ENCODING 126
SWIDTH 500 0
DWIDTH 8 0
BBX 7 2 0 5
BITMAP
76
DC
ENDCHAR
STARTCHAR U+007F
ENCODING 127
SWIDTH 500 0
DWIDTH 8 0
BBX 7 6 0 2
BITMAP
10
38
6C
C6
C6
FE
ENDCHAR
STARTCHAR U+00A0
ENCODING 160
SWIDTH 500 0
DWIDTH 8 0
BBX 0 0 0 0
BITMAP
ENDCHAR
STARTCHAR U+00A1
ENCODING 161
SWIDTH 500 0
DWIDTH 8 0
BBX 4 9 2 1
BITMAP
60
60
00
60
60
F0
F0
F0
60
ENDCHAR
STARTCHAR U+00A2
ENCODING 162
SWIDTH 500 0
DWIDTH 8 0
BBX 6 10 1 1
BITMAP
30
30
78
CC
C0
C0
CC
78
30
30
ENDCHAR
STARTCHAR U+00A3
ENCODING 163
SWIDTH 500 0
DWIDTH 8 0
BBX 7 10 0 1
BITMAP
38
6C
64
60
F8
60
60
60
E6
FC
ENDCHAR
STARTCHAR U+00A4
ENCODING 164
SWIDTH 500 0
DWIDTH 8 0
BBX 7 7 0 1
BITMAP
C6
7C
C6
C6
C6
7C
C6
ENDCHAR
STARTCHAR U+00A5
ENCODING 165
SWIDTH 500 0
DWIDTH 8 0
BBX 8 10 0 1
BITMAP
C3
66
3C
18
FF
18
FF
18
18
18
ENDCHAR
STARTCHAR U+00A6
ENCODING 166
SWIDTH 500 0
DWIDTH 8 0
BBX 2 9 3 1
BITMAP
C0
C0
C0
C0
00
C0
C0
C0
C0
ENDCHAR
STARTCHAR U+00A7
ENCODING 167
SWIDTH 500 0
DWIDTH 8 0
BBX 7 12 0 -1
BITMAP
7C
C6
60
38
6C
C6
C6
6C
38
0C
C6
7C
ENDCHAR
STARTCHAR U+00A8
ENCODING 168
SWIDTH 500 0
DWIDTH 8 0
BBX 7 2 0 10
BITMAP
C6
C6
ENDCHAR
STARTCHAR U+00A9
ENCODING 169
SWIDTH 500 0
DWIDTH 8 0
BBX 7 9 0 1
BITMAP
38
44
9A
A2
A2
A2
9A
44
38
ENDCHAR
STARTCHAR U+00AA
ENCODING 170
SWIDTH 500 0
DWIDTH 8 0
BBX 6 6 1 5
BITMAP
78
D8
D8
7C
00
FC
ENDCHAR
STARTCHAR U+00AB
ENCODING 171
SWIDTH 500 0
DWIDTH 8 0
BBX 7 5 0 3
BITMAP
36
6C
D8
6C
36
ENDCHAR
STARTCHAR U+00AC
ENCODING 172
SWIDTH 500 0
DWIDTH 8 0
BBX 7 4 0 2
BITMAP
FE
06
06
06
ENDCHAR
STARTCHAR U+00AD
ENCODING 173
SWIDTH 500 0
DWIDTH 8 0
BBX 7 1 0 5
BITMAP
FE
ENDCHAR
STARTCHAR U+00AE
ENCODING 174
SWIDTH 500 0
DWIDTH 8 0
BBX 7 9 0 1
BITMAP
38
44
BA
AA
B2
AA
AA
44
38
ENDCHAR
STARTCHAR U+00AF
ENCODING 175
SWIDTH 500 0
DWIDTH 8 0
BBX 8 1 0 11
BITMAP
FF
ENDCHAR
STARTCHAR U+00B0
ENCODING 176
SWIDTH 500 0
DWIDTH 8 0
BBX 5 4 1 7
BITMAP
70
D8
D8
70
ENDCHAR
STARTCHAR U+00B1
ENCODING 177
SWIDTH 500 0
DWIDTH 8 0
BBX 8 8 0 1
BITMAP
18
18
7E
18
18
00
00
FF
ENDCHAR
STARTCHAR U+00B2
ENCODING 178
SWIDTH 500 0
DWIDTH 8 0
BBX 5 6 0 5
BITMAP
70
D8
18
70
C0
F8
ENDCHAR
STARTCHAR U+00B3
ENCODING 179
SWIDTH 500 0
DWIDTH 8 0
BBX 5 6 0 5
BITMAP
F0
18
70
18
18
F0
ENDCHAR
STARTCHAR U+00B4
ENCODING 180
SWIDTH 500 0
DWIDTH 8 0
BBX 4 3 2 9
BITMAP
30
60
C0
ENDCHAR
STARTCHAR U+00B5
ENCODING 181
SWIDTH 500 0
DWIDTH 8 0
BBX 7 8 0 0
BITMAP
66
66
66
66
7C
60
60
C0
ENDCHAR
STARTCHAR U+00B6
ENCODING 182
SWIDTH 500 0
DWIDTH 8 0
BBX 8 9 0 1
BITMAP
7F
DB
DB
DB
7B
1B
1B
1B
1B
ENDCHAR
STARTCHAR U+00B7
ENCODING 183
SWIDTH 500 0
DWIDTH 8 0
BBX 2 2 3 4
BITMAP
C0
C0
ENDCHAR
STARTCHAR U+00B8
ENCODING 184
SWIDTH 500 0
DWIDTH 8 0
BBX 5 3 1 -1
BITMAP
30
18
F0
ENDCHAR
STARTCHAR U+00B9
ENCODING 185
SWIDTH 500 0
DWIDTH 8 0
BBX 4 6 1 5
BITMAP
60
E0
60
60
60
F0
ENDCHAR
STARTCHAR U+00BA
ENCODING 186
SWIDTH 500 0
DWIDTH 8 0
BBX 5 6 1 5
BITMAP
70
D8
D8
70
00
F8
ENDCHAR
STARTCHAR U+00BB
ENCODING 187
SWIDTH 500 0
DWIDTH 8 0
BBX 7 5 0 3
BITMAP
D8
6C
36
6C
D8
ENDCHAR
STARTCHAR U+00BC
ENCODING 188
SWIDTH 500 0
DWIDTH 8 0
BBX 8 10 0 1
BITMAP
60
62
64
68
76
2E
5A
9F
02
02
ENDCHAR
STARTCHAR U+00BD
ENCODING 189
SWIDTH 500 0
DWIDTH 8 0
BBX 7 10 0 1
BITMAP
60
62
64
68
7C
36
46
8C
18
1E
ENDCHAR
STARTCHAR U+00BE
ENCODING 190
SWIDTH 500 0
DWIDTH 8 0
BBX 8 10 0 1
BITMAP
E0
32
64
38
F6
2E
5A
9F
02
02
ENDCHAR
STARTCHAR U+00BF
ENCODING 191
SWIDTH 500 0
DWIDTH 8 0
BBX 7 9 0 1
BITMAP
30
30
00
30
30
60
C6
C6
7C
ENDCHAR
STARTCHAR U+00C0
ENCODING 192
SWIDTH 500 0
DWIDTH 8 0
BBX 7 11 0 1
BITMAP
18
0C
06
10
38
6C
C6
C6
FE
C6
C6
ENDCHAR
STARTCHAR U+00C1
ENCODING 193
SWIDTH 500 0
DWIDTH 8 0
BBX 7 11 0 1
BITMAP
30
60
C0
10
38
6C
C6
C6
FE
C6
C6
ENDCHAR
STARTCHAR U+00C2
ENCODING 194
SWIDTH 500 0
DWIDTH 8 0
BBX 7 11 0 1
BITMAP
38
6C
C6
10
38
6C
C6
C6
FE
C6
C6
ENDCHAR
STARTCHAR U+00C3
ENCODING 195
SWIDTH 500 0
DWIDTH 8 0
BBX 7 11 0 1
BITMAP
76
DC
00
10
38
6C
C6
C6
FE
C6
C6
ENDCHAR
STARTCHAR U+00C4
ENCODING 196
SWIDTH 500 0
DWIDTH 8 0
BBX 7 10 0 1
BITMAP
C6
C6
10
38
6C
C6
C6
FE
C6
C6
ENDCHAR
STARTCHAR U+00C5
ENCODING 197
SWIDTH 500 0
DWIDTH 8 0
BBX 7 11 0 1
BITMAP
38
6C
38
00
38
6C
C6
C6
FE
C6
C6
ENDCHAR
STARTCHAR U+00C6
ENCODING 198
SWIDTH 500 0
DWIDTH 8 0
BBX 7 9 0 1
BITMAP
3E
6C
CC
CC
FE
CC
CC
CC
CE
ENDCHAR
STARTCHAR U+00C7
ENCODING 199
SWIDTH 500 0
DWIDTH 8 0
BBX 7 11 0 -1
BITMAP
3C
66
C2
C0
C0
C2
66
3C
0C
06
7C
ENDCHAR
STARTCHAR U+00C8
ENCODING 200
SWIDTH 500 0
DWIDTH 8 0
BBX 7 11 0 1
BITMAP
30
18
00
FE
66
60
7C
60
60
66
FE
ENDCHAR
STARTCHAR U+00C9
ENCODING 201
SWIDTH 500 0
DWIDTH 8 0
BBX 7 11 0 1
BITMAP
18
30
60
00
FE
66
60
7C
60
66
FE
ENDCHAR
STARTCHAR U+00CA
ENCODING 202
SWIDTH 500 0
DWIDTH 8 0
BBX 7 11 0 1
BITMAP
38
6C
00
FE
66
60
7C
60
60
66
FE
ENDCHAR
STARTCHAR U+00CB
ENCODING 203
SWIDTH 500 0
DWIDTH 8 0
BBX 7 11 0 1
BITMAP
C6
C6
00
FE
66
60
7C
60
60
66
FE
ENDCHAR
STARTCHAR U+00CC
ENCODING 204
SWIDTH 500 0
DWIDTH 8 0
BBX 4 11 2 1
BITMAP
C0
60
00
F0
60
60
60
60
60
60
F0
ENDCHAR
STARTCHAR U+00CD
ENCODING 205
SWIDTH 500 0
DWIDTH 8 0
BBX 4 11 2 1
BITMAP
30
60
00
F0
60
60
60
60
60
60
F0
ENDCHAR
STARTCHAR U+00CE
ENCODING 206
SWIDTH 500 0
DWIDTH 8 0
BBX 6 11 1 1
BITMAP
78
CC
00
78
30
30
30
30
30
30
78
ENDCHAR
STARTCHAR U+00CF
ENCODING 207
SWIDTH 500 0
DWIDTH 8 0
BBX 6 11 1 1
BITMAP
CC
CC
00
78
30
30
30
30
30
30
78
ENDCHAR
STARTCHAR U+00D0
ENCODING 208
SWIDTH 500 0
DWIDTH 8 0
BBX 7 9 0 1
BITMAP
F8
6C
66
66
F6
66
66
6C
F8
ENDCHAR
STARTCHAR U+00D1
ENCODING 209
SWIDTH 500 0
DWIDTH 8 0
BBX 7 11 0 1
BITMAP
76
DC
00
C6
E6
F6
FE
DE
CE
C6
C6
ENDCHAR
STARTCHAR U+00D2
ENCODING 210
SWIDTH 500 0
DWIDTH 8 0
BBX 7 11 0 1
BITMAP
30
18
00
38
6C
C6
C6
C6
C6
6C
38
ENDCHAR
STARTCHAR U+00D3
ENCODING 211
SWIDTH 500 0
DWIDTH 8 0
BBX 7 11 0 1
BITMAP
18
30
00
38
6C
C6
C6
C6
C6
6C
38
ENDCHAR
STARTCHAR U+00D4
ENCODING 212
SWIDTH 500 0
DWIDTH 8 0
BBX 7 11 0 1
BITMAP
38
6C
00
38
6C
C6
C6
C6
C6
6C
38
ENDCHAR
STARTCHAR U+00D5
ENCODING 213
SWIDTH 500 0
DWIDTH 8 0
BBX 7 11 0 1
BITMAP
76
DC
00
38
6C
C6
C6
C6
C6
6C
38
ENDCHAR
STARTCHAR U+00D6
ENCODING 214
SWIDTH 500 0
DWIDTH 8 0
BBX 7 10 0 1
BITMAP
C6
C6
38
6C
C6
C6
C6
C6
6C
38
ENDCHAR
STARTCHAR U+00D7
ENCODING 215
SWIDTH 500 0
DWIDTH 8 0
BBX 7 6 0 2
BITMAP
C6
6C
38
38
6C
C6
ENDCHAR
STARTCHAR U+00D8
ENCODING 216
SWIDTH 500 0
DWIDTH 8 0
BBX 7 11 0 0
BITMAP
06
3C
6C
CE
D6
D6
D6
E6
6C
78
C0
ENDCHAR
STARTCHAR U+00D9
ENCODING 217
SWIDTH 500 0
DWIDTH 8 0
BBX 7 11 0 1
BITMAP
60
30
18
00
C6
C6
C6
C6
C6
C6
7C
ENDCHAR
STARTCHAR U+00DA
ENCODING 218
SWIDTH 500 0
DWIDTH 8 0
BBX 7 11 0 1
BITMAP
0C
18
30
00
C6
C6
C6
C6
C6
C6
7C
ENDCHAR
STARTCHAR U+00DB
ENCODING 219
SWIDTH 500 0
DWIDTH 8 0
BBX 7 10 0 1
BITMAP
38
6C
00
C6
C6
C6
C6
C6
C6
7C
ENDCHAR
STARTCHAR U+00DC
ENCODING 220
SWIDTH 500 0
DWIDTH 8 0
BBX 7 10 0 1
BITMAP
C6
C6
00
C6
C6
C6
C6
C6
C6
7C
ENDCHAR
STARTCHAR U+00DD
ENCODING 221
SWIDTH 500 0
DWIDTH 8 0
BBX 8 11 0 1
BITMAP
0C
18
00
C3
C3
66
3C
18
18
18
3C
ENDCHAR
STARTCHAR U+00DE
ENCODING 222
SWIDTH 500 0
DWIDTH 8 0
BBX 7 9 0 1
BITMAP
F0
60
7C
66
66
66
7C
60
F0
ENDCHAR
STARTCHAR U+00DF
ENCODING 223
SWIDTH 500 0
DWIDTH 8 0
BBX 7 9 0 1
BITMAP
78
CC
CC
CC
D8
CC
C6
C6
CC
ENDCHAR
STARTCHAR U+00E0
ENCODING 224
SWIDTH 500 0
DWIDTH 8 0
BBX 7 10 0 1
BITMAP
60
30
18
00
78
0C
7C
CC
CC
76
ENDCHAR
STARTCHAR U+00E1
ENCODING 225
SWIDTH 500 0
DWIDTH 8 0
BBX 7 10 0 1
BITMAP
18
30
60
00
78
0C
7C
CC
CC
76
ENDCHAR
STARTCHAR U+00E2
ENCODING 226
SWIDTH 500 0
DWIDTH 8 0
BBX 7 10 0 1
BITMAP
10
38
6C
00
78
0C
7C
CC
CC
76
ENDCHAR
STARTCHAR U+00E3
ENCODING 227
SWIDTH 500 0
DWIDTH 8 0
BBX 7 9 0 1
BITMAP
76
DC
00
78
0C
7C
CC
CC
76
ENDCHAR
STARTCHAR U+00E4
ENCODING 228
SWIDTH 500 0
DWIDTH 8 0
BBX 7 9 0 1
BITMAP
CC
CC
00
78
0C
7C
CC
CC
76
ENDCHAR
STARTCHAR U+00E5
ENCODING 229
SWIDTH 500 0
DWIDTH 8 0
BBX 7 10 0 1
BITMAP
38
6C
38
00
78
0C
7C
CC
CC
76
ENDCHAR
STARTCHAR U+00E6
ENCODING 230
SWIDTH 500 0
DWIDTH 8 0
BBX 7 7 0 1
BITMAP
CC
76
36
7E
D8
D8
6E
ENDCHAR
STARTCHAR U+00E7
ENCODING 231
SWIDTH 500 0
DWIDTH 8 0
BBX 6 8 1 0
BITMAP
78
CC
C0
CC
78
18
0C
78
ENDCHAR
STARTCHAR U+00E8
ENCODING 232
SWIDTH 500 0
DWIDTH 8 0
BBX 7 10 0 1
BITMAP
60
30
18
00
7C
C6
FE
C0
C6
7C
ENDCHAR
STARTCHAR U+00E9
ENCODING 233
SWIDTH 500 0
DWIDTH 8 0
BBX 7 10 0 1
BITMAP
0C
18
30
00
7C
C6
FE
C0
C6
7C
ENDCHAR
STARTCHAR U+00EA
ENCODING 234
SWIDTH 500 0
DWIDTH 8 0
BBX 7 10 0 1
BITMAP
10
38
6C
00
7C
C6
FE
C0
C6
7C
ENDCHAR
STARTCHAR U+00EB
ENCODING 235
SWIDTH 500 0
DWIDTH 8 0
BBX 7 9 0 1
BITMAP
CC
CC
00
7C
C6
FE
C0
C6
7C
ENDCHAR
STARTCHAR U+00EC
ENCODING 236
SWIDTH 500 0
DWIDTH 8 0
BBX 5 10 1 1
BITMAP
C0
60
30
00
70
30
30
30
30
78
ENDCHAR
STARTCHAR U+00ED
ENCODING 237
SWIDTH 500 0
DWIDTH 8 0
BBX 4 10 2 1
BITMAP
30
60
C0
00
E0
60
60
60
60
F0
ENDCHAR
STARTCHAR U+00EE
ENCODING 238
SWIDTH 500 0
DWIDTH 8 0
BBX 6 10 1 1
BITMAP
30
78
CC
00
70
30
30
30
30
78
ENDCHAR
STARTCHAR U+00EF
ENCODING 239
SWIDTH 500 0
DWIDTH 8 0
BBX 6 9 1 1
BITMAP
CC
CC
00
70
30
30
30
30
78
ENDCHAR
STARTCHAR U+00F0
ENCODING 240
SWIDTH 500 0
DWIDTH 8 0
BBX 6 9 1 1
BITMAP
68
30
58
0C
7C
CC
CC
CC
78
ENDCHAR
STARTCHAR U+00F1
ENCODING 241
SWIDTH 500 0
DWIDTH 8 0
BBX 7 9 0 1
BITMAP
76
DC
00
DC
66
66
66
66
66
ENDCHAR
STARTCHAR U+00F2
ENCODING 242
SWIDTH 500 0
DWIDTH 8 0
BBX 7 10 0 1
BITMAP
60
30
18
00
7C
C6
C6
C6
C6
7C
ENDCHAR
STARTCHAR U+00F3
ENCODING 243
SWIDTH 500 0
DWIDTH 8 0
BBX 7 10 0 1
BITMAP
18
30
60
00
7C
C6
C6
C6
C6
7C
ENDCHAR
STARTCHAR U+00F4
ENCODING 244
SWIDTH 500 0
DWIDTH 8 0
BBX 7 10 0 1
BITMAP
10
38
6C
00
7C
C6
C6
C6
C6
7C
ENDCHAR
STARTCHAR U+00F5
ENCODING 245
SWIDTH 500 0
DWIDTH 8 0
BBX 7 9 0 1
BITMAP
76
DC
00
7C
C6
C6
C6
C6
7C
ENDCHAR
STARTCHAR U+00F6
ENCODING 246
SWIDTH 500 0
DWIDTH 8 0
BBX 7 9 0 1
BITMAP
C6
C6
00
7C
C6
C6
C6
C6
7C
ENDCHAR
STARTCHAR U+00F7
ENCODING 247
SWIDTH 500 0
DWIDTH 8 0
BBX 6 7 1 2
BITMAP
30
30
00
FC
00
30
30
ENDCHAR
STARTCHAR U+00F8
ENCODING 248
SWIDTH 500 0
DWIDTH 8 0
BBX 7 6 0 1
BITMAP
7C
CE
DE
F6
E6
7C
ENDCHAR
STARTCHAR U+00F9
ENCODING 249
SWIDTH 500 0
DWIDTH 8 0
BBX 7 10 0 1
BITMAP
60
30
18
00
CC
CC
CC
CC
CC
76
ENDCHAR
STARTCHAR U+00FA
ENCODING 250
SWIDTH 500 0
DWIDTH 8 0
BBX 7 10 0 1
BITMAP
18
30
60
00
CC
CC
CC
CC
CC
76
ENDCHAR
STARTCHAR U+00FB
ENCODING 251
SWIDTH 500 0
DWIDTH 8 0
BBX 7 10 0 1
BITMAP
30
78
CC
00
CC
CC
CC
CC
CC
76
ENDCHAR
STARTCHAR U+00FC
ENCODING 252
SWIDTH 500 0
DWIDTH 8 0
BBX 7 9 0 1
BITMAP
CC
CC
00
CC
CC
CC
CC
CC
76
ENDCHAR
STARTCHAR U+00FD
ENCODING 253
SWIDTH 500 0
DWIDTH 8 0
BBX 7 12 0 -1
BITMAP
0C
18
30
00
C6
C6
C6
C6
7E
06
0C
78
ENDCHAR
STARTCHAR U+00FE
ENCODING 254
SWIDTH 500 0
DWIDTH 8 0
BBX 7 11 0 -1
BITMAP
E0
60
60
7C
66
66
66
66
7C
60
F0
ENDCHAR
STARTCHAR U+00FF
ENCODING 255
SWIDTH 500 0
DWIDTH 8 0
BBX 7 11 0 -1
BITMAP
C6
C6
00
C6
C6
C6
C6
7E
06
0C
78
ENDCHAR
STARTCHAR U+0100
ENCODING 256
SWIDTH 500 0
DWIDTH 8 0
BBX 7 11 0 1
BITMAP
7C
00
10
38
6C
C6
C6
FE
C6
C6
C6
ENDCHAR
STARTCHAR U+0101
ENCODING 257
SWIDTH 500 0
DWIDTH 8 0
BBX 7 8 0 1
BITMAP
7C
00
78
0C
7C
CC
CC
76
ENDCHAR
STARTCHAR U+0102
ENCODING 258
SWIDTH 500 0
DWIDTH 8 0
BBX 7 11 0 1
BITMAP
C6
7C
00
10
38
6C
C6
C6
FE
C6
C6
ENDCHAR
STARTCHAR U+0103
ENCODING 259
SWIDTH 500 0
DWIDTH 8 0
BBX 7 9 0 1
BITMAP
C6
7C
00
78
0C
7C
CC
CC
76
ENDCHAR
STARTCHAR U+0104
ENCODING 260
SWIDTH 500 0
DWIDTH 8 0
BBX 7 11 0 -1
BITMAP
10
38
6C
C6
C6
FE
C6
C6
C6
18
0E
ENDCHAR
STARTCHAR U+0105
ENCODING 261
SWIDTH 500 0
DWIDTH 8 0
BBX 7 8 0 -1
BITMAP
78
0C
7C
CC
CC
76
18
0E
ENDCHAR
STARTCHAR U+0106
ENCODING 262
SWIDTH 500 0
DWIDTH 8 0
BBX 7 11 0 1
BITMAP
0C
18
00
3C
66
C2
C0
C0
C2
66
3C
ENDCHAR
STARTCHAR U+0107
ENCODING 263
SWIDTH 500 0
DWIDTH 8 0
BBX 7 10 0 1
BITMAP
06
0C
18
00
7C
C6
C0
C0
C6
7C
ENDCHAR
STARTCHAR U+0108
ENCODING 264
SWIDTH 500 0
DWIDTH 8 0
BBX 7 11 0 1
BITMAP
1C
36
00
3C
66
C2
C0
C0
C2
66
3C
ENDCHAR
STARTCHAR U+0109
ENCODING 265
SWIDTH 500 0
DWIDTH 8 0
BBX 7 10 0 1
BITMAP
10
38
6C
00
7C
C6
C0
C0
C6
7C
ENDCHAR
STARTCHAR U+010A
ENCODING 266
SWIDTH 500 0
DWIDTH 8 0
BBX 7 11 0 1
BITMAP
18
18
00
3C
66
C2
C0
C0
C2
66
3C
ENDCHAR
STARTCHAR U+010B
ENCODING 267
SWIDTH 500 0
DWIDTH 8 0
BBX 7 9 0 1
BITMAP
18
18
00
7C
C6
C0
C0
C6
7C
ENDCHAR
STARTCHAR U+010C
ENCODING 268
SWIDTH 500 0
DWIDTH 8 0
BBX 7 11 0 1
BITMAP
36
1C
00
3C
66
C2
C0
C0
C2
66
3C
ENDCHAR
STARTCHAR U+010D
ENCODING 269
SWIDTH 500 0
DWIDTH 8 0
BBX 7 10 0 1
BITMAP
6C
38
10
00
7C
C6
C0
C0
C6
7C
ENDCHAR
STARTCHAR U+010E
ENCODING 270
SWIDTH 500 0
DWIDTH 8 0
BBX 7 11 0 1
BITMAP
6C
38
00
F8
6C
66
66
66
66
6C
F8
ENDCHAR
STARTCHAR U+010F
ENCODING 271
SWIDTH 500 0
DWIDTH 8 0
BBX 8 11 0 1
BITMAP
03
01
02
1C
0C
0C
3C
6C
CC
CC
76
ENDCHAR
STARTCHAR U+0110
ENCODING 272
SWIDTH 500 0
DWIDTH 8 0
BBX 7 9 0 1
BITMAP
F8
6C
66
66
F6
66
66
6C
F8
ENDCHAR
STARTCHAR U+0111
ENCODING 273
SWIDTH 500 0
DWIDTH 8 0
BBX 7 9 0 1
BITMAP
0C
7E
0C
3C
6C
CC
CC
CC
76
ENDCHAR
STARTCHAR U+0112
ENCODING 274
SWIDTH 500 0
DWIDTH 8 0
BBX 7 11 0 1
BITMAP
7C
00
FE
66
62
68
78
68
62
66
FE
ENDCHAR
STARTCHAR U+0113
ENCODING 275
SWIDTH 500 0
DWIDTH 8 0
BBX 7 8 0 1
BITMAP
7C
00
7C
C6
FE
C0
C6
7C
ENDCHAR
STARTCHAR U+0114
ENCODING 276
SWIDTH 500 0
DWIDTH 8 0
BBX 7 11 0 1
BITMAP
C6
7C
00
FE
66
60
7C
60
60
66
FE
ENDCHAR
STARTCHAR U+0115
ENCODING 277
SWIDTH 500 0
DWIDTH 8 0
BBX 7 9 0 1
BITMAP
C6
7C
00
7C
C6
FE
C0
C6
7C
ENDCHAR
STARTCHAR U+0116
ENCODING 278
SWIDTH 500 0
DWIDTH 8 0
BBX 7 11 0 1
BITMAP
18
18
00
FE
66
60
7C
60
60
66
FE
ENDCHAR
STARTCHAR U+0117
ENCODING 279
SWIDTH 500 0
DWIDTH 8 0
BBX 7 9 0 1
BITMAP
18
18
00
7C
C6
FE
C0
C6
7C
ENDCHAR
STARTCHAR U+0118
ENCODING 280
SWIDTH 500 0
DWIDTH 8 0
BBX 7 11 0 -1
BITMAP
FE
66
62
68
78
68
62
66
FE
18
0E
ENDCHAR
STARTCHAR U+0119
ENCODING 281
SWIDTH 500 0
DWIDTH 8 0
BBX 7 8 0 -1
BITMAP
7C
C6
FE
C0
C6
7C
18
0E
ENDCHAR
STARTCHAR U+011A
ENCODING 282
SWIDTH 500 0
DWIDTH 8 0
BBX 7 11 0 1
BITMAP
6C
38
00
FE
66
60
7C
60
60
66
FE
ENDCHAR
STARTCHAR U+011B
ENCODING 283
SWIDTH 500 0
DWIDTH 8 0
BBX 7 10 0 1
BITMAP
6C
38
10
00
7C
C6
FE
C0
C6
7C
ENDCHAR
STARTCHAR U+011C
ENCODING 284
SWIDTH 500 0
DWIDTH 8 0
BBX 7 11 0 1
BITMAP
1C
36
00
3C
66
C2
C0
DE
C6
66
3A
ENDCHAR
STARTCHAR U+011D
ENCODING 285
SWIDTH 500 0
DWIDTH 8 0
BBX 7 12 0 -1
BITMAP
10
38
6C
00
76
CC
CC
CC
7C
0C
CC
78
ENDCHAR
STARTCHAR U+011E
ENCODING 286
SWIDTH 500 0
DWIDTH 8 0
BBX 7 11 0 1
BITMAP
36
1C
00
3C
66
C2
C0
DE
C6
66
3A
ENDCHAR
STARTCHAR U+011F
ENCODING 287
SWIDTH 500 0
DWIDTH 8 0
BBX 7 12 0 -1
BITMAP
6C
38
10
00
76
CC
CC
CC
7C
0C
CC
78
ENDCHAR
STARTCHAR U+0120
ENCODING 288
SWIDTH 500 0
DWIDTH 8 0
BBX 7 11 0 1
BITMAP
18
18
00
3C
66
C2
C0
DE
C6
66
3A
ENDCHAR
STARTCHAR U+0121
ENCODING 289
SWIDTH 500 0
DWIDTH 8 0
BBX 7 11 0 -1
BITMAP
18
18
00
76
CC
CC
CC
7C
0C
CC
78
ENDCHAR
STARTCHAR U+0122
ENCODING 290
SWIDTH 500 0
DWIDTH 8 0
BBX 7 11 0 -1
BITMAP
3C
66
C2
C0
C0
DE
C6
66
3A
18
70
ENDCHAR
STARTCHAR U+0123
ENCODING 291
SWIDTH 500 0
DWIDTH 8 0
BBX 7 11 0 -1
BITMAP
1C
30
00
76
CC
CC
CC
7C
0C
CC
78
ENDCHAR
STARTCHAR U+0124
ENCODING 292
SWIDTH 500 0
DWIDTH 8 0
BBX 7 11 0 1
BITMAP
38
6C
00
C6
C6
C6
FE
C6
C6
C6
C6
ENDCHAR
STARTCHAR U+0125
ENCODING 293
SWIDTH 500 0
DWIDTH 8 0
BBX 7 11 0 1
BITMAP
38
6C
00
E0
60
6C
76
66
66
66
E6
ENDCHAR
STARTCHAR U+0126
ENCODING 294
SWIDTH 500 0
DWIDTH 8 0
BBX 8 9 0 1
BITMAP
66
66
FF
66
7E
66
66
66
66
ENDCHAR
STARTCHAR U+0127
ENCODING 295
SWIDTH 500 0
DWIDTH 8 0
BBX 7 9 0 1
BITMAP
E0
60
F0
6C
76
66
66
66
E6
ENDCHAR
STARTCHAR U+0128
ENCODING 296
SWIDTH 500 0
DWIDTH 8 0
BBX 7 11 0 1
BITMAP
76
DC
00
3C
18
18
18
18
18
18
3C
ENDCHAR
STARTCHAR U+0129
ENCODING 297
SWIDTH 500 0
DWIDTH 8 0
BBX 7 9 0 1
BITMAP
76
DC
00
38
18
18
18
18
3C
ENDCHAR
STARTCHAR U+012A
ENCODING 298
SWIDTH 500 0
DWIDTH 8 0
BBX 6 10 1 1
BITMAP
FC
00
78
30
30
30
30
30
30
78
ENDCHAR
STARTCHAR U+012B
ENCODING 299
SWIDTH 500 0
DWIDTH 8 0
BBX 5 8 1 1
BITMAP
F8
00
70
30
30
30
30
78
ENDCHAR
STARTCHAR U+012C
ENCODING 300
SWIDTH 500 0
DWIDTH 8 0
BBX 6 11 1 1
BITMAP
CC
78
00
78
30
30
30
30
30
30
78
ENDCHAR
STARTCHAR U+012D
ENCODING 301
SWIDTH 500 0
DWIDTH 8 0
BBX 6 9 1 1
BITMAP
CC
78
00
70
30
30
30
30
78
ENDCHAR
STARTCHAR U+012E
ENCODING 302
SWIDTH 500 0
DWIDTH 8 0
BBX 5 11 2 -1
BITMAP
F0
60
60
60
60
60
60
60
F0
60
38
ENDCHAR
STARTCHAR U+012F
ENCODING 303
SWIDTH 500 0
DWIDTH 8 0
BBX 5 11 2 -1
BITMAP
60
60
00
E0
60
60
60
60
F0
60
38
ENDCHAR
STARTCHAR U+0130
ENCODING 304
SWIDTH 500 0
DWIDTH 8 0
BBX 4 11 2 1
BITMAP
60
60
00
F0
60
60
60
60
60
60
F0
ENDCHAR
STARTCHAR U+0131
ENCODING 305
SWIDTH 500 0
DWIDTH 8 0
BBX 4 6 2 1
BITMAP
E0
60
60
60
60
F0
ENDCHAR
STARTCHAR U+0132
ENCODING 306
SWIDTH 500 0
DWIDTH 8 0
BBX 7 9 0 1
BITMAP
CE
C6
C6
C6
C6
C6
D6
D6
CC
ENDCHAR
STARTCHAR U+0133
ENCODING 307
SWIDTH 500 0
DWIDTH 8 0
BBX 7 11 0 -1
BITMAP
C6
C6
00
CE
C6
C6
C6
C6
F6
36
1C
ENDCHAR
STARTCHAR U+0134
ENCODING 308
SWIDTH 500 0
DWIDTH 8 0
BBX 7 11 0 1
BITMAP
1C
36
00
1E
0C
0C
0C
0C
CC
CC
78
ENDCHAR
STARTCHAR U+0135
ENCODING 309
SWIDTH 500 0
DWIDTH 8 0
BBX 7 12 0 -1
BITMAP
08
1C
36
00
1C
0C
0C
0C
0C
CC
CC
78
ENDCHAR
STARTCHAR U+0136
ENCODING 310
SWIDTH 500 0
DWIDTH 8 0
BBX 7 11 0 -1
BITMAP
E6
66
6C
6C
78
6C
6C
66
E6
18
70
ENDCHAR
STARTCHAR U+0137
ENCODING 311
SWIDTH 500 0
DWIDTH 8 0
BBX 7 11 0 -1
BITMAP
E0
60
60
66
6C
78
6C
66
E6
18
70
ENDCHAR
STARTCHAR U+0138
ENCODING 312
SWIDTH 500 0
DWIDTH 8 0
BBX 7 6 0 1
BITMAP
E6
6C
78
6C
66
E6
ENDCHAR
STARTCHAR U+0139
ENCODING 313
SWIDTH 500 0
DWIDTH 8 0
BBX 7 11 0 1
BITMAP
30
60
00
F0
60
60
60
60
62
66
FE
ENDCHAR
STARTCHAR U+013A
ENCODING 314
SWIDTH 500 0
DWIDTH 8 0
BBX 6 11 1 1
BITMAP
0C
18
E0
60
60
60
60
60
60
60
F0
ENDCHAR
STARTCHAR U+013B
ENCODING 315
SWIDTH 500 0
DWIDTH 8 0
BBX 7 11 0 -1
BITMAP
F0
60
60
60
60
60
62
66
FE
18
70
ENDCHAR
STARTCHAR U+013C
ENCODING 316
SWIDTH 500 0
DWIDTH 8 0
BBX 4 11 2 -1
BITMAP
E0
60
60
60
60
60
60
60
F0
30
E0
ENDCHAR
STARTCHAR U+013D
ENCODING 317
SWIDTH 500 0
DWIDTH 8 0
BBX 7 9 0 1
BITMAP
F6
62
64
60
60
60
62
66
FE
ENDCHAR
STARTCHAR U+013E
ENCODING 318
SWIDTH 500 0
DWIDTH 8 0
BBX 6 9 1 1
BITMAP
EC
64
68
60
60
60
60
60
F0
ENDCHAR
STARTCHAR U+013F
ENCODING 319
SWIDTH 500 0
DWIDTH 8 0
BBX 7 9 0 1
BITMAP
F0
60
60
66
66
60
62
66
FE
ENDCHAR
STARTCHAR U+0140
ENCODING 320
SWIDTH 500 0
DWIDTH 8 0
BBX 6 9 1 1
BITMAP
E0
60
60
6C
6C
60
60
60
F0
ENDCHAR
STARTCHAR U+0141
ENCODING 321
SWIDTH 500 0
DWIDTH 8 0
BBX 7 9 0 1
BITMAP
78
30
36
3C
38
70
F2
36
7E
ENDCHAR
STARTCHAR U+0142
ENCODING 322
SWIDTH 500 0
DWIDTH 8 0
BBX 6 9 1 1
BITMAP
70
34
3C
38
30
70
F0
30
78
ENDCHAR
STARTCHAR U+0143
ENCODING 323
SWIDTH 500 0
DWIDTH 8 0
BBX 7 11 0 1
BITMAP
0C
18
00
C6
E6
F6
FE
DE
CE
C6
C6
ENDCHAR
STARTCHAR U+0144
ENCODING 324
SWIDTH 500 0
DWIDTH 8 0
BBX 7 10 0 1
BITMAP
06
0C
18
00
DC
66
66
66
66
66
ENDCHAR
STARTCHAR U+0145
ENCODING 325
SWIDTH 500 0
DWIDTH 8 0
BBX 7 11 0 -1
BITMAP
C6
E6
F6
FE
DE
CE
C6
C6
C6
18
70
ENDCHAR
STARTCHAR U+0146
ENCODING 326
SWIDTH 500 0
DWIDTH 8 0
BBX 7 8 0 -1
BITMAP
DC
66
66
66
66
66
18
70
ENDCHAR
STARTCHAR U+0147
ENCODING 327
SWIDTH 500 0
DWIDTH 8 0
BBX 7 11 0 1
BITMAP
6C
38
00
C6
E6
F6
FE
DE
CE
C6
C6
ENDCHAR
STARTCHAR U+0148
ENCODING 328
SWIDTH 500 0
DWIDTH 8 0
BBX 7 10 0 1
BITMAP
6C
38
10
00
DC
66
66
66
66
66
ENDCHAR
STARTCHAR U+0149
ENCODING 329
SWIDTH 500 0
DWIDTH 8 0
BBX 7 10 0 1
BITMAP
60
60
C0
00
DC
66
66
66
66
66
ENDCHAR
STARTCHAR U+014A
ENCODING 330
SWIDTH 500 0
DWIDTH 8 0
BBX 7 11 0 -1
BITMAP
C6
E6
F6
FE
DE
CE
C6
C6
C6
06
1C
ENDCHAR
STARTCHAR U+014B
ENCODING 331
SWIDTH 500 0
DWIDTH 8 0
BBX 7 8 0 -1
BITMAP
DC
66
66
66
66
66
06
1C
ENDCHAR
STARTCHAR U+014C
ENCODING 332
SWIDTH 500 0
DWIDTH 8 0
BBX 7 11 0 1
BITMAP
7C
00
38
6C
C6
C6
C6
C6
C6
6C
38
ENDCHAR
STARTCHAR U+014D
ENCODING 333
SWIDTH 500 0
DWIDTH 8 0
BBX 7 8 0 1
BITMAP
7C
00
7C
C6
C6
C6
C6
7C
ENDCHAR
STARTCHAR U+014E
ENCODING 334
SWIDTH 500 0
DWIDTH 8 0
BBX 7 11 0 1
BITMAP
C6
7C
00
38
6C
C6
C6
C6
C6
6C
38
ENDCHAR
STARTCHAR U+014F
ENCODING 335
SWIDTH 500 0
DWIDTH 8 0
BBX 7 9 0 1
BITMAP
C6
7C
00
7C
C6
C6
C6
C6
7C
ENDCHAR
STARTCHAR U+0150
ENCODING 336
SWIDTH 500 0
DWIDTH 8 0
BBX 7 11 0 1
BITMAP
66
CC
00
38
6C
C6
C6
C6
C6
6C
38
ENDCHAR
STARTCHAR U+0151
ENCODING 337
SWIDTH 500 0
DWIDTH 8 0
BBX 8 10 0 1
BITMAP
33
66
CC
00
7C
C6
C6
C6
C6
7C
ENDCHAR
STARTCHAR U+0152
ENCODING 338
SWIDTH 500 0
DWIDTH 8 0
BBX 7 9 0 1
BITMAP
3E
6C
CC
CC
CE
CC
CC
6C
3E
ENDCHAR
STARTCHAR U+0153
ENCODING 339
SWIDTH 500 0
DWIDTH 8 0
BBX 7 7 0 1
BITMAP
6C
D6
D6
DE
D8
D8
6E
ENDCHAR
STARTCHAR U+0154
ENCODING 340
SWIDTH 500 0
DWIDTH 8 0
BBX 8 11 0 1
BITMAP
0C
18
00
FC
66
66
66
7C
6C
66
E7
ENDCHAR
STARTCHAR U+0155
ENCODING 341
SWIDTH 500 0
DWIDTH 8 0
BBX 7 10 0 1
BITMAP
06
0C
18
00
DC
76
66
60
60
F0
ENDCHAR
STARTCHAR U+0156
ENCODING 342
SWIDTH 500 0
DWIDTH 8 0
BBX 8 11 0 -1
BITMAP
FC
66
66
66
7C
6C
66
66
E7
18
70
ENDCHAR
STARTCHAR U+0157
ENCODING 343
SWIDTH 500 0
DWIDTH 8 0
BBX 7 8 0 -1
BITMAP
DC
76
66
60
60
F0
18
70
ENDCHAR
STARTCHAR U+0158
ENCODING 344
SWIDTH 500 0
DWIDTH 8 0
BBX 8 11 0 1
BITMAP
6C
38
00
FC
66
66
66
7C
6C
66
E7
ENDCHAR
STARTCHAR U+0159
ENCODING 345
SWIDTH 500 0
DWIDTH 8 0
BBX 7 10 0 1
BITMAP
6C
38
10
00
DC
76
66
60
60
F0
ENDCHAR
STARTCHAR U+015A
ENCODING 346
SWIDTH 500 0
DWIDTH 8 0
BBX 7 11 0 1
BITMAP
0C
18
00
7C
C6
C0
70
1C
06
C6
7C
ENDCHAR
STARTCHAR U+015B
ENCODING 347
SWIDTH 500 0
DWIDTH 8 0
BBX 7 10 0 1
BITMAP
06
0C
18
00
7C
C6
70
1C
C6
7C
ENDCHAR
STARTCHAR U+015C
ENCODING 348
SWIDTH 500 0
DWIDTH 8 0
BBX 7 11 0 1
BITMAP
38
6C
00
7C
C6
C0
70
1C
06
C6
7C
ENDCHAR
STARTCHAR U+015D
ENCODING 349
SWIDTH 500 0
DWIDTH 8 0
BBX 7 10 0 1
BITMAP
10
38
6C
00
7C
C6
70
1C
C6
7C
ENDCHAR
STARTCHAR U+015E
ENCODING 350
SWIDTH 500 0
DWIDTH 8 0
BBX 7 11 0 -1
BITMAP
7C
C6
C6
60
38
0C
C6
C6
7C
18
70
ENDCHAR
STARTCHAR U+015F
ENCODING 351
SWIDTH 500 0
DWIDTH 8 0
BBX 7 8 0 -1
BITMAP
7C
C6
70
1C
C6
7C
18
70
ENDCHAR
STARTCHAR U+0160
ENCODING 352
SWIDTH 500 0
DWIDTH 8 0
BBX 7 11 0 1
BITMAP
6C
38
00
7C
C6
C0
70
1C
06
C6
7C
ENDCHAR
STARTCHAR U+0161
ENCODING 353
SWIDTH 500 0
DWIDTH 8 0
BBX 7 10 0 1
BITMAP
6C
38
10
00
7C
C6
70
1C
C6
7C
ENDCHAR
STARTCHAR U+0162
ENCODING 354
SWIDTH 500 0
DWIDTH 8 0
BBX 8 11 0 -1
BITMAP
FF
99
18
18
18
18
18
18
3C
18
70
ENDCHAR
STARTCHAR U+0163
ENCODING 355
SWIDTH 500 0
DWIDTH 8 0
BBX 7 11 0 -1
BITMAP
10
30
30
FC
30
30
30
36
1C
0C
38
ENDCHAR
STARTCHAR U+0164
ENCODING 356
SWIDTH 500 0
DWIDTH 8 0
BBX 8 11 0 1
BITMAP
36
1C
00
FF
99
18
18
18
18
18
3C
ENDCHAR
STARTCHAR U+0165
ENCODING 357
SWIDTH 500 0
DWIDTH 8 0
BBX 7 10 0 1
BITMAP
06
12
34
30
FC
30
30
30
36
1C
ENDCHAR
STARTCHAR U+0166
ENCODING 358
SWIDTH 500 0
DWIDTH 8 0
BBX 8 9 0 1
BITMAP
FF
99
18
18
7E
18
18
18
3C
ENDCHAR
STARTCHAR U+0167
ENCODING 359
SWIDTH 500 0
DWIDTH 8 0
BBX 7 9 0 1
BITMAP
10
30
30
FC
30
FC
30
36
1C
ENDCHAR
STARTCHAR U+0168
ENCODING 360
SWIDTH 500 0
DWIDTH 8 0
BBX 7 11 0 1
BITMAP
76
DC
00
C6
C6
C6
C6
C6
C6
C6
7C
ENDCHAR
STARTCHAR U+0169
ENCODING 361
SWIDTH 500 0
DWIDTH 8 0
BBX 7 9 0 1
BITMAP
76
DC
00
CC
CC
CC
CC
CC
76
ENDCHAR
STARTCHAR U+016A
ENCODING 362
SWIDTH 500 0
DWIDTH 8 0
BBX 7 10 0 1
BITMAP
FE
00
C6
C6
C6
C6
C6
C6
C6
7C
ENDCHAR
STARTCHAR U+016B
ENCODING 363
SWIDTH 500 0
DWIDTH 8 0
BBX 7 8 0 1
BITMAP
FC
00
CC
CC
CC
CC
CC
76
ENDCHAR
STARTCHAR U+016C
ENCODING 364
SWIDTH 500 0
DWIDTH 8 0
BBX 7 11 0 1
BITMAP
C6
7C
00
C6
C6
C6
C6
C6
C6
C6
7C
ENDCHAR
STARTCHAR U+016D
ENCODING 365
SWIDTH 500 0
DWIDTH 8 0
BBX 7 9 0 1
BITMAP
C6
7C
00
CC
CC
CC
CC
CC
76
ENDCHAR
STARTCHAR U+016E
ENCODING 366
SWIDTH 500 0
DWIDTH 8 0
BBX 7 11 0 1
BITMAP
38
6C
38
C6
C6
C6
C6
C6
C6
C6
7C
ENDCHAR
STARTCHAR U+016F
ENCODING 367
SWIDTH 500 0
DWIDTH 8 0
BBX 7 10 0 1
BITMAP
38
6C
38
00
CC
CC
CC
CC
CC
76
ENDCHAR
STARTCHAR U+0170
ENCODING 368
SWIDTH 500 0
DWIDTH 8 0
BBX 7 11 0 1
BITMAP
66
CC
00
C6
C6
C6
C6
C6
C6
C6
7C
ENDCHAR
STARTCHAR U+0171
ENCODING 369
SWIDTH 500 0
DWIDTH 8 0
BBX 8 10 0 1
BITMAP
33
66
CC
00
CC
CC
CC
CC
CC
76
ENDCHAR
STARTCHAR U+0172
ENCODING 370
SWIDTH 500 0
DWIDTH 8 0
BBX 7 11 0 -1
BITMAP
C6
C6
C6
C6
C6
C6
C6
C6
7C
18
0E
ENDCHAR
STARTCHAR U+0173
ENCODING 371
SWIDTH 500 0
DWIDTH 8 0
BBX 7 8 0 -1
BITMAP
CC
CC
CC
CC
CC
76
18
0E
ENDCHAR
STARTCHAR U+0174
ENCODING 372
SWIDTH 500 0
DWIDTH 8 0
BBX 7 11 0 1
BITMAP
38
6C
00
C6
C6
C6
C6
D6
FE
EE
C6
ENDCHAR
STARTCHAR U+0175
ENCODING 373
SWIDTH 500 0
DWIDTH 8 0
BBX 7 10 0 1
BITMAP
10
38
6C
00
C6
C6
D6
D6
FE
6C
ENDCHAR
STARTCHAR U+0176
ENCODING 374
SWIDTH 500 0
DWIDTH 8 0
BBX 8 11 0 1
BITMAP
3C
66
00
C3
C3
66
3C
18
18
18
3C
ENDCHAR
STARTCHAR U+0177
ENCODING 375
SWIDTH 500 0
DWIDTH 8 0
BBX 7 12 0 -1
BITMAP
10
38
6C
00
C6
C6
C6
C6
7E
06
0C
78
ENDCHAR
STARTCHAR U+0178
ENCODING 376
SWIDTH 500 0
DWIDTH 8 0
BBX 8 11 0 1
BITMAP
66
66
00
C3
C3
66
3C
18
18
18
3C
ENDCHAR
STARTCHAR U+0179
ENCODING 377
SWIDTH 500 0
DWIDTH 8 0
BBX 7 11 0 1
BITMAP
0C
18
00
FE
C6
8C
18
30
62
C6
FE
ENDCHAR
STARTCHAR U+017A
ENCODING 378
SWIDTH 500 0
DWIDTH 8 0
BBX 7 10 0 1
BITMAP
06
0C
18
00
FE
CC
18
30
66
FE
ENDCHAR
STARTCHAR U+017B
ENCODING 379
SWIDTH 500 0
DWIDTH 8 0
BBX 7 11 0 1
BITMAP
18
18
00
FE
C6
8C
18
30
62
C6
FE
ENDCHAR
STARTCHAR U+017C
ENCODING 380
SWIDTH 500 0
DWIDTH 8 0
BBX 7 9 0 1
BITMAP
18
18
00
FE
CC
18
30
66
FE
ENDCHAR
STARTCHAR U+017D
ENCODING 381
SWIDTH 500 0
DWIDTH 8 0
BBX 7 11 0 1
BITMAP
6C
38
00
FE
C6
8C
18
30
62
C6
FE
ENDCHAR
STARTCHAR U+017E
ENCODING 382
SWIDTH 500 0
DWIDTH 8 0
BBX 7 10 0 1
BITMAP
6C
38
10
00
FE
CC
18
30
66
FE
ENDCHAR
STARTCHAR U+017F
ENCODING 383
SWIDTH 500 0
DWIDTH 8 0
BBX 6 9 1 1
BITMAP
38
6C
64
60
60
60
60
60
F0
ENDCHAR
STARTCHAR U+0186
ENCODING 390
SWIDTH 500 0
DWIDTH 8 0
BBX 7 9 0 1
BITMAP
78
CC
86
06
06
06
86
CC
78
ENDCHAR
STARTCHAR U+0189
ENCODING 393
SWIDTH 500 0
DWIDTH 8 0
BBX 7 9 0 1
BITMAP
F8
6C
66
66
F6
66
66
6C
F8
ENDCHAR
STARTCHAR U+018E
ENCODING 398
SWIDTH 500 0
DWIDTH 8 0
BBX 7 9 0 1
BITMAP
FE
CC
8C
2C
3C
2C
8C
CC
FE
ENDCHAR
STARTCHAR U+018F
ENCODING 399
SWIDTH 500 0
DWIDTH 8 0
BBX 7 9 0 1
BITMAP
78
CC
86
06
FE
C6
C6
6C
38
ENDCHAR
STARTCHAR U+0190
ENCODING 400
SWIDTH 500 0
DWIDTH 8 0
BBX 7 9 0 1
BITMAP
7C
C6
C2
C0
78
C0
C2
C6
7C
ENDCHAR
STARTCHAR U+0192
ENCODING 402
SWIDTH 500 0
DWIDTH 8 0
BBX 8 12 0 -1
BITMAP
0E
1B
18
18
18
7E
18
18
18
18
D8
70
ENDCHAR
STARTCHAR U+019C
ENCODING 412
SWIDTH 500 0
DWIDTH 8 0
BBX 7 9 0 1
BITMAP
D6
D6
D6
D6
D6
D6
D6
FE
6E
ENDCHAR
STARTCHAR U+019E
ENCODING 414
SWIDTH 500 0
DWIDTH 8 0
BBX 7 8 0 -1
BITMAP
DC
66
66
66
66
66
06
06
ENDCHAR
STARTCHAR U+019F
ENCODING 415
SWIDTH 500 0
DWIDTH 8 0
BBX 7 9 0 1
BITMAP
38
6C
C6
C6
FE
C6
C6
6C
38
ENDCHAR
STARTCHAR U+01A1
ENCODING 417
SWIDTH 500 0
DWIDTH 8 0
BBX 7 6 0 1
BITMAP
7E
D8
D8
D8
D8
70
ENDCHAR
STARTCHAR U+01A7
ENCODING 423
SWIDTH 500 0
DWIDTH 8 0
BBX 7 9 0 1
BITMAP
7C
C6
C6
0C
38
60
C6
C6
7C
ENDCHAR
STARTCHAR U+01A8
ENCODING 424
SWIDTH 500 0
DWIDTH 8 0
BBX 7 6 0 1
BITMAP
7C
C6
1C
70
C6
7C
ENDCHAR
STARTCHAR U+01A9
ENCODING 425
SWIDTH 500 0
DWIDTH 8 0
BBX 7 9 0 1
BITMAP
FE
C6
62
30
18
30
62
C6
FE
ENDCHAR
STARTCHAR U+01B7
ENCODING 439
SWIDTH 500 0
DWIDTH 8 0
BBX 7 9 0 1
BITMAP
FE
C6
0C
18
3C
06
06
C6
7C
ENDCHAR
STARTCHAR U+01B8
ENCODING 440
SWIDTH 500 0
DWIDTH 8 0
BBX 7 9 0 1
BITMAP
FE
C6
60
30
78
C0
C0
C6
7C
ENDCHAR
STARTCHAR U+01B9
ENCODING 441
SWIDTH 500 0
DWIDTH 8 0
BBX 7 8 0 -1
BITMAP
FE
66
30
78
C0
C0
C6
7C
ENDCHAR
STARTCHAR U+01C0
ENCODING 448
SWIDTH 500 0
DWIDTH 8 0
BBX 2 11 3 -1
BITMAP
C0
C0
C0
C0
C0
C0
C0
C0
C0
C0
C0
ENDCHAR
STARTCHAR U+01C1
ENCODING 449
SWIDTH 500 0
DWIDTH 8 0
BBX 5 11 1 -1
BITMAP
D8
D8
D8
D8
D8
D8
D8
D8
D8
D8
D8
ENDCHAR
STARTCHAR U+01C2
ENCODING 450
SWIDTH 500 0
DWIDTH 8 0
BBX 6 11 1 -1
BITMAP
30
30
30
FC
30
30
30
FC
30
30
30
ENDCHAR
STARTCHAR U+01C3
ENCODING 451
SWIDTH 500 0
DWIDTH 8 0
BBX 4 9 2 1
BITMAP
60
F0
F0
F0
60
60
00
60
60
ENDCHAR
STARTCHAR U+01CD
ENCODING 461
SWIDTH 500 0
DWIDTH 8 0
BBX 7 11 0 1
BITMAP
6C
38
00
10
38
6C
C6
C6
FE
C6
C6
ENDCHAR
STARTCHAR U+01CE
ENCODING 462
SWIDTH 500 0
DWIDTH 8 0
BBX 7 10 0 1
BITMAP
6C
38
10
00
78
0C
7C
CC
CC
76
ENDCHAR
STARTCHAR U+01CF
ENCODING 463
SWIDTH 500 0
DWIDTH 8 0
BBX 5 11 1 1
BITMAP
D8
70
00
78
30
30
30
30
30
30
78
ENDCHAR
STARTCHAR U+01D0
ENCODING 464
SWIDTH 500 0
DWIDTH 8 0
BBX 5 10 1 1
BITMAP
D8
70
20
00
70
30
30
30
30
78
ENDCHAR
STARTCHAR U+01D1
ENCODING 465
SWIDTH 500 0
DWIDTH 8 0
BBX 7 11 0 1
BITMAP
6C
38
00
38
6C
C6
C6
C6
C6
6C
38
ENDCHAR
STARTCHAR U+01D2
ENCODING 466
SWIDTH 500 0
DWIDTH 8 0
BBX 7 10 0 1
BITMAP
6C
38
10
00
7C
C6
C6
C6
C6
7C
ENDCHAR
STARTCHAR U+01D3
ENCODING 467
SWIDTH 500 0
DWIDTH 8 0
BBX 7 11 0 1
BITMAP
6C
38
10
C6
C6
C6
C6
C6
C6
C6
7C
ENDCHAR
STARTCHAR U+01D4
ENCODING 468
SWIDTH 500 0
DWIDTH 8 0
BBX 7 10 0 1
BITMAP
6C
38
10
00
CC
CC
CC
CC
CC
76
ENDCHAR
STARTCHAR U+01DD
ENCODING 477
SWIDTH 500 0
DWIDTH 8 0
BBX 7 6 0 1
BITMAP
7C
C6
06
FE
C6
7C
ENDCHAR
STARTCHAR U+01E2
ENCODING 482
SWIDTH 500 0
DWIDTH 8 0
BBX 7 11 0 1
BITMAP
7C
00
3E
6C
CC
CC
FE
CC
CC
CC
CE
ENDCHAR
STARTCHAR U+01E3
ENCODING 483
SWIDTH 500 0
DWIDTH 8 0
BBX 7 9 0 1
BITMAP
7C
00
CC
76
36
7E
D8
D8
6E
ENDCHAR
STARTCHAR U+01E6
ENCODING 486
SWIDTH 500 0
DWIDTH 8 0
BBX 7 11 0 1
BITMAP
6C
38
00
3C
66
C0
C0
DE
C6
66
3A
ENDCHAR
STARTCHAR U+01E7
ENCODING 487
SWIDTH 500 0
DWIDTH 8 0
BBX 7 12 0 -1
BITMAP
6C
38
10
00
76
CC
CC
CC
7C
0C
CC
78
ENDCHAR
STARTCHAR U+01E8
ENCODING 488
SWIDTH 500 0
DWIDTH 8 0
BBX 7 11 0 1
BITMAP
6C
38
00
E6
66
6C
78
6C
66
66
E6
ENDCHAR
STARTCHAR U+01E9
ENCODING 489
SWIDTH 500 0
DWIDTH 8 0
BBX 7 11 0 1
BITMAP
6C
38
00
E0
60
66
6C
78
6C
66
E6
ENDCHAR
STARTCHAR U+01EE
ENCODING 494
SWIDTH 500 0
DWIDTH 8 0
BBX 7 11 0 1
BITMAP
6C
38
00
FE
CC
18
3C
06
06
C6
7C
ENDCHAR
STARTCHAR U+01EF
ENCODING 495
SWIDTH 500 0
DWIDTH 8 0
BBX 7 12 0 -1
BITMAP
6C
38
10
00
FE
CC
18
3C
06
06
C6
7C
ENDCHAR
STARTCHAR U+01F0
ENCODING 496
SWIDTH 500 0
DWIDTH 8 0
BBX 7 12 0 -1
BITMAP
36
1C
08
00
1C
0C
0C
0C
0C
CC
CC
78
ENDCHAR
STARTCHAR U+01F4
ENCODING 500
SWIDTH 500 0
DWIDTH 8 0
BBX 7 11 0 1
BITMAP
18
30
00
3C
66
C0
C0
DE
C6
66
3A
ENDCHAR
STARTCHAR U+01F5
ENCODING 501
SWIDTH 500 0
DWIDTH 8 0
BBX 7 12 0 -1
BITMAP
0C
18
30
00
76
CC
CC
CC
7C
0C
CC
78
ENDCHAR
STARTCHAR U+01F8
ENCODING 504
SWIDTH 500 0
DWIDTH 8 0
BBX 7 11 0 1
BITMAP
30
18
00
C6
E6
F6
FE
DE
CE
C6
C6
ENDCHAR
STARTCHAR U+01F9
ENCODING 505
SWIDTH 500 0
DWIDTH 8 0
BBX 7 10 0 1
BITMAP
60
30
18
00
DC
66
66
66
66
66
ENDCHAR
STARTCHAR U+01FA
ENCODING 506
SWIDTH 500 0
DWIDTH 8 0
BBX 7 11 0 1
BITMAP
3A
6C
38
00
38
6C
C6
C6
FE
C6
C6
ENDCHAR
STARTCHAR U+01FB
ENCODING 507
SWIDTH 500 0
DWIDTH 8 0
BBX 7 11 0 1
BITMAP
0C
38
6C
38
00
78
0C
7C
CC
CC
76
ENDCHAR
STARTCHAR U+01FC
ENCODING 508
SWIDTH 500 0
DWIDTH 8 0
BBX 7 11 0 1
BITMAP
0C
18
00
3E
6C
CC
FE
CC
CC
CC
CE
ENDCHAR
STARTCHAR U+01FD
ENCODING 509
SWIDTH 500 0
DWIDTH 8 0
BBX 7 11 0 1
BITMAP
0C
18
30
00
CC
76
36
7E
D8
D8
6E
ENDCHAR
STARTCHAR U+01FE
ENCODING 510
SWIDTH 500 0
DWIDTH 8 0
BBX 7 12 0 0
BITMAP
18
30
06
3C
6C
CE
D6
D6
E6
6C
78
C0
ENDCHAR
STARTCHAR U+01FF
ENCODING 511
SWIDTH 500 0
DWIDTH 8 0
BBX 7 10 0 1
BITMAP
18
30
60
00
7C
CE
DE
F6
E6
7C
ENDCHAR
STARTCHAR U+0200
ENCODING 512
SWIDTH 500 0
DWIDTH 8 0
BBX 7 11 0 1
BITMAP
CC
66
00
10
38
6C
C6
C6
FE
C6
C6
ENDCHAR
STARTCHAR U+0201
ENCODING 513
SWIDTH 500 0
DWIDTH 8 0
BBX 7 9 0 1
BITMAP
CC
66
00
78
0C
7C
CC
CC
76
ENDCHAR
STARTCHAR U+0202
ENCODING 514
SWIDTH 500 0
DWIDTH 8 0
BBX 7 10 0 1
BITMAP
7C
C6
10
38
6C
C6
C6
FE
C6
C6
ENDCHAR
STARTCHAR U+0203
ENCODING 515
SWIDTH 500 0
DWIDTH 8 0
BBX 7 9 0 1
BITMAP
7C
C6
00
78
0C
7C
CC
CC
76
ENDCHAR
STARTCHAR U+0204
ENCODING 516
SWIDTH 500 0
DWIDTH 8 0
BBX 7 11 0 1
BITMAP
CC
66
00
FE
66
60
7C
60
60
66
FE
ENDCHAR
STARTCHAR U+0205
ENCODING 517
SWIDTH 500 0
DWIDTH 8 0
BBX 7 9 0 1
BITMAP
CC
66
00
7C
C6
FE
C0
C6
7C
ENDCHAR
STARTCHAR U+0206
ENCODING 518
SWIDTH 500 0
DWIDTH 8 0
BBX 7 11 0 1
BITMAP
7C
C6
00
FE
66
60
7C
60
60
66
FE
ENDCHAR
STARTCHAR U+0207
ENCODING 519
SWIDTH 500 0
DWIDTH 8 0
BBX 7 9 0 1
BITMAP
7C
C6
00
7C
C6
FE
C0
C6
7C
ENDCHAR
STARTCHAR U+0208
ENCODING 520
SWIDTH 500 0
DWIDTH 8 0
BBX 7 11 0 1
BITMAP
CC
66
00
3C
18
18
18
18
18
18
3C
ENDCHAR
STARTCHAR U+0209
ENCODING 521
SWIDTH 500 0
DWIDTH 8 0
BBX 7 9 0 1
BITMAP
CC
66
00
38
18
18
18
18
3C
ENDCHAR
STARTCHAR U+020A
ENCODING 522
SWIDTH 500 0
DWIDTH 8 0
BBX 6 11 1 1
BITMAP
78
CC
00
78
30
30
30
30
30
30
78
ENDCHAR
STARTCHAR U+020B
ENCODING 523
SWIDTH 500 0
DWIDTH 8 0
BBX 6 9 1 1
BITMAP
78
CC
00
70
30
30
30
30
78
ENDCHAR
STARTCHAR U+020C
ENCODING 524
SWIDTH 500 0
DWIDTH 8 0
BBX 7 11 0 1
BITMAP
CC
66
00
38
6C
C6
C6
C6
C6
6C
38
ENDCHAR
STARTCHAR U+020D
ENCODING 525
SWIDTH 500 0
DWIDTH 8 0
BBX 7 9 0 1
BITMAP
CC
66
00
7C
C6
C6
C6
C6
7C
ENDCHAR
STARTCHAR U+020E
ENCODING 526
SWIDTH 500 0
DWIDTH 8 0
BBX 7 10 0 1
BITMAP
7C
C6
38
6C
C6
C6
C6
C6
6C
38
ENDCHAR
STARTCHAR U+020F
ENCODING 527
SWIDTH 500 0
DWIDTH 8 0
BBX 7 9 0 1
BITMAP
7C
C6
00
7C
C6
C6
C6
C6
7C
ENDCHAR
STARTCHAR U+0210
ENCODING 528
SWIDTH 500 0
DWIDTH 8 0
BBX 8 11 0 1
BITMAP
CC
66
00
FC
66
66
66
7C
6C
66
E7
ENDCHAR
STARTCHAR U+0211
ENCODING 529
SWIDTH 500 0
DWIDTH 8 0
BBX 7 9 0 1
BITMAP
CC
66
00
DC
76
66
60
60
F0
ENDCHAR
STARTCHAR U+0212
ENCODING 530
SWIDTH 500 0
DWIDTH 8 0
BBX 8 11 0 1
BITMAP
7C
C6
00
FC
66
66
66
7C
6C
66
E7
ENDCHAR
STARTCHAR U+0213
ENCODING 531
SWIDTH 500 0
DWIDTH 8 0
BBX 7 9 0 1
BITMAP
7C
C6
00
DC
76
66
60
60
F0
ENDCHAR
STARTCHAR U+0214
ENCODING 532
SWIDTH 500 0
DWIDTH 8 0
BBX 7 11 0 1
BITMAP
CC
66
00
C6
C6
C6
C6
C6
C6
C6
7C
ENDCHAR
STARTCHAR U+0215
ENCODING 533
SWIDTH 500 0
DWIDTH 8 0
BBX 7 9 0 1
BITMAP
CC
66
00
CC
CC
CC
CC
CC
76
ENDCHAR
STARTCHAR U+0216
ENCODING 534
SWIDTH 500 0
DWIDTH 8 0
BBX 7 11 0 1
BITMAP
7C
C6
00
C6
C6
C6
C6
C6
C6
C6
7C
ENDCHAR
STARTCHAR U+0217
ENCODING 535
SWIDTH 500 0
DWIDTH 8 0
BBX 7 9 0 1
BITMAP
78
CC
00
CC
CC
CC
CC
CC
76
ENDCHAR
STARTCHAR U+0218
ENCODING 536
SWIDTH 500 0
DWIDTH 8 0
BBX 7 11 0 -1
BITMAP
7C
C6
C6
60
38
0C
C6
C6
7C
18
30
ENDCHAR
STARTCHAR U+0219
ENCODING 537
SWIDTH 500 0
DWIDTH 8 0
BBX 7 8 0 -1
BITMAP
7C
C6
70
1C
C6
7C
18
30
ENDCHAR
STARTCHAR U+021A
ENCODING 538
SWIDTH 500 0
DWIDTH 8 0
BBX 8 11 0 -1
BITMAP
FF
99
18
18
18
18
18
18
3C
18
30
ENDCHAR
STARTCHAR U+021B
ENCODING 539
SWIDTH 500 0
DWIDTH 8 0
BBX 7 11 0 -1
BITMAP
10
30
30
FC
30
30
30
36
1C
0C
18
ENDCHAR
STARTCHAR U+021E
ENCODING 542
SWIDTH 500 0
DWIDTH 8 0
BBX 7 11 0 1
BITMAP
6C
38
00
C6
C6
C6
FE
C6
C6
C6
C6
ENDCHAR
STARTCHAR U+021F
ENCODING 543
SWIDTH 500 0
DWIDTH 8 0
BBX 7 11 0 1
BITMAP
6C
38
00
E0
60
6C
76
66
66
66
E6
ENDCHAR
STARTCHAR U+0220
ENCODING 544
SWIDTH 500 0
DWIDTH 8 0
BBX 7 11 0 -1
BITMAP
DC
66
66
66
66
66
66
66
66
06
06
ENDCHAR
STARTCHAR U+0226
ENCODING 550
SWIDTH 500 0
DWIDTH 8 0
BBX 7 11 0 1
BITMAP
18
18
00
10
38
6C
C6
C6
FE
C6
C6
ENDCHAR
STARTCHAR U+0227
ENCODING 551
SWIDTH 500 0
DWIDTH 8 0
BBX 7 9 0 1
BITMAP
30
30
00
78
0C
7C
CC
CC
76
ENDCHAR
STARTCHAR U+0228
ENCODING 552
SWIDTH 500 0
DWIDTH 8 0
BBX 7 11 0 -1
BITMAP
FE
66
60
7C
60
60
66
FE
0C
06
7C
ENDCHAR
STARTCHAR U+0229
ENCODING 553
SWIDTH 500 0
DWIDTH 8 0
BBX 7 9 0 -1
BITMAP
7C
C6
FE
C0
C6
7C
0C
06
3C
ENDCHAR
STARTCHAR U+022E
ENCODING 558
SWIDTH 500 0
DWIDTH 8 0
BBX 7 11 0 1
BITMAP
18
18
00
38
6C
C6
C6
C6
C6
6C
38
ENDCHAR
STARTCHAR U+022F
ENCODING 559
SWIDTH 500 0
DWIDTH 8 0
BBX 7 9 0 1
BITMAP
18
18
00
7C
C6
C6
C6
C6
7C
ENDCHAR
STARTCHAR U+0232
ENCODING 562
SWIDTH 500 0
DWIDTH 8 0
BBX 8 11 0 1
BITMAP
7E
00
C3
C3
66
3C
18
18
18
18
3C
ENDCHAR
STARTCHAR U+0233
ENCODING 563
SWIDTH 500 0
DWIDTH 8 0
BBX 7 10 0 -1
BITMAP
7C
00
C6
C6
C6
C6
7E
06
0C
78
ENDCHAR
STARTCHAR U+0237
ENCODING 567
SWIDTH 500 0
DWIDTH 8 0
BBX 6 8 1 -1
BITMAP
1C
0C
0C
0C
0C
CC
CC
78
ENDCHAR
STARTCHAR U+0241
ENCODING 577
SWIDTH 500 0
DWIDTH 8 0
BBX 7 9 0 1
BITMAP
7C
C6
C6
0C
18
18
18
18
3C
ENDCHAR
STARTCHAR U+0242
ENCODING 578
SWIDTH 500 0
DWIDTH 8 0
BBX 7 6 0 1
BITMAP
7C
C6
C6
1C
18
3C
ENDCHAR
STARTCHAR U+0245
ENCODING 581
SWIDTH 500 0
DWIDTH 8 0
BBX 7 9 0 1
BITMAP
10
38
6C
C6
C6
C6
C6
C6
C6
ENDCHAR
STARTCHAR U+0250
ENCODING 592
SWIDTH 500 0
DWIDTH 8 0
BBX 7 6 0 1
BITMAP
DC
66
66
7C
60
3C
ENDCHAR
STARTCHAR U+0251
ENCODING 593
SWIDTH 500 0
DWIDTH 8 0
BBX 7 6 0 1
BITMAP
76
DC
D8
D8
DC
76
ENDCHAR
STARTCHAR U+0252
ENCODING 594
SWIDTH 500 0
DWIDTH 8 0
BBX 7 6 0 1
BITMAP
DC
76
36
36
76
DC
ENDCHAR
STARTCHAR U+0254
ENCODING 596
SWIDTH 500 0
DWIDTH 8 0
BBX 7 6 0 1
BITMAP
7C
C6
06
06
C6
7C
ENDCHAR
STARTCHAR U+0258
ENCODING 600
SWIDTH 500 0
DWIDTH 8 0
BBX 7 6 0 1
BITMAP
7C
C6
FE
06
C6
7C
ENDCHAR
STARTCHAR U+0259
ENCODING 601
SWIDTH 500 0
DWIDTH 8 0
BBX 7 6 0 1
BITMAP
7C
C6
06
FE
C6
7C
ENDCHAR
STARTCHAR U+025B
ENCODING 603
SWIDTH 500 0
DWIDTH 8 0
BBX 7 6 0 1
BITMAP
7C
C6
70
C0
C6
7C
ENDCHAR
STARTCHAR U+025C
ENCODING 604
SWIDTH 500 0
DWIDTH 8 0
BBX 7 6 0 1
BITMAP
7C
C6
1C
06
C6
7C
ENDCHAR
STARTCHAR U+025E
ENCODING 606
SWIDTH 500 0
DWIDTH 8 0
BBX 7 6 0 1
BITMAP
7C
C6
DC
C6
C6
7C
ENDCHAR
STARTCHAR U+0261
ENCODING 609
SWIDTH 500 0
DWIDTH 8 0
BBX 7 8 0 -1
BITMAP
76
CC
CC
CC
7C
0C
CC
78
ENDCHAR
STARTCHAR U+0262
ENCODING 610
SWIDTH 500 0
DWIDTH 8 0
BBX 7 6 0 1
BITMAP
7C
C6
C0
DE
C6
7A
ENDCHAR
STARTCHAR U+0265
ENCODING 613
SWIDTH 500 0
DWIDTH 8 0
BBX 7 8 0 -1
BITMAP
CE
CC
CC
CC
DC
6C
0C
0E
ENDCHAR
STARTCHAR U+026A
ENCODING 618
SWIDTH 500 0
DWIDTH 8 0
BBX 4 6 2 1
BITMAP
F0
60
60
60
60
F0
ENDCHAR
STARTCHAR U+026F
ENCODING 623
SWIDTH 500 0
DWIDTH 8 0
BBX 7 6 0 1
BITMAP
D6
D6
D6
D6
FE
6E
ENDCHAR
STARTCHAR U+0270
ENCODING 624
SWIDTH 500 0
DWIDTH 8 0
BBX 7 8 0 -1
BITMAP
D6
D6
D6
D6
FE
6E
06
06
ENDCHAR
STARTCHAR U+0271
ENCODING 625
SWIDTH 500 0
DWIDTH 8 0
BBX 7 8 0 -1
BITMAP
EC
FE
D6
D6
D6
D6
06
1C
ENDCHAR
STARTCHAR U+0274
ENCODING 628
SWIDTH 500 0
DWIDTH 8 0
BBX 7 6 0 1
BITMAP
C6
E6
F6
DE
CE
C6
ENDCHAR
STARTCHAR U+0275
ENCODING 629
SWIDTH 500 0
DWIDTH 8 0
BBX 7 6 0 1
BITMAP
7C
C6
FE
C6
C6
7C
ENDCHAR
STARTCHAR U+0276
ENCODING 630
SWIDTH 500 0
DWIDTH 8 0
BBX 7 7 0 1
BITMAP
6E
DA
D8
DE
D8
DA
6E
ENDCHAR
STARTCHAR U+0277
ENCODING 631
SWIDTH 500 0
DWIDTH 8 0
BBX 7 6 0 1
BITMAP
7C
C6
D6
D6
D6
6C
ENDCHAR
STARTCHAR U+0278
ENCODING 632
SWIDTH 500 0
DWIDTH 8 0
BBX 6 9 1 1
BITMAP
FC
30
78
CC
CC
CC
78
30
FC
ENDCHAR
STARTCHAR U+0279
ENCODING 633
SWIDTH 500 0
DWIDTH 8 0
BBX 7 6 0 1
BITMAP
1E
0C
0C
CC
DC
76
ENDCHAR
STARTCHAR U+027A
ENCODING 634
SWIDTH 500 0
DWIDTH 8 0
BBX 7 9 0 1
BITMAP
1E
0C
0C
0C
0C
0C
CC
DC
76
ENDCHAR
STARTCHAR U+027C
ENCODING 636
SWIDTH 500 0
DWIDTH 8 0
BBX 7 8 0 -1
BITMAP
DC
76
66
60
60
60
60
F0
ENDCHAR
STARTCHAR U+0280
ENCODING 640
SWIDTH 500 0
DWIDTH 8 0
BBX 7 6 0 1
BITMAP
FC
66
66
7C
66
E6
ENDCHAR
STARTCHAR U+0281
ENCODING 641
SWIDTH 500 0
DWIDTH 8 0
BBX 7 6 0 1
BITMAP
CE
CC
7C
CC
CC
7E
ENDCHAR
STARTCHAR U+0283
ENCODING 643
SWIDTH 500 0
DWIDTH 8 0
BBX 8 12 0 -1
BITMAP
0E
1B
18
18
18
18
18
18
18
18
D8
70
ENDCHAR
STARTCHAR U+0287
ENCODING 647
SWIDTH 500 0
DWIDTH 8 0
BBX 7 8 0 -1
BITMAP
70
D8
18
18
18
7E
18
18
ENDCHAR
STARTCHAR U+028C
ENCODING 652
SWIDTH 500 0
DWIDTH 8 0
BBX 7 6 0 1
BITMAP
10
38
6C
C6
C6
C6
ENDCHAR
STARTCHAR U+028D
ENCODING 653
SWIDTH 500 0
DWIDTH 8 0
BBX 7 6 0 1
BITMAP
6C
FE
D6
C6
C6
C6
ENDCHAR
STARTCHAR U+028E
ENCODING 654
SWIDTH 500 0
DWIDTH 8 0
BBX 7 9 0 1
BITMAP
3C
60
C0
C0
FC
C6
C6
C6
C6
ENDCHAR
STARTCHAR U+028F
ENCODING 655
SWIDTH 500 0
DWIDTH 8 0
BBX 6 6 1 1
BITMAP
CC
CC
78
30
30
78
ENDCHAR
STARTCHAR U+0292
ENCODING 658
SWIDTH 500 0
DWIDTH 8 0
BBX 7 8 0 -1
BITMAP
FE
CC
18
3C
06
06
C6
7C
ENDCHAR
STARTCHAR U+0294
ENCODING 660
SWIDTH 500 0
DWIDTH 8 0
BBX 7 9 0 1
BITMAP
7C
C6
C6
0C
18
18
18
18
3C
ENDCHAR
STARTCHAR U+0295
ENCODING 661
SWIDTH 500 0
DWIDTH 8 0
BBX 7 9 0 1
BITMAP
7C
C6
C6
60
30
30
30
30
78
ENDCHAR
STARTCHAR U+0296
ENCODING 662
SWIDTH 500 0
DWIDTH 8 0
BBX 7 9 0 1
BITMAP
3C
18
18
18
18
0C
C6
C6
7C
ENDCHAR
STARTCHAR U+0297
ENCODING 663
SWIDTH 500 0
DWIDTH 8 0
BBX 7 8 0 -1
BITMAP
7C
C6
C0
C0
C0
C0
C6
7C
ENDCHAR
STARTCHAR U+0298
ENCODING 664
SWIDTH 500 0
DWIDTH 8 0
BBX 7 9 0 1
BITMAP
38
6C
C6
C6
D6
C6
C6
6C
38
ENDCHAR
STARTCHAR U+0299
ENCODING 665
SWIDTH 500 0
DWIDTH 8 0
BBX 7 6 0 1
BITMAP
FC
66
7C
66
66
FC
ENDCHAR
STARTCHAR U+029A
ENCODING 666
SWIDTH 500 0
DWIDTH 8 0
BBX 7 6 0 1
BITMAP
7C
C6
76
C6
C6
7C
ENDCHAR
STARTCHAR U+029C
ENCODING 668
SWIDTH 500 0
DWIDTH 8 0
BBX 6 6 1 1
BITMAP
CC
CC
FC
CC
CC
CC
ENDCHAR
STARTCHAR U+029E
ENCODING 670
SWIDTH 500 0
DWIDTH 8 0
BBX 7 8 0 -1
BITMAP
CE
CC
6C
3C
6C
CC
0C
0E
ENDCHAR
STARTCHAR U+029F
ENCODING 671
SWIDTH 500 0
DWIDTH 8 0
BBX 7 6 0 1
BITMAP
F0
60
60
60
66
FE
ENDCHAR
STARTCHAR U+02C6
ENCODING 710
SWIDTH 500 0
DWIDTH 8 0
BBX 5 3 1 8
BITMAP
20
70
D8
ENDCHAR
STARTCHAR U+02C7
ENCODING 711
SWIDTH 500 0
DWIDTH 8 0
BBX 5 3 1 8
BITMAP
D8
70
20
ENDCHAR
STARTCHAR U+02C9
ENCODING 713
SWIDTH 500 0
DWIDTH 8 0
BBX 5 1 1 10
BITMAP
F8
ENDCHAR
STARTCHAR U+02D0
ENCODING 720
SWIDTH 500 0
DWIDTH 8 0
BBX 3 6 2 1
BITMAP
E0
40
00
00
40
E0
ENDCHAR
STARTCHAR U+02D8
ENCODING 728
SWIDTH 500 0
DWIDTH 8 0
BBX 7 2 0 9
BITMAP
C6
7C
ENDCHAR
STARTCHAR U+02D9
ENCODING 729
SWIDTH 500 0
DWIDTH 8 0
BBX 2 2 3 9
BITMAP
C0
C0
ENDCHAR
STARTCHAR U+02DA
ENCODING 730
SWIDTH 500 0
DWIDTH 8 0
BBX 5 3 1 9
BITMAP
70
D8
70
ENDCHAR
STARTCHAR U+02DB
ENCODING 731
SWIDTH 500 0
DWIDTH 8 0
BBX 4 2 2 -1
BITMAP
C0
70
ENDCHAR
STARTCHAR U+02DC
ENCODING 732
SWIDTH 500 0
DWIDTH 8 0
BBX 7 2 0 9
BITMAP
76
DC
ENDCHAR
STARTCHAR U+02DD
ENCODING 733
SWIDTH 500 0
DWIDTH 8 0
BBX 7 2 0 9
BITMAP
66
CC
ENDCHAR
STARTCHAR U+037E
ENCODING 894
SWIDTH 500 0
DWIDTH 8 0
BBX 3 8 2 1
BITMAP
60
60
00
00
00
60
60
C0
ENDCHAR
STARTCHAR U+0384
ENCODING 900
SWIDTH 500 0
DWIDTH 8 0
BBX 3 3 3 9
BITMAP
60
C0
80
ENDCHAR
STARTCHAR U+0385
ENCODING 901
SWIDTH 500 0
DWIDTH 8 0
BBX 6 4 1 8
BITMAP
08
10
CC
CC
ENDCHAR
STARTCHAR U+0386
ENCODING 902
SWIDTH 500 0
DWIDTH 8 0
BBX 7 11 0 1
BITMAP
80
80
10
38
6C
C6
C6
FE
C6
C6
C6
ENDCHAR
STARTCHAR U+0387
ENCODING 903
SWIDTH 500 0
DWIDTH 8 0
BBX 2 2 3 5
BITMAP
C0
C0
ENDCHAR
STARTCHAR U+0388
ENCODING 904
SWIDTH 500 0
DWIDTH 8 0
BBX 7 11 0 1
BITMAP
80
80
FE
66
62
68
78
68
62
66
FE
ENDCHAR
STARTCHAR U+0389
ENCODING 905
SWIDTH 500 0
DWIDTH 8 0
BBX 7 11 0 1
BITMAP
80
80
66
66
66
66
7E
66
66
66
66
ENDCHAR
STARTCHAR U+038A
ENCODING 906
SWIDTH 500 0
DWIDTH 8 0
BBX 6 11 0 1
BITMAP
80
80
3C
18
18
18
18
18
18
18
3C
ENDCHAR
STARTCHAR U+038C
ENCODING 908
SWIDTH 500 0
DWIDTH 8 0
BBX 7 11 0 1
BITMAP
80
80
38
6C
C6
C6
C6
C6
C6
6C
38
ENDCHAR
STARTCHAR U+038E
ENCODING 910
SWIDTH 500 0
DWIDTH 8 0
BBX 7 11 0 1
BITMAP
80
80
66
66
66
66
3C
18
18
18
3C
ENDCHAR
STARTCHAR U+038F
ENCODING 911
SWIDTH 500 0
DWIDTH 8 0
BBX 7 11 0 1
BITMAP
80
80
38
6C
C6
C6
C6
C6
6C
6C
EE
ENDCHAR
STARTCHAR U+0390
ENCODING 912
SWIDTH 500 0
DWIDTH 8 0
BBX 6 11 0 1
BITMAP
08
10
CC
CC
00
30
30
30
30
34
18
ENDCHAR
STARTCHAR U+0391
ENCODING 913
SWIDTH 500 0
DWIDTH 8 0
BBX 7 9 0 1
BITMAP
10
38
6C
C6
C6
FE
C6
C6
C6
ENDCHAR
STARTCHAR U+0392
ENCODING 914
SWIDTH 500 0
DWIDTH 8 0
BBX 7 9 0 1
BITMAP
FC
66
66
66
7C
66
66
66
FC
ENDCHAR
STARTCHAR U+0393
ENCODING 915
SWIDTH 500 0
DWIDTH 8 0
BBX 7 9 0 1
BITMAP
FE
66
62
60
60
60
60
60
F0
ENDCHAR
STARTCHAR U+0394
ENCODING 916
SWIDTH 500 0
DWIDTH 8 0
BBX 7 9 0 1
BITMAP
10
38
6C
C6
C6
C6
C6
C6
FE
ENDCHAR
STARTCHAR U+0395
ENCODING 917
SWIDTH 500 0
DWIDTH 8 0
BBX 7 9 0 1
BITMAP
FE
66
62
68
78
68
62
66
FE
ENDCHAR
STARTCHAR U+0396
ENCODING 918
SWIDTH 500 0
DWIDTH 8 0
BBX 7 9 0 1
BITMAP
FE
C6
8C
18
30
60
C2
C6
FE
ENDCHAR
STARTCHAR U+0397
ENCODING 919
SWIDTH 500 0
DWIDTH 8 0
BBX 7 9 0 1
BITMAP
C6
C6
C6
C6
FE
C6
C6
C6
C6
ENDCHAR
STARTCHAR U+0398
ENCODING 920
SWIDTH 500 0
DWIDTH 8 0
BBX 7 9 0 1
BITMAP
38
6C
C6
C6
FE
C6
C6
6C
38
ENDCHAR
STARTCHAR U+0399
ENCODING 921
SWIDTH 500 0
DWIDTH 8 0
BBX 4 9 2 1
BITMAP
F0
60
60
60
60
60
60
60
F0
ENDCHAR
STARTCHAR U+039A
ENCODING 922
SWIDTH 500 0
DWIDTH 8 0
BBX 7 9 0 1
BITMAP
E6
66
6C
6C
78
6C
6C
66
E6
ENDCHAR
STARTCHAR U+039B
ENCODING 923
SWIDTH 500 0
DWIDTH 8 0
BBX 7 9 0 1
BITMAP
10
38
6C
C6
C6
C6
C6
C6
C6
ENDCHAR
STARTCHAR U+039C
ENCODING 924
SWIDTH 500 0
DWIDTH 8 0
BBX 7 9 0 1
BITMAP
C6
EE
FE
D6
C6
C6
C6
C6
C6
ENDCHAR
STARTCHAR U+039D
ENCODING 925
SWIDTH 500 0
DWIDTH 8 0
BBX 7 9 0 1
BITMAP
C6
E6
F6
FE
DE
CE
C6
C6
C6
ENDCHAR
STARTCHAR U+039E
ENCODING 926
SWIDTH 500 0
DWIDTH 8 0
BBX 7 9 0 1
BITMAP
FE
C6
00
00
7C
00
00
C6
FE
ENDCHAR
STARTCHAR U+039F
ENCODING 927
SWIDTH 500 0
DWIDTH 8 0
BBX 7 9 0 1
BITMAP
38
6C
C6
C6
C6
C6
C6
6C
38
ENDCHAR
STARTCHAR U+03A0
ENCODING 928
SWIDTH 500 0
DWIDTH 8 0
BBX 7 9 0 1
BITMAP
FE
C6
C6
C6
C6
C6
C6
C6
C6
ENDCHAR
STARTCHAR U+03A1
ENCODING 929
SWIDTH 500 0
DWIDTH 8 0
BBX 7 9 0 1
BITMAP
FC
66
66
66
7C
60
60
60
F0
ENDCHAR
STARTCHAR U+03A3
ENCODING 931
SWIDTH 500 0
DWIDTH 8 0
BBX 7 9 0 1
BITMAP
FE
C6
62
30
18
30
62
C6
FE
ENDCHAR
STARTCHAR U+03A4
ENCODING 932
SWIDTH 500 0
DWIDTH 8 0
BBX 8 9 0 1
BITMAP
FF
99
18
18
18
18
18
18
3C
ENDCHAR
STARTCHAR U+03A5
ENCODING 933
SWIDTH 500 0
DWIDTH 8 0
BBX 8 9 0 1
BITMAP
C3
C3
66
3C
18
18
18
18
3C
ENDCHAR
STARTCHAR U+03A6
ENCODING 934
SWIDTH 500 0
DWIDTH 8 0
BBX 7 9 0 1
BITMAP
7C
D6
D6
D6
D6
7C
10
10
38
ENDCHAR
STARTCHAR U+03A7
ENCODING 935
SWIDTH 500 0
DWIDTH 8 0
BBX 7 9 0 1
BITMAP
C6
C6
6C
38
38
38
6C
C6
C6
ENDCHAR
STARTCHAR U+03A8
ENCODING 936
SWIDTH 500 0
DWIDTH 8 0
BBX 7 9 0 1
BITMAP
D6
D6
D6
D6
D6
7C
10
10
38
ENDCHAR
STARTCHAR U+03A9
ENCODING 937
SWIDTH 500 0
DWIDTH 8 0
BBX 7 9 0 1
BITMAP
38
6C
C6
C6
C6
C6
6C
6C
EE
ENDCHAR
STARTCHAR U+03AA
ENCODING 938
SWIDTH 500 0
DWIDTH 8 0
BBX 6 11 1 1
BITMAP
CC
CC
00
78
30
30
30
30
30
30
78
ENDCHAR
STARTCHAR U+03AB
ENCODING 939
SWIDTH 500 0
DWIDTH 8 0
BBX 8 11 0 1
BITMAP
66
66
00
C3
C3
66
3C
18
18
18
3C
ENDCHAR
STARTCHAR U+03AC
ENCODING 940
SWIDTH 500 0
DWIDTH 8 0
BBX 7 9 0 1
BITMAP
0C
18
00
74
CC
CC
CC
CC
76
ENDCHAR
STARTCHAR U+03AD
ENCODING 941
SWIDTH 500 0
DWIDTH 8 0
BBX 6 9 1 1
BITMAP
0C
18
00
7C
C0
70
C0
C0
7C
ENDCHAR
STARTCHAR U+03AE
ENCODING 942
SWIDTH 500 0
DWIDTH 8 0
BBX 7 11 0 -1
BITMAP
0C
18
00
DC
66
66
66
66
66
06
06
ENDCHAR
STARTCHAR U+03AF
ENCODING 943
SWIDTH 500 0
DWIDTH 8 0
BBX 4 9 2 1
BITMAP
30
60
00
C0
C0
C0
C0
D0
60
ENDCHAR
STARTCHAR U+03B0
ENCODING 944
SWIDTH 500 0
DWIDTH 8 0
BBX 7 11 0 1
BITMAP
08
10
CC
CC
00
CE
CC
CC
CC
CC
78
ENDCHAR
STARTCHAR U+03B1
ENCODING 945
SWIDTH 500 0
DWIDTH 8 0
BBX 7 6 0 1
BITMAP
74
CC
CC
CC
CC
76
ENDCHAR
STARTCHAR U+03B2
ENCODING 946
SWIDTH 500 0
DWIDTH 8 0
BBX 7 11 0 -1
BITMAP
78
CC
CC
CC
D8
FC
C6
C6
FC
C0
80
ENDCHAR
STARTCHAR U+03B3
ENCODING 947
SWIDTH 500 0
DWIDTH 8 0
BBX 7 8 0 -1
BITMAP
C6
6C
38
38
6C
6C
6C
38
ENDCHAR
STARTCHAR U+03B4
ENCODING 948
SWIDTH 500 0
DWIDTH 8 0
BBX 6 9 1 1
BITMAP
3C
60
30
18
7C
CC
CC
CC
78
ENDCHAR
STARTCHAR U+03B5
ENCODING 949
SWIDTH 500 0
DWIDTH 8 0
BBX 6 6 1 1
BITMAP
7C
C0
70
C0
C0
7C
ENDCHAR
STARTCHAR U+03B6
ENCODING 950
SWIDTH 500 0
DWIDTH 8 0
BBX 7 11 0 -1
BITMAP
C0
7C
30
60
C0
C0
C0
60
3C
06
1C
ENDCHAR
STARTCHAR U+03B7
ENCODING 951
SWIDTH 500 0
DWIDTH 8 0
BBX 7 8 0 -1
BITMAP
DC
66
66
66
66
66
06
06
ENDCHAR
STARTCHAR U+03B8
ENCODING 952
SWIDTH 500 0
DWIDTH 8 0
BBX 7 9 0 1
BITMAP
3C
66
66
36
1E
C6
66
66
3C
ENDCHAR
STARTCHAR U+03B9
ENCODING 953
SWIDTH 500 0
DWIDTH 8 0
BBX 4 6 2 1
BITMAP
C0
C0
C0
C0
D0
60
ENDCHAR
STARTCHAR U+03BA
ENCODING 954
SWIDTH 500 0
DWIDTH 8 0
BBX 7 6 0 1
BITMAP
C6
CC
D8
F8
EC
C6
ENDCHAR
STARTCHAR U+03BB
ENCODING 955
SWIDTH 500 0
DWIDTH 8 0
BBX 6 9 1 1
BITMAP
78
CC
0C
0C
7C
CC
CC
CC
CC
ENDCHAR
STARTCHAR U+03BC
ENCODING 956
SWIDTH 500 0
DWIDTH 8 0
BBX 7 8 0 -1
BITMAP
CC
CC
CC
CC
EC
DA
C0
C0
ENDCHAR
STARTCHAR U+03BD
ENCODING 957
SWIDTH 500 0
DWIDTH 8 0
BBX 7 6 0 1
BITMAP
E6
66
66
6C
78
30
ENDCHAR
STARTCHAR U+03BE
ENCODING 958
SWIDTH 500 0
DWIDTH 8 0
BBX 7 11 0 -1
BITMAP
C0
7C
60
C0
7C
60
C0
C0
7C
06
1C
ENDCHAR
STARTCHAR U+03BF
ENCODING 959
SWIDTH 500 0
DWIDTH 8 0
BBX 7 6 0 1
BITMAP
7C
C6
C6
C6
C6
7C
ENDCHAR
STARTCHAR U+03C0
ENCODING 960
SWIDTH 500 0
DWIDTH 8 0
BBX 8 6 0 1
BITMAP
FF
66
66
66
66
66
ENDCHAR
STARTCHAR U+03C1
ENCODING 961
SWIDTH 500 0
DWIDTH 8 0
BBX 7 8 0 -1
BITMAP
7C
C6
C6
C6
E6
DC
C0
C0
ENDCHAR
STARTCHAR U+03C2
ENCODING 962
SWIDTH 500 0
DWIDTH 8 0
BBX 7 8 0 -1
BITMAP
7C
C6
C0
60
3C
06
06
7C
ENDCHAR
STARTCHAR U+03C3
ENCODING 963
SWIDTH 500 0
DWIDTH 8 0
BBX 7 6 0 1
BITMAP
7E
C8
CC
CC
CC
78
ENDCHAR
STARTCHAR U+03C4
ENCODING 964
SWIDTH 500 0
DWIDTH 8 0
BBX 6 6 1 1
BITMAP
FC
30
30
30
34
18
ENDCHAR
STARTCHAR U+03C5
ENCODING 965
SWIDTH 500 0
DWIDTH 8 0
BBX 7 6 0 1
BITMAP
CE
CC
CC
CC
CC
78
ENDCHAR
STARTCHAR U+03C6
ENCODING 966
SWIDTH 500 0
DWIDTH 8 0
BBX 7 8 0 -1
BITMAP
1C
56
D6
D6
D6
7C
10
10
ENDCHAR
STARTCHAR U+03C7
ENCODING 967
SWIDTH 500 0
DWIDTH 8 0
BBX 7 6 0 1
BITMAP
C2
6C
38
38
6C
86
ENDCHAR
STARTCHAR U+03C8
ENCODING 968
SWIDTH 500 0
DWIDTH 8 0
BBX 7 8 0 -1
BITMAP
C6
D6
D6
D6
7C
10
10
10
ENDCHAR
STARTCHAR U+03C9
ENCODING 969
SWIDTH 500 0
DWIDTH 8 0
BBX 7 6 0 1
BITMAP
44
C6
D6
D6
D6
6C
ENDCHAR
STARTCHAR U+03CA
ENCODING 970
SWIDTH 500 0
DWIDTH 8 0
BBX 6 9 0 1
BITMAP
CC
CC
00
30
30
30
30
34
18
ENDCHAR
STARTCHAR U+03CB
ENCODING 971
SWIDTH 500 0
DWIDTH 8 0
BBX 7 9 0 1
BITMAP
CC
CC
00
CE
CC
CC
CC
CC
78
ENDCHAR
STARTCHAR U+03CC
ENCODING 972
SWIDTH 500 0
DWIDTH 8 0
BBX 7 9 0 1
BITMAP
0C
18
00
7C
C6
C6
C6
C6
7C
ENDCHAR
STARTCHAR U+03CD
ENCODING 973
SWIDTH 500 0
DWIDTH 8 0
BBX 7 9 0 1
BITMAP
0C
18
00
CE
CC
CC
CC
CC
78
ENDCHAR
STARTCHAR U+03CE
ENCODING 974
SWIDTH 500 0
DWIDTH 8 0
BBX 7 9 0 1
BITMAP
0C
18
00
44
C6
D6
D6
D6
6C
ENDCHAR
STARTCHAR U+03D0
ENCODING 976
SWIDTH 500 0
DWIDTH 8 0
BBX 7 9 0 -1
BITMAP
7C
C6
FC
C6
C6
FC
C0
C0
40
ENDCHAR
STARTCHAR U+03F4
ENCODING 1012
SWIDTH 500 0
DWIDTH 8 0
BBX 7 9 0 1
BITMAP
38
6C
C6
C6
FE
C6
C6
6C
38
ENDCHAR
STARTCHAR U+0400
ENCODING 1024
SWIDTH 500 0
DWIDTH 8 0
BBX 7 11 0 1
BITMAP
30
18
00
FE
66
60
7C
60
60
66
FE
ENDCHAR
STARTCHAR U+0401
ENCODING 1025
SWIDTH 500 0
DWIDTH 8 0
BBX 7 11 0 1
BITMAP
6C
6C
00
FE
66
60
7C
60
60
66
FE
ENDCHAR
STARTCHAR U+0402
ENCODING 1026
SWIDTH 500 0
DWIDTH 8 0
BBX 7 10 0 0
BITMAP
FC
64
60
6C
76
66
66
66
E6
0C
ENDCHAR
STARTCHAR U+0403
ENCODING 1027
SWIDTH 500 0
DWIDTH 8 0
BBX 7 11 0 1
BITMAP
0C
18
00
FE
66
62
60
60
60
60
F0
ENDCHAR
STARTCHAR U+0404
ENCODING 1028
SWIDTH 500 0
DWIDTH 8 0
BBX 7 9 0 1
BITMAP
3C
66
C2
C8
F8
C8
C2
66
3C
ENDCHAR
STARTCHAR U+0405
ENCODING 1029
SWIDTH 500 0
DWIDTH 8 0
BBX 7 9 0 1
BITMAP
7C
C6
C6
60
38
0C
C6
C6
7C
ENDCHAR
STARTCHAR U+0406
ENCODING 1030
SWIDTH 500 0
DWIDTH 8 0
BBX 4 9 2 1
BITMAP
F0
60
60
60
60
60
60
60
F0
ENDCHAR
STARTCHAR U+0407
ENCODING 1031
SWIDTH 500 0
DWIDTH 8 0
BBX 6 10 1 1
BITMAP
CC
00
78
30
30
30
30
30
30
78
ENDCHAR
STARTCHAR U+0408
ENCODING 1032
SWIDTH 500 0
DWIDTH 8 0
BBX 7 9 0 1
BITMAP
1E
0C
0C
0C
0C
0C
CC
CC
78
ENDCHAR
STARTCHAR U+0409
ENCODING 1033
SWIDTH 500 0
DWIDTH 8 0
BBX 7 9 0 1
BITMAP
FC
D8
D8
D8
DC
DA
DA
DA
DC
ENDCHAR
STARTCHAR U+040A
ENCODING 1034
SWIDTH 500 0
DWIDTH 8 0
BBX 7 9 0 1
BITMAP
D8
D8
D8
D8
FC
DA
DA
DA
DC
ENDCHAR
STARTCHAR U+040B
ENCODING 1035
SWIDTH 500 0
DWIDTH 8 0
BBX 7 9 0 1
BITMAP
FC
64
60
60
7C
66
66
66
E6
ENDCHAR
STARTCHAR U+040C
ENCODING 1036
SWIDTH 500 0
DWIDTH 8 0
BBX 7 11 0 1
BITMAP
0C
18
00
E6
66
6C
78
6C
6C
66
E6
ENDCHAR
STARTCHAR U+040D
ENCODING 1037
SWIDTH 500 0
DWIDTH 8 0
BBX 7 11 0 1
BITMAP
30
18
00
C6
C6
CE
DE
F6
E6
C6
C6
ENDCHAR
STARTCHAR U+040E
ENCODING 1038
SWIDTH 500 0
DWIDTH 8 0
BBX 7 11 0 1
BITMAP
6C
38
00
C6
C6
C6
C6
7E
06
C6
7C
ENDCHAR
STARTCHAR U+040F
ENCODING 1039
SWIDTH 500 0
DWIDTH 8 0
BBX 7 10 0 0
BITMAP
EE
6C
6C
6C
6C
6C
6C
6C
FE
10
ENDCHAR
STARTCHAR U+0410
ENCODING 1040
SWIDTH 500 0
DWIDTH 8 0
BBX 7 9 0 1
BITMAP
10
38
6C
C6
C6
FE
C6
C6
C6
ENDCHAR
STARTCHAR U+0411
ENCODING 1041
SWIDTH 500 0
DWIDTH 8 0
BBX 7 9 0 1
BITMAP
FE
66
62
60
7C
66
66
66
FC
ENDCHAR
STARTCHAR U+0412
ENCODING 1042
SWIDTH 500 0
DWIDTH 8 0
BBX 7 9 0 1
BITMAP
FC
66
66
66
7C
66
66
66
FC
ENDCHAR
STARTCHAR U+0413
ENCODING 1043
SWIDTH 500 0
DWIDTH 8 0
BBX 7 9 0 1
BITMAP
FE
66
62
60
60
60
60
60
F0
ENDCHAR
STARTCHAR U+0414
ENCODING 1044
SWIDTH 500 0
DWIDTH 8 0
BBX 8 11 0 -1
BITMAP
1E
36
66
66
66
66
66
66
FF
C3
81
ENDCHAR
STARTCHAR U+0415
ENCODING 1045
SWIDTH 500 0
DWIDTH 8 0
BBX 7 9 0 1
BITMAP
FE
66
62
68
78
68
62
66
FE
ENDCHAR
STARTCHAR U+0416
ENCODING 1046
SWIDTH 500 0
DWIDTH 8 0
BBX 7 9 0 1
BITMAP
D6
D6
D6
7C
7C
D6
D6
D6
D6
ENDCHAR
STARTCHAR U+0417
ENCODING 1047
SWIDTH 500 0
DWIDTH 8 0
BBX 7 9 0 1
BITMAP
7C
C6
86
06
3C
06
86
C6
7C
ENDCHAR
STARTCHAR U+0418
ENCODING 1048
SWIDTH 500 0
DWIDTH 8 0
BBX 7 9 0 1
BITMAP
C6
C6
C6
CE
DE
F6
E6
C6
C6
ENDCHAR
STARTCHAR U+0419
ENCODING 1049
SWIDTH 500 0
DWIDTH 8 0
BBX 7 11 0 1
BITMAP
6C
38
00
C6
C6
CE
DE
F6
E6
C6
C6
ENDCHAR
STARTCHAR U+041A
ENCODING 1050
SWIDTH 500 0
DWIDTH 8 0
BBX 7 9 0 1
BITMAP
E6
66
6C
6C
78
6C
6C
66
E6
ENDCHAR
STARTCHAR U+041B
ENCODING 1051
SWIDTH 500 0
DWIDTH 8 0
BBX 7 9 0 1
BITMAP
1E
36
66
66
66
66
66
66
C6
ENDCHAR
STARTCHAR U+041C
ENCODING 1052
SWIDTH 500 0
DWIDTH 8 0
BBX 7 9 0 1
BITMAP
C6
EE
FE
D6
C6
C6
C6
C6
C6
ENDCHAR
STARTCHAR U+041D
ENCODING 1053
SWIDTH 500 0
DWIDTH 8 0
BBX 7 9 0 1
BITMAP
C6
C6
C6
C6
FE
C6
C6
C6
C6
ENDCHAR
STARTCHAR U+041E
ENCODING 1054
SWIDTH 500 0
DWIDTH 8 0
BBX 7 9 0 1
BITMAP
38
6C
C6
C6
C6
C6
C6
6C
38
ENDCHAR
STARTCHAR U+041F
ENCODING 1055
SWIDTH 500 0
DWIDTH 8 0
BBX 7 9 0 1
BITMAP
FE
C6
C6
C6
C6
C6
C6
C6
C6
ENDCHAR
STARTCHAR U+0420
ENCODING 1056
SWIDTH 500 0
DWIDTH 8 0
BBX 7 9 0 1
BITMAP
FC
66
66
66
7C
60
60
60
F0
ENDCHAR
STARTCHAR U+0421
ENCODING 1057
SWIDTH 500 0
DWIDTH 8 0
BBX 7 9 0 1
BITMAP
3C
66
C2
C0
C0
C0
C2
66
3C
ENDCHAR
STARTCHAR U+0422
ENCODING 1058
SWIDTH 500 0
DWIDTH 8 0
BBX 8 9 0 1
BITMAP
FF
99
18
18
18
18
18
18
3C
ENDCHAR
STARTCHAR U+0423
ENCODING 1059
SWIDTH 500 0
DWIDTH 8 0
BBX 7 9 0 1
BITMAP
C6
C6
C6
C6
7E
06
06
C6
7C
ENDCHAR
STARTCHAR U+0424
ENCODING 1060
SWIDTH 500 0
DWIDTH 8 0
BBX 7 9 0 1
BITMAP
38
10
7C
D6
D6
D6
7C
10
38
ENDCHAR
STARTCHAR U+0425
ENCODING 1061
SWIDTH 500 0
DWIDTH 8 0
BBX 7 9 0 1
BITMAP
C6
C6
C6
6C
38
6C
C6
C6
C6
ENDCHAR
STARTCHAR U+0426
ENCODING 1062
SWIDTH 500 0
DWIDTH 8 0
BBX 7 11 0 -1
BITMAP
CC
CC
CC
CC
CC
CC
CC
CC
FE
06
02
ENDCHAR
STARTCHAR U+0427
ENCODING 1063
SWIDTH 500 0
DWIDTH 8 0
BBX 7 9 0 1
BITMAP
C6
C6
C6
C6
7E
06
06
06
06
ENDCHAR
STARTCHAR U+0428
ENCODING 1064
SWIDTH 500 0
DWIDTH 8 0
BBX 7 9 0 1
BITMAP
D6
D6
D6
D6
D6
D6
D6
D6
FE
ENDCHAR
STARTCHAR U+0429
ENCODING 1065
SWIDTH 500 0
DWIDTH 8 0
BBX 8 11 0 -1
BITMAP
D6
D6
D6
D6
D6
D6
D6
D6
FF
03
01
ENDCHAR
STARTCHAR U+042A
ENCODING 1066
SWIDTH 500 0
DWIDTH 8 0
BBX 7 9 0 1
BITMAP
F0
F0
B0
3C
36
36
36
36
7C
ENDCHAR
STARTCHAR U+042B
ENCODING 1067
SWIDTH 500 0
DWIDTH 8 0
BBX 7 9 0 1
BITMAP
C6
C6
C6
E6
D6
D6
D6
D6
E6
ENDCHAR
STARTCHAR U+042C
ENCODING 1068
SWIDTH 500 0
DWIDTH 8 0
BBX 7 9 0 1
BITMAP
F0
60
60
7C
66
66
66
66
FC
ENDCHAR
STARTCHAR U+042D
ENCODING 1069
SWIDTH 500 0
DWIDTH 8 0
BBX 7 9 0 1
BITMAP
78
CC
86
26
3E
26
86
CC
78
ENDCHAR
STARTCHAR U+042E
ENCODING 1070
SWIDTH 500 0
DWIDTH 8 0
BBX 7 9 0 1
BITMAP
CC
D6
D6
D6
F6
D6
D6
D6
CC
ENDCHAR
STARTCHAR U+042F
ENCODING 1071
SWIDTH 500 0
DWIDTH 8 0
BBX 8 9 0 1
BITMAP
3F
66
66
66
3E
36
66
66
E7
ENDCHAR
STARTCHAR U+0430
ENCODING 1072
SWIDTH 500 0
DWIDTH 8 0
BBX 7 6 0 1
BITMAP
78
0C
7C
CC
CC
76
ENDCHAR
STARTCHAR U+0431
ENCODING 1073
SWIDTH 500 0
DWIDTH 8 0
BBX 7 8 0 1
BITMAP
0C
78
C0
C0
FC
C6
C6
7C
ENDCHAR
STARTCHAR U+0432
ENCODING 1074
SWIDTH 500 0
DWIDTH 8 0
BBX 7 6 0 1
BITMAP
FC
66
7C
66
66
FC
ENDCHAR
STARTCHAR U+0433
ENCODING 1075
SWIDTH 500 0
DWIDTH 8 0
BBX 7 6 0 1
BITMAP
FE
66
62
60
60
F0
ENDCHAR
STARTCHAR U+0434
ENCODING 1076
SWIDTH 500 0
DWIDTH 8 0
BBX 7 8 0 -1
BITMAP
3C
3C
6C
CC
CC
FE
C6
82
ENDCHAR
STARTCHAR U+0435
ENCODING 1077
SWIDTH 500 0
DWIDTH 8 0
BBX 7 6 0 1
BITMAP
7C
C6
FE
C0
C6
7C
ENDCHAR
STARTCHAR U+0436
ENCODING 1078
SWIDTH 500 0
DWIDTH 8 0
BBX 7 6 0 1
BITMAP
D6
D6
7C
D6
D6
D6
ENDCHAR
STARTCHAR U+0437
ENCODING 1079
SWIDTH 500 0
DWIDTH 8 0
BBX 7 6 0 1
BITMAP
7C
C6
1C
06
C6
7C
ENDCHAR
STARTCHAR U+0438
ENCODING 1080
SWIDTH 500 0
DWIDTH 8 0
BBX 7 6 0 1
BITMAP
C6
CE
DE
F6
E6
C6
ENDCHAR
STARTCHAR U+0439
ENCODING 1081
SWIDTH 500 0
DWIDTH 8 0
BBX 7 9 0 1
BITMAP
6C
38
00
C6
CE
DE
F6
E6
C6
ENDCHAR
STARTCHAR U+043A
ENCODING 1082
SWIDTH 500 0
DWIDTH 8 0
BBX 7 6 0 1
BITMAP
E6
6C
78
6C
66
E6
ENDCHAR
STARTCHAR U+043B
ENCODING 1083
SWIDTH 500 0
DWIDTH 8 0
BBX 7 6 0 1
BITMAP
1E
36
66
66
66
C6
ENDCHAR
STARTCHAR U+043C
ENCODING 1084
SWIDTH 500 0
DWIDTH 8 0
BBX 7 6 0 1
BITMAP
C6
EE
FE
D6
D6
C6
ENDCHAR
STARTCHAR U+043D
ENCODING 1085
SWIDTH 500 0
DWIDTH 8 0
BBX 7 6 0 1
BITMAP
C6
C6
FE
C6
C6
C6
ENDCHAR
STARTCHAR U+043E
ENCODING 1086
SWIDTH 500 0
DWIDTH 8 0
BBX 7 6 0 1
BITMAP
7C
C6
C6
C6
C6
7C
ENDCHAR
STARTCHAR U+043F
ENCODING 1087
SWIDTH 500 0
DWIDTH 8 0
BBX 7 6 0 1
BITMAP
FE
C6
C6
C6
C6
C6
ENDCHAR
STARTCHAR U+0440
ENCODING 1088
SWIDTH 500 0
DWIDTH 8 0
BBX 7 8 0 -1
BITMAP
DC
66
66
66
7C
60
60
F0
ENDCHAR
STARTCHAR U+0441
ENCODING 1089
SWIDTH 500 0
DWIDTH 8 0
BBX 7 6 0 1
BITMAP
7C
C6
C0
C0
C6
7C
ENDCHAR
STARTCHAR U+0442
ENCODING 1090
SWIDTH 500 0
DWIDTH 8 0
BBX 8 6 0 1
BITMAP
FF
99
18
18
18
3C
ENDCHAR
STARTCHAR U+0443
ENCODING 1091
SWIDTH 500 0
DWIDTH 8 0
BBX 7 8 0 -1
BITMAP
C6
C6
C6
C6
7E
06
0C
78
ENDCHAR
STARTCHAR U+0444
ENCODING 1092
SWIDTH 500 0
DWIDTH 8 0
BBX 7 11 0 -1
BITMAP
10
10
10
7C
D6
D6
D6
7C
10
10
10
ENDCHAR
STARTCHAR U+0445
ENCODING 1093
SWIDTH 500 0
DWIDTH 8 0
BBX 7 6 0 1
BITMAP
C6
6C
38
38
6C
C6
ENDCHAR
STARTCHAR U+0446
ENCODING 1094
SWIDTH 500 0
DWIDTH 8 0
BBX 7 8 0 -1
BITMAP
CC
CC
CC
CC
CC
FE
06
02
ENDCHAR
STARTCHAR U+0447
ENCODING 1095
SWIDTH 500 0
DWIDTH 8 0
BBX 7 6 0 1
BITMAP
C6
C6
C6
7E
06
06
ENDCHAR
STARTCHAR U+0448
ENCODING 1096
SWIDTH 500 0
DWIDTH 8 0
BBX 7 6 0 1
BITMAP
D6
D6
D6
D6
D6
FE
ENDCHAR
STARTCHAR U+0449
ENCODING 1097
SWIDTH 500 0
DWIDTH 8 0
BBX 8 8 0 -1
BITMAP
D6
D6
D6
D6
D6
FF
03
01
ENDCHAR
STARTCHAR U+044A
ENCODING 1098
SWIDTH 500 0
DWIDTH 8 0
BBX 7 6 0 1
BITMAP
F0
B0
3C
36
36
7C
ENDCHAR
STARTCHAR U+044B
ENCODING 1099
SWIDTH 500 0
DWIDTH 8 0
BBX 7 6 0 1
BITMAP
C6
C6
E6
D6
D6
E6
ENDCHAR
STARTCHAR U+044C
ENCODING 1100
SWIDTH 500 0
DWIDTH 8 0
BBX 6 6 1 1
BITMAP
F0
60
78
6C
6C
F8
ENDCHAR
STARTCHAR U+044D
ENCODING 1101
SWIDTH 500 0
DWIDTH 8 0
BBX 7 6 0 1
BITMAP
7C
C6
1E
06
C6
7C
ENDCHAR
STARTCHAR U+044E
ENCODING 1102
SWIDTH 500 0
DWIDTH 8 0
BBX 7 6 0 1
BITMAP
CC
D6
F6
D6
D6
CC
ENDCHAR
STARTCHAR U+044F
ENCODING 1103
SWIDTH 500 0
DWIDTH 8 0
BBX 7 6 0 1
BITMAP
3E
6C
6C
3C
6C
EE
ENDCHAR
STARTCHAR U+0450
ENCODING 1104
SWIDTH 500 0
DWIDTH 8 0
BBX 7 10 0 1
BITMAP
60
30
18
00
7C
C6
FE
C0
C6
7C
ENDCHAR
STARTCHAR U+0451
ENCODING 1105
SWIDTH 500 0
DWIDTH 8 0
BBX 7 9 0 1
BITMAP
CC
CC
00
7C
C6
FE
C0
C6
7C
ENDCHAR
STARTCHAR U+0452
ENCODING 1106
SWIDTH 500 0
DWIDTH 8 0
BBX 7 11 0 -1
BITMAP
60
F8
60
6C
76
66
66
66
E6
06
0C
ENDCHAR
STARTCHAR U+0453
ENCODING 1107
SWIDTH 500 0
DWIDTH 8 0
BBX 7 10 0 1
BITMAP
0C
18
30
00
FE
66
62
60
60
F0
ENDCHAR
STARTCHAR U+0454
ENCODING 1108
SWIDTH 500 0
DWIDTH 8 0
BBX 7 6 0 1
BITMAP
7C
C6
F0
C0
C6
7C
ENDCHAR
STARTCHAR U+0455
ENCODING 1109
SWIDTH 500 0
DWIDTH 8 0
BBX 7 6 0 1
BITMAP
7C
C6
70
1C
C6
7C
ENDCHAR
STARTCHAR U+0456
ENCODING 1110
SWIDTH 500 0
DWIDTH 8 0
BBX 4 9 2 1
BITMAP
60
60
00
E0
60
60
60
60
F0
ENDCHAR
STARTCHAR U+0457
ENCODING 1111
SWIDTH 500 0
DWIDTH 8 0
BBX 6 9 1 1
BITMAP
CC
CC
00
70
30
30
30
30
78
ENDCHAR
STARTCHAR U+0458
ENCODING 1112
SWIDTH 500 0
DWIDTH 8 0
BBX 6 11 1 -1
BITMAP
0C
0C
00
1C
0C
0C
0C
0C
CC
CC
78
ENDCHAR
STARTCHAR U+0459
ENCODING 1113
SWIDTH 500 0
DWIDTH 8 0
BBX 7 6 0 1
BITMAP
FC
D8
DC
DA
DA
DC
ENDCHAR
STARTCHAR U+045A
ENCODING 1114
SWIDTH 500 0
DWIDTH 8 0
BBX 7 6 0 1
BITMAP
D8
D8
FC
DA
DA
DC
ENDCHAR
STARTCHAR U+045B
ENCODING 1115
SWIDTH 500 0
DWIDTH 8 0
BBX 7 9 0 1
BITMAP
60
F8
60
7C
66
66
66
66
E6
ENDCHAR
STARTCHAR U+045C
ENCODING 1116
SWIDTH 500 0
DWIDTH 8 0
BBX 7 9 0 1
BITMAP
18
30
00
E6
6C
78
6C
66
E6
ENDCHAR
STARTCHAR U+045D
ENCODING 1117
SWIDTH 500 0
DWIDTH 8 0
BBX 7 10 0 1
BITMAP
60
30
18
00
C6
CE
DE
F6
E6
C6
ENDCHAR
STARTCHAR U+045E
ENCODING 1118
SWIDTH 500 0
DWIDTH 8 0
BBX 7 11 0 -1
BITMAP
6C
38
00
C6
C6
C6
C6
7E
06
0C
78
ENDCHAR
STARTCHAR U+045F
ENCODING 1119
SWIDTH 500 0
DWIDTH 8 0
BBX 7 7 0 0
BITMAP
EE
6C
6C
6C
6C
FE
10
ENDCHAR
STARTCHAR U+0490
ENCODING 1168
SWIDTH 500 0
DWIDTH 8 0
BBX 7 11 0 1
BITMAP
02
06
FE
60
60
60
60
60
60
60
F0
ENDCHAR
STARTCHAR U+0491
ENCODING 1169
SWIDTH 500 0
DWIDTH 8 0
BBX 7 8 0 1
BITMAP
02
06
FE
60
60
60
60
F0
ENDCHAR
STARTCHAR U+04C0
ENCODING 1216
SWIDTH 500 0
DWIDTH 8 0
BBX 4 9 2 1
BITMAP
F0
60
60
60
60
60
60
60
F0
ENDCHAR
STARTCHAR U+04C1
ENCODING 1217
SWIDTH 500 0
DWIDTH 8 0
BBX 7 11 0 1
BITMAP
C6
7C
00
D6
D6
D6
7C
7C
D6
D6
D6
ENDCHAR
STARTCHAR U+04C2
ENCODING 1218
SWIDTH 500 0
DWIDTH 8 0
BBX 7 9 0 1
BITMAP
C6
7C
00
D6
D6
7C
D6
D6
D6
ENDCHAR
STARTCHAR U+04CF
ENCODING 1231
SWIDTH 500 0
DWIDTH 8 0
BBX 4 9 2 1
BITMAP
E0
60
60
60
60
60
60
60
F0
ENDCHAR
STARTCHAR U+04D0
ENCODING 1232
SWIDTH 500 0
DWIDTH 8 0
BBX 7 11 0 1
BITMAP
C6
7C
00
10
38
6C
C6
C6
FE
C6
C6
ENDCHAR
STARTCHAR U+04D1
ENCODING 1233
SWIDTH 500 0
DWIDTH 8 0
BBX 7 9 0 1
BITMAP
C6
7C
00
78
0C
7C
CC
CC
76
ENDCHAR
STARTCHAR U+04D2
ENCODING 1234
SWIDTH 500 0
DWIDTH 8 0
BBX 7 10 0 1
BITMAP
C6
C6
10
38
6C
C6
C6
FE
C6
C6
ENDCHAR
STARTCHAR U+04D3
ENCODING 1235
SWIDTH 500 0
DWIDTH 8 0
BBX 7 9 0 1
BITMAP
CC
CC
00
78
0C
7C
CC
CC
76
ENDCHAR
STARTCHAR U+04D4
ENCODING 1236
SWIDTH 500 0
DWIDTH 8 0
BBX 7 9 0 1
BITMAP
3E
6C
CC
CC
FE
CC
CC
CC
CE
ENDCHAR
STARTCHAR U+04D5
ENCODING 1237
SWIDTH 500 0
DWIDTH 8 0
BBX 7 7 0 1
BITMAP
CC
76
36
7E
D8
D8
6E
ENDCHAR
STARTCHAR U+04D6
ENCODING 1238
SWIDTH 500 0
DWIDTH 8 0
BBX 7 11 0 1
BITMAP
C6
7C
00
FE
66
60
7C
60
60
66
FE
ENDCHAR
STARTCHAR U+04D7
ENCODING 1239
SWIDTH 500 0
DWIDTH 8 0
BBX 7 9 0 1
BITMAP
C6
7C
00
7C
C6
FE
C0
C6
7C
ENDCHAR
STARTCHAR U+04D8
ENCODING 1240
SWIDTH 500 0
DWIDTH 8 0
BBX 7 9 0 1
BITMAP
78
CC
86
06
FE
C6
C6
6C
38
ENDCHAR
STARTCHAR U+04D9
ENCODING 1241
SWIDTH 500 0
DWIDTH 8 0
BBX 7 6 0 1
BITMAP
7C
C6
06
FE
C6
7C
ENDCHAR
STARTCHAR U+04DA
ENCODING 1242
SWIDTH 500 0
DWIDTH 8 0
BBX 7 11 0 1
BITMAP
C6
C6
00
78
CC
86
06
FE
C6
6C
38
ENDCHAR
STARTCHAR U+04DB
ENCODING 1243
SWIDTH 500 0
DWIDTH 8 0
BBX 7 9 0 1
BITMAP
CC
CC
00
7C
C6
06
FE
C6
7C
ENDCHAR
STARTCHAR U+04DC
ENCODING 1244
SWIDTH 500 0
DWIDTH 8 0
BBX 7 11 0 1
BITMAP
C6
C6
00
D6
D6
D6
7C
7C
D6
D6
D6
ENDCHAR
STARTCHAR U+04DD
ENCODING 1245
SWIDTH 500 0
DWIDTH 8 0
BBX 7 9 0 1
BITMAP
C6
C6
00
D6
D6
7C
D6
D6
D6
ENDCHAR
STARTCHAR U+04DE
ENCODING 1246
SWIDTH 500 0
DWIDTH 8 0
BBX 7 11 0 1
BITMAP
C6
C6
00
7C
C6
06
3C
06
06
C6
7C
ENDCHAR
STARTCHAR U+04DF
ENCODING 1247
SWIDTH 500 0
DWIDTH 8 0
BBX 7 9 0 1
BITMAP
CC
CC
00
7C
C6
1C
06
C6
7C
ENDCHAR
STARTCHAR U+04E0
ENCODING 1248
SWIDTH 500 0
DWIDTH 8 0
BBX 7 9 0 1
BITMAP
FE
C6
0C
18
3C
06
86
C6
7C
ENDCHAR
STARTCHAR U+04E1
ENCODING 1249
SWIDTH 500 0
DWIDTH 8 0
BBX 7 8 0 -1
BITMAP
FE
CC
18
3C
06
06
C6
7C
ENDCHAR
STARTCHAR U+04E2
ENCODING 1250
SWIDTH 500 0
DWIDTH 8 0
BBX 7 11 0 1
BITMAP
7C
00
C6
C6
C6
CE
DE
F6
E6
C6
C6
ENDCHAR
STARTCHAR U+04E3
ENCODING 1251
SWIDTH 500 0
DWIDTH 8 0
BBX 7 8 0 1
BITMAP
7C
00
C6
CE
DE
F6
E6
C6
ENDCHAR
STARTCHAR U+04E4
ENCODING 1252
SWIDTH 500 0
DWIDTH 8 0
BBX 7 11 0 1
BITMAP
C6
C6
00
C6
C6
CE
DE
F6
E6
C6
C6
ENDCHAR
STARTCHAR U+04E5
ENCODING 1253
SWIDTH 500 0
DWIDTH 8 0
BBX 7 9 0 1
BITMAP
C6
C6
00
C6
CE
DE
F6
E6
C6
ENDCHAR
STARTCHAR U+04E6
ENCODING 1254
SWIDTH 500 0
DWIDTH 8 0
BBX 7 10 0 1
BITMAP
C6
C6
38
6C
C6
C6
C6
C6
6C
38
ENDCHAR
STARTCHAR U+04E7
ENCODING 1255
SWIDTH 500 0
DWIDTH 8 0
BBX 7 9 0 1
BITMAP
C6
C6
00
7C
C6
C6
C6
C6
7C
ENDCHAR
STARTCHAR U+04E8
ENCODING 1256
SWIDTH 500 0
DWIDTH 8 0
BBX 7 9 0 1
BITMAP
38
6C
C6
C6
FE
C6
C6
6C
38
ENDCHAR
STARTCHAR U+04E9
ENCODING 1257
SWIDTH 500 0
DWIDTH 8 0
BBX 7 6 0 1
BITMAP
7C
C6
FE
C6
C6
7C
ENDCHAR
STARTCHAR U+04EA
ENCODING 1258
SWIDTH 500 0
DWIDTH 8 0
BBX 7 10 0 1
BITMAP
C6
C6
38
6C
C6
FE
C6
C6
6C
38
ENDCHAR
STARTCHAR U+04EB
ENCODING 1259
SWIDTH 500 0
DWIDTH 8 0
BBX 7 9 0 1
BITMAP
C6
C6
00
7C
C6
FE
C6
C6
7C
ENDCHAR
STARTCHAR U+04EC
ENCODING 1260
SWIDTH 500 0
DWIDTH 8 0
BBX 7 11 0 1
BITMAP
C6
C6
00
78
CC
06
3E
06
06
CC
78
ENDCHAR
STARTCHAR U+04ED
ENCODING 1261
SWIDTH 500 0
DWIDTH 8 0
BBX 7 9 0 1
BITMAP
CC
CC
00
7C
C6
1E
06
C6
7C
ENDCHAR
STARTCHAR U+04EE
ENCODING 1262
SWIDTH 500 0
DWIDTH 8 0
BBX 7 11 0 1
BITMAP
7C
00
C6
C6
C6
C6
7E
06
06
C6
7C
ENDCHAR
STARTCHAR U+04EF
ENCODING 1263
SWIDTH 500 0
DWIDTH 8 0
BBX 7 10 0 -1
BITMAP
7C
00
C6
C6
C6
C6
7E
06
0C
78
ENDCHAR
STARTCHAR U+04F0
ENCODING 1264
SWIDTH 500 0
DWIDTH 8 0
BBX 7 11 0 1
BITMAP
C6
C6
00
C6
C6
C6
7E
06
06
C6
7C
ENDCHAR
STARTCHAR U+04F1
ENCODING 1265
SWIDTH 500 0
DWIDTH 8 0
BBX 7 11 0 -1
BITMAP
C6
C6
00
C6
C6
C6
C6
7E
06
0C
78
ENDCHAR
STARTCHAR U+04F2
ENCODING 1266
SWIDTH 500 0
DWIDTH 8 0
BBX 7 11 0 1
BITMAP
66
CC
00
C6
C6
C6
7E
06
06
C6
7C
ENDCHAR
STARTCHAR U+04F3
ENCODING 1267
SWIDTH 500 0
DWIDTH 8 0
BBX 8 12 0 -1
BITMAP
33
66
CC
00
C6
C6
C6
C6
7E
06
0C
78
ENDCHAR
STARTCHAR U+04F4
ENCODING 1268
SWIDTH 500 0
DWIDTH 8 0
BBX 7 11 0 1
BITMAP
C6
C6
00
C6
C6
C6
C6
7E
06
06
06
ENDCHAR
STARTCHAR U+04F5
ENCODING 1269
SWIDTH 500 0
DWIDTH 8 0
BBX 7 9 0 1
BITMAP
C6
C6
00
C6
C6
C6
7E
06
06
ENDCHAR
STARTCHAR U+04F8
ENCODING 1272
SWIDTH 500 0
DWIDTH 8 0
BBX 7 11 0 1
BITMAP
C6
C6
00
C6
C6
C6
E6
D6
D6
D6
E6
ENDCHAR
STARTCHAR U+04F9
ENCODING 1273
SWIDTH 500 0
DWIDTH 8 0
BBX 7 9 0 1
BITMAP
C6
C6
00
C6
C6
E6
D6
D6
E6
ENDCHAR
STARTCHAR U+05BE
ENCODING 1470
SWIDTH 500 0
DWIDTH 8 0
BBX 6 1 1 8
BITMAP
FC
ENDCHAR
STARTCHAR U+05D0
ENCODING 1488
SWIDTH 500 0
DWIDTH 8 0
BBX 7 8 0 1
BITMAP
C6
C6
66
76
DC
CC
C6
C6
ENDCHAR
STARTCHAR U+05D1
ENCODING 1489
SWIDTH 500 0
DWIDTH 8 0
BBX 7 8 0 1
BITMAP
F8
0C
0C
0C
0C
0C
0C
FE
ENDCHAR
STARTCHAR U+05D2
ENCODING 1490
SWIDTH 500 0
DWIDTH 8 0
BBX 7 8 0 1
BITMAP
38
0C
0C
0C
0C
3C
6C
C6
ENDCHAR
STARTCHAR U+05D3
ENCODING 1491
SWIDTH 500 0
DWIDTH 8 0
BBX 7 8 0 1
BITMAP
FE
0C
0C
0C
0C
0C
0C
0C
ENDCHAR
STARTCHAR U+05D4
ENCODING 1492
SWIDTH 500 0
DWIDTH 8 0
BBX 7 8 0 1
BITMAP
FC
06
06
06
C6
C6
C6
C6
ENDCHAR
STARTCHAR U+05D5
ENCODING 1493
SWIDTH 500 0
DWIDTH 8 0
BBX 4 8 1 1
BITMAP
E0
30
30
30
30
30
30
30
ENDCHAR
STARTCHAR U+05D6
ENCODING 1494
SWIDTH 500 0
DWIDTH 8 0
BBX 6 8 0 1
BITMAP
FC
30
30
30
18
18
30
60
ENDCHAR
STARTCHAR U+05D7
ENCODING 1495
SWIDTH 500 0
DWIDTH 8 0
BBX 7 8 0 1
BITMAP
FC
66
C6
C6
C6
C6
C6
C6
ENDCHAR
STARTCHAR U+05D8
ENCODING 1496
SWIDTH 500 0
DWIDTH 8 0
BBX 7 8 0 1
BITMAP
CC
D6
D6
C6
C6
C6
CC
78
ENDCHAR
STARTCHAR U+05D9
ENCODING 1497
SWIDTH 500 0
DWIDTH 8 0
BBX 5 5 1 4
BITMAP
F0
18
18
18
30
ENDCHAR
STARTCHAR U+05DA
ENCODING 1498
SWIDTH 500 0
DWIDTH 8 0
BBX 7 10 0 -1
BITMAP
FC
06
06
0C
0C
0C
0C
0C
0C
0E
ENDCHAR
STARTCHAR U+05DB
ENCODING 1499
SWIDTH 500 0
DWIDTH 8 0
BBX 7 8 0 1
BITMAP
FC
06
06
06
06
06
0C
F8
ENDCHAR
STARTCHAR U+05DC
ENCODING 1500
SWIDTH 500 0
DWIDTH 8 0
BBX 7 10 0 1
BITMAP
C0
C0
FC
06
06
06
0C
18
30
30
ENDCHAR
STARTCHAR U+05DD
ENCODING 1501
SWIDTH 500 0
DWIDTH 8 0
BBX 7 8 0 1
BITMAP
FC
C6
C6
C6
C6
C6
C6
FE
ENDCHAR
STARTCHAR U+05DE
ENCODING 1502
SWIDTH 500 0
DWIDTH 8 0
BBX 7 8 0 1
BITMAP
DC
F6
66
C6
C6
C6
C6
DE
ENDCHAR
STARTCHAR U+05DF
ENCODING 1503
SWIDTH 500 0
DWIDTH 8 0
BBX 4 10 2 -1
BITMAP
E0
30
30
60
60
60
60
60
60
70
ENDCHAR
STARTCHAR U+05E0
ENCODING 1504
SWIDTH 500 0
DWIDTH 8 0
BBX 5 8 1 1
BITMAP
70
18
18
18
18
18
18
F8
ENDCHAR
STARTCHAR U+05E1
ENCODING 1505
SWIDTH 500 0
DWIDTH 8 0
BBX 7 8 0 1
BITMAP
FC
66
C6
C6
C6
C6
CC
78
ENDCHAR
STARTCHAR U+05E2
ENCODING 1506
SWIDTH 500 0
DWIDTH 8 0
BBX 7 8 0 1
BITMAP
66
66
66
66
66
36
1C
F8
ENDCHAR
STARTCHAR U+05E3
ENCODING 1507
SWIDTH 500 0
DWIDTH 8 0
BBX 7 10 0 -1
BITMAP
F8
4C
CC
EC
0C
0C
0C
0C
0C
0E
ENDCHAR
STARTCHAR U+05E4
ENCODING 1508
SWIDTH 500 0
DWIDTH 8 0
BBX 7 8 0 1
BITMAP
FC
46
C6
E6
06
06
06
FE
ENDCHAR
STARTCHAR U+05E5
ENCODING 1509
SWIDTH 500 0
DWIDTH 8 0
BBX 6 10 0 -1
BITMAP
CC
CC
CC
CC
D8
F0
C0
C0
C0
E0
ENDCHAR
STARTCHAR U+05E6
ENCODING 1510
SWIDTH 500 0
DWIDTH 8 0
BBX 7 8 0 1
BITMAP
C6
C6
66
3C
18
0C
06
FE
ENDCHAR
STARTCHAR U+05E7
ENCODING 1511
SWIDTH 500 0
DWIDTH 8 0
BBX 7 10 0 -1
BITMAP
FC
06
06
66
6C
6C
6E
60
60
60
ENDCHAR
STARTCHAR U+05E8
ENCODING 1512
SWIDTH 500 0
DWIDTH 8 0
BBX 7 8 0 1
BITMAP
FC
06
06
06
06
06
06
06
ENDCHAR
STARTCHAR U+05E9
ENCODING 1513
SWIDTH 500 0
DWIDTH 8 0
BBX 7 8 0 1
BITMAP
D6
D6
D6
D6
D6
F6
C6
7C
ENDCHAR
STARTCHAR U+05EA
ENCODING 1514
SWIDTH 500 0
DWIDTH 8 0
BBX 7 8 0 1
BITMAP
FC
66
66
66
66
66
66
E6
ENDCHAR
STARTCHAR U+05F0
ENCODING 1520
SWIDTH 500 0
DWIDTH 8 0
BBX 7 8 0 1
BITMAP
CC
66
66
66
66
66
66
66
ENDCHAR
STARTCHAR U+05F1
ENCODING 1521
SWIDTH 500 0
DWIDTH 8 0
BBX 7 8 0 1
BITMAP
CC
66
66
66
66
06
06
06
ENDCHAR
STARTCHAR U+05F2
ENCODING 1522
SWIDTH 500 0
DWIDTH 8 0
BBX 7 5 0 4
BITMAP
CC
66
66
66
66
ENDCHAR
STARTCHAR U+05F3
ENCODING 1523
SWIDTH 500 0
DWIDTH 8 0
BBX 3 3 2 7
BITMAP
60
60
C0
ENDCHAR
STARTCHAR U+05F4
ENCODING 1524
SWIDTH 500 0
DWIDTH 8 0
BBX 7 3 0 7
BITMAP
66
66
CC
ENDCHAR
STARTCHAR U+1D1B
ENCODING 7451
SWIDTH 500 0
DWIDTH 8 0
BBX 7 7 0 1
BITMAP
76
DC
18
18
18
18
18
ENDCHAR
STARTCHAR U+1D26
ENCODING 7462
SWIDTH 500 0
DWIDTH 8 0
BBX 7 9 0 1
BITMAP
FE
C6
C6
C0
C0
C0
C0
C0
C0
ENDCHAR
STARTCHAR U+1D28
ENCODING 7464
SWIDTH 500 0
DWIDTH 8 0
BBX 7 7 0 1
BITMAP
FE
6C
6C
6C
6C
6C
6C
ENDCHAR
STARTCHAR U+1E0A
ENCODING 7690
SWIDTH 500 0
DWIDTH 8 0
BBX 7 11 0 1
BITMAP
18
18
00
F8
6C
66
66
66
66
6C
F8
ENDCHAR
STARTCHAR U+1E0B
ENCODING 7691
SWIDTH 500 0
DWIDTH 8 0
BBX 7 11 0 1
BITMAP
0C
0C
00
1C
0C
0C
3C
6C
CC
CC
76
ENDCHAR
STARTCHAR U+1E1E
ENCODING 7710
SWIDTH 500 0
DWIDTH 8 0
BBX 7 11 0 1
BITMAP
18
18
00
FE
66
60
7C
60
60
60
F0
ENDCHAR
STARTCHAR U+1E1F
ENCODING 7711
SWIDTH 500 0
DWIDTH 8 0
BBX 6 11 1 1
BITMAP
30
30
00
38
6C
60
F8
60
60
60
F0
ENDCHAR
STARTCHAR U+1E20
ENCODING 7712
SWIDTH 500 0
DWIDTH 8 0
BBX 7 11 0 1
BITMAP
7E
00
3C
66
C2
C0
C0
DE
C6
66
3A
ENDCHAR
STARTCHAR U+1E21
ENCODING 7713
SWIDTH 500 0
DWIDTH 8 0
BBX 7 10 0 -1
BITMAP
7C
00
76
CC
CC
CC
7C
0C
CC
78
ENDCHAR
STARTCHAR U+1E22
ENCODING 7714
SWIDTH 500 0
DWIDTH 8 0
BBX 7 11 0 1
BITMAP
18
18
00
C6
C6
C6
FE
C6
C6
C6
C6
ENDCHAR
STARTCHAR U+1E23
ENCODING 7715
SWIDTH 500 0
DWIDTH 8 0
BBX 7 11 0 1
BITMAP
18
18
00
E0
60
6C
76
66
66
66
E6
ENDCHAR
STARTCHAR U+1E26
ENCODING 7718
SWIDTH 500 0
DWIDTH 8 0
BBX 7 11 0 1
BITMAP
C6
C6
00
C6
C6
C6
FE
C6
C6
C6
C6
ENDCHAR
STARTCHAR U+1E27
ENCODING 7719
SWIDTH 500 0
DWIDTH 8 0
BBX 7 11 0 1
BITMAP
66
66
00
E0
60
6C
76
66
66
66
E6
ENDCHAR
STARTCHAR U+1E40
ENCODING 7744
SWIDTH 500 0
DWIDTH 8 0
BBX 7 11 0 1
BITMAP
18
18
00
C6
EE
FE
D6
C6
C6
C6
C6
ENDCHAR
STARTCHAR U+1E41
ENCODING 7745
SWIDTH 500 0
DWIDTH 8 0
BBX 7 9 0 1
BITMAP
18
18
00
EC
FE
D6
D6
D6
D6
ENDCHAR
STARTCHAR U+1E44
ENCODING 7748
SWIDTH 500 0
DWIDTH 8 0
BBX 7 11 0 1
BITMAP
18
18
00
C6
E6
F6
FE
DE
CE
C6
C6
ENDCHAR
STARTCHAR U+1E45
ENCODING 7749
SWIDTH 500 0
DWIDTH 8 0
BBX 7 9 0 1
BITMAP
18
18
00
DC
66
66
66
66
66
ENDCHAR
STARTCHAR U+1E54
ENCODING 7764
SWIDTH 500 0
DWIDTH 8 0
BBX 7 11 0 1
BITMAP
0C
18
00
FC
66
66
66
7C
60
60
F0
ENDCHAR
STARTCHAR U+1E55
ENCODING 7765
SWIDTH 500 0
DWIDTH 8 0
BBX 7 12 0 -1
BITMAP
06
0C
18
00
DC
66
66
66
7C
60
60
F0
ENDCHAR
STARTCHAR U+1E56
ENCODING 7766
SWIDTH 500 0
DWIDTH 8 0
BBX 7 11 0 1
BITMAP
18
18
00
FC
66
66
66
7C
60
60
F0
ENDCHAR
STARTCHAR U+1E57
ENCODING 7767
SWIDTH 500 0
DWIDTH 8 0
BBX 7 11 0 -1
BITMAP
18
18
00
DC
66
66
66
7C
60
60
F0
ENDCHAR
STARTCHAR U+1E58
ENCODING 7768
SWIDTH 500 0
DWIDTH 8 0
BBX 8 11 0 1
BITMAP
18
18
00
FC
66
66
66
7C
6C
66
E7
ENDCHAR
STARTCHAR U+1E59
ENCODING 7769
SWIDTH 500 0
DWIDTH 8 0
BBX 7 9 0 1
BITMAP
18
18
00
DC
76
66
60
60
F0
ENDCHAR
STARTCHAR U+1E60
ENCODING 7776
SWIDTH 500 0
DWIDTH 8 0
BBX 7 11 0 1
BITMAP
18
18
00
7C
C6
C0
70
1C
06
C6
7C
ENDCHAR
STARTCHAR U+1E61
ENCODING 7777
SWIDTH 500 0
DWIDTH 8 0
BBX 7 9 0 1
BITMAP
18
18
00
7C
C6
70
1C
C6
7C
ENDCHAR
STARTCHAR U+1E6A
ENCODING 7786
SWIDTH 500 0
DWIDTH 8 0
BBX 8 11 0 1
BITMAP
18
18
00
FF
99
18
18
18
18
18
3C
ENDCHAR
STARTCHAR U+1E6B
ENCODING 7787
SWIDTH 500 0
DWIDTH 8 0
BBX 7 11 0 1
BITMAP
30
30
00
30
30
FC
30
30
30
36
1C
ENDCHAR
STARTCHAR U+1E7C
ENCODING 7804
SWIDTH 500 0
DWIDTH 8 0
BBX 7 11 0 1
BITMAP
76
DC
00
C6
C6
C6
C6
C6
6C
38
10
ENDCHAR
STARTCHAR U+1E7D
ENCODING 7805
SWIDTH 500 0
DWIDTH 8 0
BBX 7 9 0 1
BITMAP
76
DC
00
C6
C6
C6
6C
38
10
ENDCHAR
STARTCHAR U+1E80
ENCODING 7808
SWIDTH 500 0
DWIDTH 8 0
BBX 7 11 0 1
BITMAP
60
30
00
C6
C6
C6
C6
D6
FE
EE
C6
ENDCHAR
STARTCHAR U+1E81
ENCODING 7809
SWIDTH 500 0
DWIDTH 8 0
BBX 7 10 0 1
BITMAP
60
30
18
00
C6
C6
D6
D6
FE
6C
ENDCHAR
STARTCHAR U+1E82
ENCODING 7810
SWIDTH 500 0
DWIDTH 8 0
BBX 7 11 0 1
BITMAP
0C
18
00
C6
C6
C6
C6
D6
FE
EE
C6
ENDCHAR
STARTCHAR U+1E83
ENCODING 7811
SWIDTH 500 0
DWIDTH 8 0
BBX 7 10 0 1
BITMAP
0C
18
30
00
C6
C6
D6
D6
FE
6C
ENDCHAR
STARTCHAR U+1E84
ENCODING 7812
SWIDTH 500 0
DWIDTH 8 0
BBX 7 11 0 1
BITMAP
C6
C6
00
C6
C6
C6
C6
D6
FE
EE
C6
ENDCHAR
STARTCHAR U+1E85
ENCODING 7813
SWIDTH 500 0
DWIDTH 8 0
BBX 7 9 0 1
BITMAP
C6
C6
00
C6
C6
D6
D6
FE
6C
ENDCHAR
STARTCHAR U+1E86
ENCODING 7814
SWIDTH 500 0
DWIDTH 8 0
BBX 7 11 0 1
BITMAP
18
18
00
C6
C6
C6
C6
D6
FE
EE
C6
ENDCHAR
STARTCHAR U+1E87
ENCODING 7815
SWIDTH 500 0
DWIDTH 8 0
BBX 7 9 0 1
BITMAP
18
18
00
C6
C6
D6
D6
FE
6C
ENDCHAR
STARTCHAR U+1E8A
ENCODING 7818
SWIDTH 500 0
DWIDTH 8 0
BBX 7 11 0 1
BITMAP
18
18
00
C6
C6
6C
38
38
6C
C6
C6
ENDCHAR
STARTCHAR U+1E8B
ENCODING 7819
SWIDTH 500 0
DWIDTH 8 0
BBX 7 9 0 1
BITMAP
18
18
00
C6
6C
38
38
6C
C6
ENDCHAR
STARTCHAR U+1E8C
ENCODING 7820
SWIDTH 500 0
DWIDTH 8 0
BBX 7 11 0 1
BITMAP
C6
C6
00
C6
C6
6C
38
38
6C
C6
C6
ENDCHAR
STARTCHAR U+1E8D
ENCODING 7821
SWIDTH 500 0
DWIDTH 8 0
BBX 7 9 0 1
BITMAP
C6
C6
00
C6
6C
38
38
6C
C6
ENDCHAR
STARTCHAR U+1E8E
ENCODING 7822
SWIDTH 500 0
DWIDTH 8 0
BBX 8 11 0 1
BITMAP
18
18
00
C3
C3
66
3C
18
18
18
3C
ENDCHAR
STARTCHAR U+1E8F
ENCODING 7823
SWIDTH 500 0
DWIDTH 8 0
BBX 7 11 0 -1
BITMAP
18
18
00
C6
C6
C6
C6
7E
06
0C
78
ENDCHAR
STARTCHAR U+1E90
ENCODING 7824
SWIDTH 500 0
DWIDTH 8 0
BBX 7 11 0 1
BITMAP
38
6C
00
FE
C6
8C
18
30
62
C6
FE
ENDCHAR
STARTCHAR U+1E91
ENCODING 7825
SWIDTH 500 0
DWIDTH 8 0
BBX 7 10 0 1
BITMAP
10
38
6C
00
FE
CC
18
30
66
FE
ENDCHAR
STARTCHAR U+1E9F
ENCODING 7839
SWIDTH 500 0
DWIDTH 8 0
BBX 6 9 1 1
BITMAP
3C
60
30
18
7C
CC
CC
CC
78
ENDCHAR
STARTCHAR U+1EBC
ENCODING 7868
SWIDTH 500 0
DWIDTH 8 0
BBX 7 11 0 1
BITMAP
76
DC
00
FE
66
60
7C
60
60
66
FE
ENDCHAR
STARTCHAR U+1EBD
ENCODING 7869
SWIDTH 500 0
DWIDTH 8 0
BBX 7 9 0 1
BITMAP
76
DC
00
7C
C6
FE
C0
C6
7C
ENDCHAR
STARTCHAR U+1EF2
ENCODING 7922
SWIDTH 500 0
DWIDTH 8 0
BBX 8 11 0 1
BITMAP
30
18
00
C3
C3
66
3C
18
18
18
3C
ENDCHAR
STARTCHAR U+1EF3
ENCODING 7923
SWIDTH 500 0
DWIDTH 8 0
BBX 7 12 0 -1
BITMAP
60
30
18
00
C6
C6
C6
C6
7E
06
0C
78
ENDCHAR
STARTCHAR U+1EF8
ENCODING 7928
SWIDTH 500 0
DWIDTH 8 0
BBX 8 11 0 1
BITMAP
76
DC
00
C3
C3
66
3C
18
18
18
3C
ENDCHAR
STARTCHAR U+1EF9
ENCODING 7929
SWIDTH 500 0
DWIDTH 8 0
BBX 7 11 0 -1
BITMAP
76
DC
00
C6
C6
C6
C6
7E
06
0C
78
ENDCHAR
STARTCHAR U+2010
ENCODING 8208
SWIDTH 500 0
DWIDTH 8 0
BBX 6 1 1 5
BITMAP
FC
ENDCHAR
STARTCHAR U+2011
ENCODING 8209
SWIDTH 500 0
DWIDTH 8 0
BBX 6 1 1 5
BITMAP
FC
ENDCHAR
STARTCHAR U+2012
ENCODING 8210
SWIDTH 500 0
DWIDTH 8 0
BBX 5 1 1 5
BITMAP
F8
ENDCHAR
STARTCHAR U+2013
ENCODING 8211
SWIDTH 500 0
DWIDTH 8 0
BBX 5 1 1 5
BITMAP
F8
ENDCHAR
STARTCHAR U+2014
ENCODING 8212
SWIDTH 500 0
DWIDTH 8 0
BBX 8 1 0 5
BITMAP
FF
ENDCHAR
STARTCHAR U+2015
ENCODING 8213
SWIDTH 1000 0
DWIDTH 16 0
BBX 16 1 0 5
BITMAP
FFFF
ENDCHAR
STARTCHAR U+2016
ENCODING 8214
SWIDTH 500 0
DWIDTH 8 0
BBX 5 9 1 1
BITMAP
D8
D8
D8
D8
D8
D8
D8
D8
D8
ENDCHAR
STARTCHAR U+2017
ENCODING 8215
SWIDTH 500 0
DWIDTH 8 0
BBX 8 3 0 -1
BITMAP
FF
00
FF
ENDCHAR
STARTCHAR U+2018
ENCODING 8216
SWIDTH 500 0
DWIDTH 8 0
BBX 3 3 2 8
BITMAP
60
C0
C0
ENDCHAR
STARTCHAR U+2019
ENCODING 8217
SWIDTH 500 0
DWIDTH 8 0
BBX 3 3 2 8
BITMAP
60
60
C0
ENDCHAR
STARTCHAR U+201A
ENCODING 8218
SWIDTH 500 0
DWIDTH 8 0
BBX 3 3 2 -1
BITMAP
60
60
C0
ENDCHAR
STARTCHAR U+201B
ENCODING 8219
SWIDTH 500 0
DWIDTH 8 0
BBX 3 3 2 8
BITMAP
C0
C0
60
ENDCHAR
STARTCHAR U+201C
ENCODING 8220
SWIDTH 500 0
DWIDTH 8 0
BBX 7 3 0 8
BITMAP
66
CC
CC
ENDCHAR
STARTCHAR U+201D
ENCODING 8221
SWIDTH 500 0
DWIDTH 8 0
BBX 7 3 0 8
BITMAP
66
66
CC
ENDCHAR
STARTCHAR U+201E
ENCODING 8222
SWIDTH 500 0
DWIDTH 8 0
BBX 7 3 0 -1
BITMAP
66
66
CC
ENDCHAR
STARTCHAR U+201F
ENCODING 8223
SWIDTH 500 0
DWIDTH 8 0
BBX 7 3 0 8
BITMAP
CC
CC
66
ENDCHAR
STARTCHAR U+2020
ENCODING 8224
SWIDTH 500 0
DWIDTH 8 0
BBX 6 11 1 0
BITMAP
30
30
30
FC
30
30
30
30
30
30
30
ENDCHAR
STARTCHAR U+2021
ENCODING 8225
SWIDTH 500 0
DWIDTH 8 0
BBX 6 11 1 0
BITMAP
30
30
30
FC
30
30
30
FC
30
30
30
ENDCHAR
STARTCHAR U+2022
ENCODING 8226
SWIDTH 500 0
DWIDTH 8 0
BBX 4 4 2 4
BITMAP
60
F0
F0
60
ENDCHAR
STARTCHAR U+2024
ENCODING 8228
SWIDTH 1000 0
DWIDTH 16 0
BBX 2 2 7 5
BITMAP
C0
C0
ENDCHAR
STARTCHAR U+2025
ENCODING 8229
SWIDTH 1000 0
DWIDTH 16 0
BBX 10 2 3 4
BITMAP
C0C0
C0C0
ENDCHAR
STARTCHAR U+2026
ENCODING 8230
SWIDTH 1000 0
DWIDTH 16 0
BBX 12 2 2 4
BITMAP
C630
C630
ENDCHAR
STARTCHAR U+2027
ENCODING 8231
SWIDTH 500 0
DWIDTH 8 0
BBX 2 2 3 5
BITMAP
C0
C0
ENDCHAR
STARTCHAR U+2030
ENCODING 8240
SWIDTH 500 0
DWIDTH 8 0
BBX 8 7 0 1
BITMAP
C6
CC
18
30
60
DB
1B
ENDCHAR
STARTCHAR U+2032
ENCODING 8242
SWIDTH 500 0
DWIDTH 8 0
BBX 4 3 2 8
BITMAP
30
60
C0
ENDCHAR
STARTCHAR U+2033
ENCODING 8243
SWIDTH 500 0
DWIDTH 8 0
BBX 7 3 0 8
BITMAP
36
6C
D8
ENDCHAR
STARTCHAR U+2035
ENCODING 8245
SWIDTH 500 0
DWIDTH 8 0
BBX 4 3 2 8
BITMAP
C0
60
30
ENDCHAR
STARTCHAR U+2039
ENCODING 8249
SWIDTH 500 0
DWIDTH 8 0
BBX 4 5 2 3
BITMAP
30
60
C0
60
30
ENDCHAR
STARTCHAR U+203A
ENCODING 8250
SWIDTH 500 0
DWIDTH 8 0
BBX 4 5 2 3
BITMAP
C0
60
30
60
C0
ENDCHAR
STARTCHAR U+203B
ENCODING 8251
SWIDTH 1000 0
DWIDTH 16 0
BBX 12 12 2 -1
BITMAP
8610
4620
2040
1080
0900
C630
C630
0900
1080
2040
4620
8610
ENDCHAR
STARTCHAR U+203C
ENCODING 8252
SWIDTH 500 0
DWIDTH 8 0
BBX 6 9 1 1
BITMAP
CC
CC
CC
CC
CC
CC
00
CC
CC
ENDCHAR
STARTCHAR U+203E
ENCODING 8254
SWIDTH 500 0
DWIDTH 8 0
BBX 6 1 1 10
BITMAP
FC
ENDCHAR
STARTCHAR U+203F
ENCODING 8255
SWIDTH 500 0
DWIDTH 8 0
BBX 7 2 0 -1
BITMAP
C6
7C
ENDCHAR
STARTCHAR U+2040
ENCODING 8256
SWIDTH 500 0
DWIDTH 8 0
BBX 7 2 0 9
BITMAP
7C
C6
ENDCHAR
STARTCHAR U+2044
ENCODING 8260
SWIDTH 500 0
DWIDTH 8 0
BBX 7 8 0 2
BITMAP
02
06
0C
18
30
60
C0
80
ENDCHAR
STARTCHAR U+2054
ENCODING 8276
SWIDTH 500 0
DWIDTH 8 0
BBX 7 2 0 -1
BITMAP
7C
C6
ENDCHAR
STARTCHAR U+2070
ENCODING 8304
SWIDTH 500 0
DWIDTH 8 0
BBX 5 6 0 5
BITMAP
70
D8
D8
D8
D8
70
ENDCHAR
STARTCHAR U+2074
ENCODING 8308
SWIDTH 500 0
DWIDTH 8 0
BBX 5 6 0 5
BITMAP
18
38
58
F8
18
18
ENDCHAR
STARTCHAR U+2075
ENCODING 8309
SWIDTH 500 0
DWIDTH 8 0
BBX 5 6 0 5
BITMAP
F8
C0
F0
18
18
F0
ENDCHAR
STARTCHAR U+2076
ENCODING 8310
SWIDTH 500 0
DWIDTH 8 0
BBX 5 6 0 5
BITMAP
70
C0
F0
D8
D8
70
ENDCHAR
STARTCHAR U+2077
ENCODING 8311
SWIDTH 500 0
DWIDTH 8 0
BBX 5 6 0 5
BITMAP
F8
18
30
60
60
60
ENDCHAR
STARTCHAR U+2078
ENCODING 8312
SWIDTH 500 0
DWIDTH 8 0
BBX 5 6 0 5
BITMAP
70
D8
70
D8
D8
70
ENDCHAR
STARTCHAR U+2079
ENCODING 8313
SWIDTH 500 0
DWIDTH 8 0
BBX 5 6 0 5
BITMAP
70
D8
D8
78
18
70
ENDCHAR
STARTCHAR U+207A
ENCODING 8314
SWIDTH 500 0
DWIDTH 8 0
BBX 6 5 0 6
BITMAP
30
30
FC
30
30
ENDCHAR
STARTCHAR U+207B
ENCODING 8315
SWIDTH 500 0
DWIDTH 8 0
BBX 5 1 1 8
BITMAP
F8
ENDCHAR
STARTCHAR U+207C
ENCODING 8316
SWIDTH 500 0
DWIDTH 8 0
BBX 5 3 1 7
BITMAP
F8
00
F8
ENDCHAR
STARTCHAR U+207F
ENCODING 8319
SWIDTH 500 0
DWIDTH 8 0
BBX 6 5 0 6
BITMAP
D8
6C
6C
6C
6C
ENDCHAR
STARTCHAR U+2080
ENCODING 8320
SWIDTH 500 0
DWIDTH 8 0
BBX 5 6 0 -1
BITMAP
70
D8
D8
D8
D8
70
ENDCHAR
STARTCHAR U+2081
ENCODING 8321
SWIDTH 500 0
DWIDTH 8 0
BBX 4 6 1 -1
BITMAP
60
E0
60
60
60
F0
ENDCHAR
STARTCHAR U+2082
ENCODING 8322
SWIDTH 500 0
DWIDTH 8 0
BBX 5 6 0 -1
BITMAP
70
D8
18
70
C0
F8
ENDCHAR
STARTCHAR U+2083
ENCODING 8323
SWIDTH 500 0
DWIDTH 8 0
BBX 5 6 0 -1
BITMAP
F0
18
70
18
18
F0
ENDCHAR
STARTCHAR U+2084
ENCODING 8324
SWIDTH 500 0
DWIDTH 8 0
BBX 5 6 0 -1
BITMAP
18
38
58
F8
18
18
ENDCHAR
STARTCHAR U+2085
ENCODING 8325
SWIDTH 500 0
DWIDTH 8 0
BBX 5 6 0 -1
BITMAP
F8
C0
F0
18
18
F0
ENDCHAR
STARTCHAR U+2086
ENCODING 8326
SWIDTH 500 0
DWIDTH 8 0
BBX 5 6 0 -1
BITMAP
70
C0
F0
D8
D8
70
ENDCHAR
STARTCHAR U+2087
ENCODING 8327
SWIDTH 500 0
DWIDTH 8 0
BBX 5 6 0 -1
BITMAP
F8
18
30
60
60
60
ENDCHAR
STARTCHAR U+2088
ENCODING 8328
SWIDTH 500 0
DWIDTH 8 0
BBX 5 6 0 -1
BITMAP
70
D8
70
D8
D8
70
ENDCHAR
STARTCHAR U+2089
ENCODING 8329
SWIDTH 500 0
DWIDTH 8 0
BBX 5 6 0 -1
BITMAP
70
D8
D8
78
18
70
ENDCHAR
STARTCHAR U+208A
ENCODING 8330
SWIDTH 500 0
DWIDTH 8 0
BBX 6 5 0 -1
BITMAP
30
30
FC
30
30
ENDCHAR
STARTCHAR U+208B
ENCODING 8331
SWIDTH 500 0
DWIDTH 8 0
BBX 5 1 1 1
BITMAP
F8
ENDCHAR
STARTCHAR U+208C
ENCODING 8332
SWIDTH 500 0
DWIDTH 8 0
BBX 5 3 1 0
BITMAP
F8
00
F8
ENDCHAR
STARTCHAR U+20A3
ENCODING 8355
SWIDTH 500 0
DWIDTH 8 0
BBX 7 10 0 1
BITMAP
FE
66
62
68
78
68
60
F0
60
60
ENDCHAR
STARTCHAR U+20A4
ENCODING 8356
SWIDTH 500 0
DWIDTH 8 0
BBX 7 10 0 1
BITMAP
38
6C
64
60
F8
60
F8
60
E6
FC
ENDCHAR
STARTCHAR U+20A7
ENCODING 8359
SWIDTH 500 0
DWIDTH 8 0
BBX 7 10 0 1
BITMAP
F8
CC
CC
F8
C4
CC
DE
CC
CC
C6
ENDCHAR
STARTCHAR U+20A9
ENCODING 8361
SWIDTH 500 0
DWIDTH 8 0
BBX 7 9 0 1
BITMAP
C6
D6
D6
FE
D6
D6
D6
EE
C6
ENDCHAR
STARTCHAR U+20AA
ENCODING 8362
SWIDTH 500 0
DWIDTH 8 0
BBX 7 7 0 2
BITMAP
FA
8A
AA
AA
AA
A2
BE
ENDCHAR
STARTCHAR U+20AC
ENCODING 8364
SWIDTH 500 0
DWIDTH 8 0
BBX 7 9 0 1
BITMAP
1C
36
60
FC
60
F8
60
36
1C
ENDCHAR
STARTCHAR U+2103
ENCODING 8451
SWIDTH 1000 0
DWIDTH 16 0
BBX 13 12 1 -1
BITMAP
6000
91F0
9318
6608
0600
0600
0600
0600
0600
0608
0318
01F0
ENDCHAR
STARTCHAR U+2105
ENCODING 8453
SWIDTH 500 0
DWIDTH 8 0
BBX 7 13 0 -1
BITMAP
60
D0
C0
D6
6C
18
30
60
DC
B6
36
36
1C
ENDCHAR
STARTCHAR U+2109
ENCODING 8457
SWIDTH 1000 0
DWIDTH 16 0
BBX 14 12 1 -1
BITMAP
6000
97FC
930C
630C
0300
0320
03E0
0320
0300
0300
0300
0780
ENDCHAR
STARTCHAR U+2113
ENCODING 8467
SWIDTH 500 0
DWIDTH 8 0
BBX 6 9 1 1
BITMAP
20
70
D8
D8
D8
70
60
B4
18
ENDCHAR
STARTCHAR U+2116
ENCODING 8470
SWIDTH 500 0
DWIDTH 8 0
BBX 8 9 0 1
BITMAP
CF
CD
ED
FF
DC
CF
CC
CC
CC
ENDCHAR
STARTCHAR U+2121
ENCODING 8481
SWIDTH 1000 0
DWIDTH 16 0
BBX 14 11 1 -1
BITMAP
FE18
9208
9208
1008
1188
1248
1428
17E8
1408
1228
39DC
ENDCHAR
STARTCHAR U+2122
ENCODING 8482
SWIDTH 500 0
DWIDTH 8 0
BBX 8 5 0 6
BITMAP
F1
5B
55
51
51
ENDCHAR
STARTCHAR U+2126
ENCODING 8486
SWIDTH 500 0
DWIDTH 8 0
BBX 7 9 0 1
BITMAP
38
6C
C6
C6
C6
C6
6C
6C
EE
ENDCHAR
STARTCHAR U+212B
ENCODING 8491
SWIDTH 1000 0
DWIDTH 16 0
BBX 11 12 2 -1
BITMAP
0E00
1100
0E00
0400
0E00
1B00
3180
60C0
7FC0
60C0
60C0
F1E0
ENDCHAR
STARTCHAR U+212E
ENCODING 8494
SWIDTH 500 0
DWIDTH 8 0
BBX 7 6 0 1
BITMAP
7C
C6
FE
C0
C6
7C
ENDCHAR
STARTCHAR U+2150
ENCODING 8528
SWIDTH 500 0
DWIDTH 8 0
BBX 7 10 0 1
BITMAP
60
62
64
68
70
3E
46
8C
18
18
ENDCHAR
STARTCHAR U+2151
ENCODING 8529
SWIDTH 500 0
DWIDTH 8 0
BBX 7 10 0 1
BITMAP
60
62
64
68
70
3C
76
9E
06
1C
ENDCHAR
STARTCHAR U+2153
ENCODING 8531
SWIDTH 500 0
DWIDTH 8 0
BBX 7 10 0 1
BITMAP
60
62
64
68
70
3C
46
8C
06
1C
ENDCHAR
STARTCHAR U+2154
ENCODING 8532
SWIDTH 500 0
DWIDTH 8 0
BBX 7 10 0 1
BITMAP
E0
32
64
C8
F0
3C
46
8C
06
1C
ENDCHAR
STARTCHAR U+2155
ENCODING 8533
SWIDTH 500 0
DWIDTH 8 0
BBX 7 10 0 1
BITMAP
60
62
64
68
70
3E
58
9C
06
1C
ENDCHAR
STARTCHAR U+2156
ENCODING 8534
SWIDTH 500 0
DWIDTH 8 0
BBX 7 10 0 1
BITMAP
E0
32
64
C8
F0
3E
58
9C
06
1C
ENDCHAR
STARTCHAR U+2157
ENCODING 8535
SWIDTH 500 0
DWIDTH 8 0
BBX 7 10 0 1
BITMAP
E0
32
64
38
F0
3E
58
9C
06
1C
ENDCHAR
STARTCHAR U+2158
ENCODING 8536
SWIDTH 500 0
DWIDTH 8 0
BBX 7 10 0 1
BITMAP
30
72
D4
F8
10
3E
58
9C
06
1C
ENDCHAR
STARTCHAR U+2159
ENCODING 8537
SWIDTH 500 0
DWIDTH 8 0
BBX 7 10 0 1
BITMAP
60
62
64
68
70
3C
70
BC
36
1C
ENDCHAR
STARTCHAR U+215A
ENCODING 8538
SWIDTH 500 0
DWIDTH 8 0
BBX 7 10 0 1
BITMAP
F0
C2
E4
38
F0
3C
70
BC
36
1C
ENDCHAR
STARTCHAR U+215B
ENCODING 8539
SWIDTH 500 0
DWIDTH 8 0
BBX 7 10 0 1
BITMAP
60
62
64
68
70
3C
76
9C
36
1C
ENDCHAR
STARTCHAR U+215C
ENCODING 8540
SWIDTH 500 0
DWIDTH 8 0
BBX 7 10 0 1
BITMAP
E0
32
64
38
F0
3C
76
9C
36
1C
ENDCHAR
STARTCHAR U+215D
ENCODING 8541
SWIDTH 500 0
DWIDTH 8 0
BBX 7 10 0 1
BITMAP
F0
C2
E4
38
F0
3C
76
9C
36
1C
ENDCHAR
STARTCHAR U+215E
ENCODING 8542
SWIDTH 500 0
DWIDTH 8 0
BBX 7 10 0 1
BITMAP
F0
32
64
C8
D0
3C
76
9C
36
1C
ENDCHAR
STARTCHAR U+215F
ENCODING 8543
SWIDTH 500 0
DWIDTH 8 0
BBX 7 8 0 3
BITMAP
60
62
64
68
70
20
40
80
ENDCHAR
STARTCHAR U+2160
ENCODING 8544
SWIDTH 1000 0
DWIDTH 16 0
BBX 5 13 5 -1
BITMAP
F8
20
20
20
20
20
20
20
20
20
20
20
F8
ENDCHAR
STARTCHAR U+2161
ENCODING 8545
SWIDTH 1000 0
DWIDTH 16 0
BBX 8 13 4 -1
BITMAP
FF
24
24
24
24
24
24
24
24
24
24
24
FF
ENDCHAR
STARTCHAR U+2162
ENCODING 8546
SWIDTH 1000 0
DWIDTH 16 0
BBX 9 13 3 -1
BITMAP
FF80
4900
4900
4900
4900
4900
4900
4900
4900
4900
4900
4900
FF80
ENDCHAR
STARTCHAR U+2163
ENCODING 8547
SWIDTH 1000 0
DWIDTH 16 0
BBX 14 13 1 -1
BITMAP
FE7C
2C10
2410
2410
2420
2220
2220
2220
2140
2140
2140
2080
F880
ENDCHAR
STARTCHAR U+2164
ENCODING 8548
SWIDTH 1000 0
DWIDTH 16 0
BBX 13 13 1 -1
BITMAP
F8F8
2020
2020
1040
1040
1040
0880
0880
0880
0500
0500
0200
0200
ENDCHAR
STARTCHAR U+2165
ENCODING 8549
SWIDTH 1000 0
DWIDTH 16 0
BBX 14 13 1 -1
BITMAP
F9FC
20D0
2090
2090
2090
1110
1110
1110
0A10
0A10
0A10
0410
047C
ENDCHAR
STARTCHAR U+2166
ENCODING 8550
SWIDTH 1000 0
DWIDTH 16 0
BBX 14 13 1 -1
BITMAP
F1FC
40C8
40C8
4148
2148
2148
2248
2248
1248
1448
1448
0848
08FC
ENDCHAR
STARTCHAR U+2167
ENCODING 8551
SWIDTH 1000 0
DWIDTH 16 0
BBX 14 13 1 -1
BITMAP
E3FC
41A8
41A8
41A8
22A8
22A8
22A8
22A8
14A8
14A8
14A8
08A8
09FC
ENDCHAR
STARTCHAR U+2168
ENCODING 8552
SWIDTH 1000 0
DWIDTH 16 0
BBX 14 13 1 -1
BITMAP
FE7C
2410
2410
2220
2220
2140
2080
2140
2220
2220
2410
2410
FE7C
ENDCHAR
STARTCHAR U+2169
ENCODING 8553
SWIDTH 1000 0
DWIDTH 16 0
BBX 14 13 1 -1
BITMAP
F87C
3030
1820
0840
0C80
0680
0300
0300
0580
08C0
1060
3030
F87C
ENDCHAR
STARTCHAR U+2170
ENCODING 8560
SWIDTH 1000 0
DWIDTH 16 0
BBX 3 13 6 -1
BITMAP
40
40
00
00
C0
40
40
40
40
40
40
40
E0
ENDCHAR
STARTCHAR U+2171
ENCODING 8561
SWIDTH 1000 0
DWIDTH 16 0
BBX 8 13 4 -1
BITMAP
42
42
00
00
C6
42
42
42
42
42
42
42
E7
ENDCHAR
STARTCHAR U+2172
ENCODING 8562
SWIDTH 1000 0
DWIDTH 16 0
BBX 11 13 2 -1
BITMAP
4440
4440
0000
0000
CCC0
4440
4440
4440
4440
4440
4440
4440
EEE0
ENDCHAR
STARTCHAR U+2173
ENCODING 8563
SWIDTH 1000 0
DWIDTH 16 0
BBX 13 13 2 -1
BITMAP
4000
4000
0000
0000
DC38
4810
4C20
4420
4640
4240
4380
4180
E100
ENDCHAR
STARTCHAR U+2174
ENCODING 8564
SWIDTH 1000 0
DWIDTH 16 0
BBX 10 9 3 -1
BITMAP
E1C0
4080
6100
2100
3200
1200
1C00
0C00
0800
ENDCHAR
STARTCHAR U+2175
ENCODING 8565
SWIDTH 1000 0
DWIDTH 16 0
BBX 14 13 1 -1
BITMAP
0008
0008
0000
0000
F1D8
6088
2088
3108
1108
1A08
0A08
0C08
041C
ENDCHAR
STARTCHAR U+2176
ENCODING 8566
SWIDTH 1000 0
DWIDTH 16 0
BBX 15 13 0 -1
BITMAP
0024
0024
0000
0000
E3EC
4124
4124
6224
2224
3424
1424
1824
087E
ENDCHAR
STARTCHAR U+2177
ENCODING 8567
SWIDTH 1000 0
DWIDTH 16 0
BBX 15 13 0 -1
BITMAP
0054
0054
0000
0000
E3D4
4154
6154
2254
3254
1454
1C54
0854
08FE
ENDCHAR
STARTCHAR U+2178
ENCODING 8568
SWIDTH 1000 0
DWIDTH 16 0
BBX 13 13 2 -1
BITMAP
4000
4000
0000
0000
CE38
4410
4220
4140
4080
4140
4220
4410
EE38
ENDCHAR
STARTCHAR U+2179
ENCODING 8569
SWIDTH 1000 0
DWIDTH 16 0
BBX 9 9 3 -1
BITMAP
E380
4100
2200
1400
0800
1400
2200
4100
E380
ENDCHAR
STARTCHAR U+2189
ENCODING 8585
SWIDTH 500 0
DWIDTH 8 0
BBX 7 10 0 1
BITMAP
60
B2
B4
B8
70
3C
46
8C
06
1C
ENDCHAR
STARTCHAR U+2190
ENCODING 8592
SWIDTH 1000 0
DWIDTH 16 0
BBX 12 7 2 1
BITMAP
1000
3000
6000
FFF0
6000
3000
1000
ENDCHAR
STARTCHAR U+2191
ENCODING 8593
SWIDTH 1000 0
DWIDTH 16 0
BBX 8 12 4 -1
BITMAP
18
3C
7E
DB
18
18
18
18
18
18
18
18
ENDCHAR
STARTCHAR U+2192
ENCODING 8594
SWIDTH 1000 0
DWIDTH 16 0
BBX 12 7 2 1
BITMAP
0080
00C0
0060
FFF0
0060
00C0
0080
ENDCHAR
STARTCHAR U+2193
ENCODING 8595
SWIDTH 1000 0
DWIDTH 16 0
BBX 8 12 4 -1
BITMAP
18
18
18
18
18
18
18
18
DB
7E
3C
18
ENDCHAR
STARTCHAR U+2194
ENCODING 8596
SWIDTH 1000 0
DWIDTH 16 0
BBX 14 7 1 1
BITMAP
1020
3030
6018
FFFC
6018
3030
1020
ENDCHAR
STARTCHAR U+2195
ENCODING 8597
SWIDTH 1000 0
DWIDTH 16 0
BBX 8 14 4 -2
BITMAP
18
3C
7E
DB
18
18
18
18
18
18
DB
7E
3C
18
ENDCHAR
STARTCHAR U+2196
ENCODING 8598
SWIDTH 1000 0
DWIDTH 16 0
BBX 12 12 2 -1
BITMAP
F000
C000
A000
9000
0800
0400
0200
0100
0080
0040
0020
0010
ENDCHAR
STARTCHAR U+2197
ENCODING 8599
SWIDTH 1000 0
DWIDTH 16 0
BBX 12 12 2 -1
BITMAP
00F0
0030
0050
0090
0100
0200
0400
0800
1000
2000
4000
8000
ENDCHAR
STARTCHAR U+2198
ENCODING 8600
SWIDTH 1000 0
DWIDTH 16 0
BBX 12 12 2 -1
BITMAP
8000
4000
2000
1000
0800
0400
0200
0100
0090
0050
0030
00F0
ENDCHAR
STARTCHAR U+2199
ENCODING 8601
SWIDTH 1000 0
DWIDTH 16 0
BBX 12 12 2 -1
BITMAP
0010
0020
0040
0080
0100
0200
0400
0800
9000
A000
C000
F000
ENDCHAR
STARTCHAR U+21A8
ENCODING 8616
SWIDTH 500 0
DWIDTH 8 0
BBX 6 10 1 0
BITMAP
30
78
FC
30
30
30
FC
78
30
FC
ENDCHAR
STARTCHAR U+21D2
ENCODING 8658
SWIDTH 1000 0
DWIDTH 16 0
BBX 14 9 1 0
BITMAP
0040
0020
FFF0
0008
0004
0008
FFF0
0020
0040
ENDCHAR
STARTCHAR U+21D4
ENCODING 8660
SWIDTH 1000 0
DWIDTH 16 0
BBX 14 9 1 0
BITMAP
0840
1020
3FF0
4008
8004
4008
3FF0
1020
0840
ENDCHAR
STARTCHAR U+2200
ENCODING 8704
SWIDTH 1000 0
DWIDTH 16 0
BBX 13 12 1 -1
BITMAP
C018
4010
6030
2020
3FE0
1040
18C0
0880
0D80
0500
0700
0200
ENDCHAR
STARTCHAR U+2202
ENCODING 8706
SWIDTH 500 0
DWIDTH 8 0
BBX 7 9 0 1
BITMAP
38
6C
06
06
3E
66
C6
CC
78
ENDCHAR
STARTCHAR U+2203
ENCODING 8707
SWIDTH 1000 0
DWIDTH 16 0
BBX 8 12 4 -1
BITMAP
FF
03
03
03
03
FF
03
03
03
03
03
FF
ENDCHAR
STARTCHAR U+2205
ENCODING 8709
SWIDTH 500 0
DWIDTH 8 0
BBX 8 9 0 1
BITMAP
03
06
7E
DB
DB
F3
7E
60
C0
ENDCHAR
STARTCHAR U+2206
ENCODING 8710
SWIDTH 500 0
DWIDTH 8 0
BBX 7 7 0 2
BITMAP
10
38
6C
C6
C6
C6
FE
ENDCHAR
STARTCHAR U+2207
ENCODING 8711
SWIDTH 1000 0
DWIDTH 16 0
BBX 12 7 2 1
BITMAP
FFF0
C030
6060
30C0
1980
0F00
0600
ENDCHAR
STARTCHAR U+2208
ENCODING 8712
SWIDTH 1000 0
DWIDTH 16 0
BBX 10 7 3 1
BITMAP
3FC0
4000
8000
FFC0
8000
4000
3FC0
ENDCHAR
STARTCHAR U+220B
ENCODING 8715
SWIDTH 1000 0
DWIDTH 16 0
BBX 10 7 3 1
BITMAP
FF00
0080
0040
FFC0
0040
0080
FF00
ENDCHAR
STARTCHAR U+220F
ENCODING 8719
SWIDTH 500 0
DWIDTH 8 0
BBX 7 10 0 0
BITMAP
FE
C6
C6
C6
C6
C6
C6
C6
C6
C6
ENDCHAR
STARTCHAR U+2211
ENCODING 8721
SWIDTH 500 0
DWIDTH 8 0
BBX 7 9 0 1
BITMAP
FE
C6
60
30
18
30
60
C6
FE
ENDCHAR
STARTCHAR U+2212
ENCODING 8722
SWIDTH 500 0
DWIDTH 8 0
BBX 7 1 0 5
BITMAP
FE
ENDCHAR
STARTCHAR U+2215
ENCODING 8725
SWIDTH 500 0
DWIDTH 8 0
BBX 7 8 0 2
BITMAP
02
06
0C
18
30
60
C0
80
ENDCHAR
STARTCHAR U+2219
ENCODING 8729
SWIDTH 500 0
DWIDTH 8 0
BBX 2 2 3 5
BITMAP
C0
C0
ENDCHAR
STARTCHAR U+221A
ENCODING 8730
SWIDTH 500 0
DWIDTH 8 0
BBX 8 10 0 1
BITMAP
0F
0C
0C
0C
0C
0C
EC
6C
3C
1C
ENDCHAR
STARTCHAR U+221D
ENCODING 8733
SWIDTH 1000 0
DWIDTH 16 0
BBX 13 7 1 1
BITMAP
3C78
4280
8100
8100
8100
4280
3C78
ENDCHAR
STARTCHAR U+221E
ENCODING 8734
SWIDTH 1000 0
DWIDTH 16 0
BBX 13 7 1 1
BITMAP
38E0
4510
8208
8208
8208
4510
38E0
ENDCHAR
STARTCHAR U+221F
ENCODING 8735
SWIDTH 500 0
DWIDTH 8 0
BBX 7 4 0 3
BITMAP
C0
C0
C0
FE
ENDCHAR
STARTCHAR U+2220
ENCODING 8736
SWIDTH 1000 0
DWIDTH 16 0
BBX 11 8 2 1
BITMAP
0180
0300
0600
0C00
1800
3000
6000
FFE0
ENDCHAR
STARTCHAR U+2225
ENCODING 8741
SWIDTH 500 0
DWIDTH 8 0
BBX 5 9 1 1
BITMAP
D8
D8
D8
D8
D8
D8
D8
D8
D8
ENDCHAR
STARTCHAR U+2227
ENCODING 8743
SWIDTH 1000 0
DWIDTH 16 0
BBX 13 7 1 1
BITMAP
0200
0500
0880
1040
2020
4010
8008
ENDCHAR
STARTCHAR U+2228
ENCODING 8744
SWIDTH 1000 0
DWIDTH 16 0
BBX 13 7 1 1
BITMAP
8008
4010
2020
1040
0880
0500
0200
ENDCHAR
STARTCHAR U+2229
ENCODING 8745
SWIDTH 1000 0
DWIDTH 16 0
BBX 10 9 3 0
BITMAP
3F00
4080
8040
8040
8040
8040
8040
8040
8040
ENDCHAR
STARTCHAR U+222A
ENCODING 8746
SWIDTH 1000 0
DWIDTH 16 0
BBX 10 9 3 0
BITMAP
8040
8040
8040
8040
8040
8040
8040
4080
3F00
ENDCHAR
STARTCHAR U+222B
ENCODING 8747
SWIDTH 500 0
DWIDTH 8 0
BBX 8 14 0 -2
BITMAP
0E
1B
1B
18
18
18
18
18
18
18
18
D8
D8
70
ENDCHAR
STARTCHAR U+222C
ENCODING 8748
SWIDTH 1000 0
DWIDTH 16 0
BBX 14 14 1 -2
BITMAP
0E38
1B6C
1B6C
1860
1860
1860
1860
1860
1860
1860
1860
DB60
DB60
71C0
ENDCHAR
STARTCHAR U+222E
ENCODING 8750
SWIDTH 500 0
DWIDTH 8 0
BBX 8 14 0 -2
BITMAP
0E
1B
1B
18
7E
DB
DB
DB
DB
7E
18
D8
D8
70
ENDCHAR
STARTCHAR U+2234
ENCODING 8756
SWIDTH 1000 0
DWIDTH 16 0
BBX 10 9 3 0
BITMAP
0C00
0C00
0000
0000
0000
0000
0000
C0C0
C0C0
ENDCHAR
STARTCHAR U+2235
ENCODING 8757
SWIDTH 1000 0
DWIDTH 16 0
BBX 10 9 3 0
BITMAP
C0C0
C0C0
0000
0000
0000
0000
0000
0C00
0C00
ENDCHAR
STARTCHAR U+223C
ENCODING 8764
SWIDTH 1000 0
DWIDTH 16 0
BBX 10 3 3 4
BITMAP
7800
CCC0
0780
ENDCHAR
STARTCHAR U+223D
ENCODING 8765
SWIDTH 1000 0
DWIDTH 16 0
BBX 14 7 1 1
BITMAP
3070
4088
8104
8104
8204
4208
3C30
ENDCHAR
STARTCHAR U+2248
ENCODING 8776
SWIDTH 500 0
DWIDTH 8 0
BBX 7 5 0 3
BITMAP
76
DC
00
76
DC
ENDCHAR
STARTCHAR U+2252
ENCODING 8786
SWIDTH 1000 0
DWIDTH 16 0
BBX 12 9 2 0
BITMAP
6000
6000
0000
FFF0
0000
FFF0
0000
0060
0060
ENDCHAR
STARTCHAR U+2260
ENCODING 8800
SWIDTH 500 0
DWIDTH 8 0
BBX 7 8 0 1
BITMAP
06
0C
FE
18
30
FE
60
C0
ENDCHAR
STARTCHAR U+2261
ENCODING 8801
SWIDTH 500 0
DWIDTH 8 0
BBX 7 7 0 2
BITMAP
FE
00
00
FE
00
00
FE
ENDCHAR
STARTCHAR U+2264
ENCODING 8804
SWIDTH 500 0
DWIDTH 8 0
BBX 6 9 1 1
BITMAP
18
30
60
C0
60
30
18
00
FC
ENDCHAR
STARTCHAR U+2265
ENCODING 8805
SWIDTH 500 0
DWIDTH 8 0
BBX 6 9 1 1
BITMAP
60
30
18
0C
18
30
60
00
FC
ENDCHAR
STARTCHAR U+226A
ENCODING 8810
SWIDTH 1000 0
DWIDTH 16 0
BBX 13 7 1 1
BITMAP
0318
0C60
3180
C600
3180
0C60
0318
ENDCHAR
STARTCHAR U+226B
ENCODING 8811
SWIDTH 1000 0
DWIDTH 16 0
BBX 13 7 1 1
BITMAP
C600
3180
0C60
0318
0C60
3180
C600
ENDCHAR
STARTCHAR U+2282
ENCODING 8834
SWIDTH 1000 0
DWIDTH 16 0
BBX 10 7 3 1
BITMAP
3FC0
4000
8000
8000
8000
4000
3FC0
ENDCHAR
STARTCHAR U+2283
ENCODING 8835
SWIDTH 1000 0
DWIDTH 16 0
BBX 10 7 3 1
BITMAP
FF00
0080
0040
0040
0040
0080
FF00
ENDCHAR
STARTCHAR U+2286
ENCODING 8838
SWIDTH 1000 0
DWIDTH 16 0
BBX 10 8 3 1
BITMAP
3FC0
4000
8000
8000
4000
3FC0
0000
FFC0
ENDCHAR
STARTCHAR U+2287
ENCODING 8839
SWIDTH 1000 0
DWIDTH 16 0
BBX 10 8 3 1
BITMAP
FF00
0080
0040
0040
0080
FF00
0000
FFC0
ENDCHAR
STARTCHAR U+2299
ENCODING 8857
SWIDTH 1000 0
DWIDTH 16 0
BBX 12 12 2 -1
BITMAP
0F00
30C0
4020
4F20
9F90
9F90
9F90
9F90
4F20
4020
30C0
0F00
ENDCHAR
STARTCHAR U+22A5
ENCODING 8869
SWIDTH 1000 0
DWIDTH 16 0
BBX 12 8 2 1
BITMAP
0600
0600
0600
0600
0600
0600
0600
FFF0
ENDCHAR
STARTCHAR U+2300
ENCODING 8960
SWIDTH 500 0
DWIDTH 8 0
BBX 7 9 0 1
BITMAP
38
6C
C6
CE
D6
E6
C6
6C
38
ENDCHAR
STARTCHAR U+2302
ENCODING 8962
SWIDTH 500 0
DWIDTH 8 0
BBX 7 6 0 2
BITMAP
10
38
6C
C6
C6
FE
ENDCHAR
STARTCHAR U+2310
ENCODING 8976
SWIDTH 500 0
DWIDTH 8 0
BBX 7 4 0 2
BITMAP
FE
C0
C0
C0
ENDCHAR
STARTCHAR U+2312
ENCODING 8978
SWIDTH 1000 0
DWIDTH 16 0
BBX 10 3 3 5
BITMAP
1E00
7380
C0C0
ENDCHAR
STARTCHAR U+2320
ENCODING 8992
SWIDTH 500 0
DWIDTH 8 0
BBX 5 12 3 -2
BITMAP
70
D8
D8
C0
C0
C0
C0
C0
C0
C0
C0
C0
ENDCHAR
STARTCHAR U+2321
ENCODING 8993
SWIDTH 500 0
DWIDTH 8 0
BBX 5 11 0 1
BITMAP
18
18
18
18
18
18
18
18
D8
D8
70
ENDCHAR
STARTCHAR U+2460
ENCODING 9312
SWIDTH 1000 0
DWIDTH 16 0
BBX 14 14 1 -2
BITMAP
0780
1860
2110
4308
4508
8104
8104
8104
8104
4108
47C8
2010
1860
0780
ENDCHAR
STARTCHAR U+2461
ENCODING 9313
SWIDTH 1000 0
DWIDTH 16 0
BBX 14 14 1 -2
BITMAP
0780
1860
2010
4788
4848
8844
8084
8104
8204
4408
4FC8
2010
1860
0780
ENDCHAR
STARTCHAR U+2462
ENCODING 9314
SWIDTH 1000 0
DWIDTH 16 0
BBX 14 14 1 -2
BITMAP
0780
1860
2010
4788
4848
8044
8384
8044
8044
4848
4788
2010
1860
0780
ENDCHAR
STARTCHAR U+2463
ENCODING 9315
SWIDTH 1000 0
DWIDTH 16 0
BBX 14 14 1 -2
BITMAP
0780
1860
2010
4088
4188
8284
8484
8884
8FE4
4088
4088
2010
1860
0780
ENDCHAR
STARTCHAR U+2464
ENCODING 9316
SWIDTH 1000 0
DWIDTH 16 0
BBX 14 14 1 -2
BITMAP
0780
1860
2010
4FC8
4808
8804
8F84
8844
8044
4848
4788
2010
1860
0780
ENDCHAR
STARTCHAR U+2465
ENCODING 9317
SWIDTH 1000 0
DWIDTH 16 0
BBX 14 14 1 -2
BITMAP
0780
1860
2010
4788
4848
8804
8B84
8C44
8844
4848
4788
2010
1860
0780
ENDCHAR
STARTCHAR U+2466
ENCODING 9318
SWIDTH 1000 0
DWIDTH 16 0
BBX 14 14 1 -2
BITMAP
0780
1860
2010
4FC8
4848
8884
8084
8104
8104
4208
4208
2210
1860
0780
ENDCHAR
STARTCHAR U+2467
ENCODING 9319
SWIDTH 1000 0
DWIDTH 16 0
BBX 14 14 1 -2
BITMAP
0780
1860
2010
4788
4848
8844
8784
8844
8844
4848
4788
2010
1860
0780
ENDCHAR
STARTCHAR U+2468
ENCODING 9320
SWIDTH 1000 0
DWIDTH 16 0
BBX 14 14 1 -2
BITMAP
0780
1860
2010
4788
4848
8844
8844
87C4
8044
4848
4788
2010
1860
0780
ENDCHAR
STARTCHAR U+2469
ENCODING 9321
SWIDTH 1000 0
DWIDTH 16 0
BBX 14 14 1 -2
BITMAP
0780
1860
2010
48C8
5928
8924
8924
8924
8924
4928
5CC8
2010
1860
0780
ENDCHAR
STARTCHAR U+246A
ENCODING 9322
SWIDTH 1000 0
DWIDTH 16 0
BBX 14 14 1 -2
BITMAP
0780
1860
2010
4888
5988
8884
8884
8884
8884
4888
5DC8
2010
1860
0780
ENDCHAR
STARTCHAR U+246B
ENCODING 9323
SWIDTH 1000 0
DWIDTH 16 0
BBX 14 14 1 -2
BITMAP
0780
1860
2010
48C8
5928
8924
8824
8844
8884
4908
5DE8
2010
1860
0780
ENDCHAR
STARTCHAR U+246C
ENCODING 9324
SWIDTH 1000 0
DWIDTH 16 0
BBX 14 14 1 -2
BITMAP
0780
1860
2010
48C8
5928
8824
88C4
8824
8824
4928
5CC8
2010
1860
0780
ENDCHAR
STARTCHAR U+246D
ENCODING 9325
SWIDTH 1000 0
DWIDTH 16 0
BBX 14 14 1 -2
BITMAP
0780
1860
2010
4848
58C8
8944
8944
8A44
8BE4
4848
5CE8
2010
1860
0780
ENDCHAR
STARTCHAR U+246E
ENCODING 9326
SWIDTH 1000 0
DWIDTH 16 0
BBX 14 14 1 -2
BITMAP
0780
1860
2010
49E8
5908
8904
89C4
8924
8824
4928
5CC8
2010
1860
0780
ENDCHAR
STARTCHAR U+2474
ENCODING 9332
SWIDTH 1000 0
DWIDTH 16 0
BBX 14 12 1 -1
BITMAP
2010
4008
8104
8304
8504
8104
8104
8104
8104
8104
47C8
2010
ENDCHAR
STARTCHAR U+2475
ENCODING 9333
SWIDTH 1000 0
DWIDTH 16 0
BBX 14 12 1 -1
BITMAP
2010
4008
8784
8844
8844
8084
8104
8204
8404
8FC4
4008
2010
ENDCHAR
STARTCHAR U+2476
ENCODING 9334
SWIDTH 1000 0
DWIDTH 16 0
BBX 14 12 1 -1
BITMAP
2010
4008
8784
8844
8044
8384
8044
8044
8844
8784
4008
2010
ENDCHAR
STARTCHAR U+2477
ENCODING 9335
SWIDTH 1000 0
DWIDTH 16 0
BBX 14 12 1 -1
BITMAP
2010
4008
8084
8184
8284
8484
8884
8FE4
8084
8084
4008
2010
ENDCHAR
STARTCHAR U+2478
ENCODING 9336
SWIDTH 1000 0
DWIDTH 16 0
BBX 14 12 1 -1
BITMAP
2010
4008
8FC4
8804
8804
8F84
8044
8044
8844
8784
4008
2010
ENDCHAR
STARTCHAR U+2479
ENCODING 9337
SWIDTH 1000 0
DWIDTH 16 0
BBX 14 12 1 -1
BITMAP
2010
4008
8784
8844
8804
8B84
8C44
8844
8844
8784
4008
2010
ENDCHAR
STARTCHAR U+247A
ENCODING 9338
SWIDTH 1000 0
DWIDTH 16 0
BBX 14 12 1 -1
BITMAP
2010
4008
9FC4
9044
9084
8084
8104
8104
8204
8204
4208
2010
ENDCHAR
STARTCHAR U+247B
ENCODING 9339
SWIDTH 1000 0
DWIDTH 16 0
BBX 14 12 1 -1
BITMAP
2010
4008
8784
8844
8844
8784
8844
8844
8844
8784
4008
2010
ENDCHAR
STARTCHAR U+247C
ENCODING 9340
SWIDTH 1000 0
DWIDTH 16 0
BBX 14 12 1 -1
BITMAP
2010
4008
8784
8844
8844
8844
87C4
8044
8844
8784
4008
2010
ENDCHAR
STARTCHAR U+247D
ENCODING 9341
SWIDTH 1000 0
DWIDTH 16 0
BBX 14 12 1 -1
BITMAP
2010
4008
88C4
9924
8924
8924
8924
8924
8924
9CC4
4008
2010
ENDCHAR
STARTCHAR U+247E
ENCODING 9342
SWIDTH 1000 0
DWIDTH 16 0
BBX 14 12 1 -1
BITMAP
2010
4008
8844
98C4
8844
8844
8844
8844
8844
9CE4
4008
2010
ENDCHAR
STARTCHAR U+247F
ENCODING 9343
SWIDTH 1000 0
DWIDTH 16 0
BBX 14 12 1 -1
BITMAP
2010
4008
88C4
9924
8824
8824
8844
8884
8904
9DE4
4008
2010
ENDCHAR
STARTCHAR U+2480
ENCODING 9344
SWIDTH 1000 0
DWIDTH 16 0
BBX 14 12 1 -1
BITMAP
2010
4008
88C4
9924
8824
88C4
8824
8824
8924
9CC4
4008
2010
ENDCHAR
STARTCHAR U+2481
ENCODING 9345
SWIDTH 1000 0
DWIDTH 16 0
BBX 14 12 1 -1
BITMAP
2010
4008
8844
98C4
8944
8944
8A44
8BE4
8844
9C44
4008
2010
ENDCHAR
STARTCHAR U+2482
ENCODING 9346
SWIDTH 1000 0
DWIDTH 16 0
BBX 14 12 1 -1
BITMAP
2010
4008
89E4
9904
8904
89C4
8824
8824
8824
9DC4
4008
2010
ENDCHAR
STARTCHAR U+249C
ENCODING 9372
SWIDTH 1000 0
DWIDTH 16 0
BBX 14 12 1 -1
BITMAP
2010
4008
8784
8844
8044
8FC4
9044
9044
90C4
8F24
4008
2010
ENDCHAR
STARTCHAR U+249D
ENCODING 9373
SWIDTH 1000 0
DWIDTH 16 0
BBX 14 12 1 -1
BITMAP
2C10
4408
8404
8404
85C4
8624
8424
8424
8424
8624
45C8
2010
ENDCHAR
STARTCHAR U+249E
ENCODING 9374
SWIDTH 1000 0
DWIDTH 16 0
BBX 14 12 1 -1
BITMAP
2010
4008
8004
8384
8444
8804
8804
8804
8444
8384
4008
2010
ENDCHAR
STARTCHAR U+249F
ENCODING 9375
SWIDTH 1000 0
DWIDTH 16 0
BBX 14 12 1 -1
BITMAP
2190
4088
8084
8084
8E84
9184
9084
9084
9084
9184
4EC8
2010
ENDCHAR
STARTCHAR U+24A0
ENCODING 9376
SWIDTH 1000 0
DWIDTH 16 0
BBX 14 12 1 -1
BITMAP
2010
4008
8304
8484
8844
8FC4
8804
8804
8444
8384
4008
2010
ENDCHAR
STARTCHAR U+24A1
ENCODING 9377
SWIDTH 1000 0
DWIDTH 16 0
BBX 14 12 1 -1
BITMAP
2190
4248
8204
8204
8F84
8204
8204
8204
8204
8204
4708
2010
ENDCHAR
STARTCHAR U+24A2
ENCODING 9378
SWIDTH 1000 0
DWIDTH 16 0
BBX 14 12 1 -1
BITMAP
2010
4008
8744
8884
8884
8704
8404
8784
8844
8844
4788
2010
ENDCHAR
STARTCHAR U+24A3
ENCODING 9379
SWIDTH 1000 0
DWIDTH 16 0
BBX 14 12 1 -1
BITMAP
2C10
4408
8404
8404
8404
85C4
8624
8424
8424
8424
4C28
2010
ENDCHAR
STARTCHAR U+24A4
ENCODING 9380
SWIDTH 1000 0
DWIDTH 16 0
BBX 14 12 1 -1
BITMAP
2010
4108
8104
8004
8304
8104
8104
8104
8104
8104
4388
2010
ENDCHAR
STARTCHAR U+24A5
ENCODING 9381
SWIDTH 1000 0
DWIDTH 16 0
BBX 14 12 1 -1
BITMAP
2010
4108
8104
8004
8304
8104
8104
8104
8104
8904
4608
2010
ENDCHAR
STARTCHAR U+24A6
ENCODING 9382
SWIDTH 1000 0
DWIDTH 16 0
BBX 14 12 1 -1
BITMAP
2C10
4408
8404
8424
8444
8484
8504
8704
8484
8444
4E28
2010
ENDCHAR
STARTCHAR U+24A7
ENCODING 9383
SWIDTH 1000 0
DWIDTH 16 0
BBX 14 12 1 -1
BITMAP
2010
4308
8104
8104
8104
8104
8104
8104
8104
8104
4388
2010
ENDCHAR
STARTCHAR U+24A8
ENCODING 9384
SWIDTH 1000 0
DWIDTH 16 0
BBX 14 12 1 -1
BITMAP
2010
4008
96C4
8924
8924
8924
8924
8924
8924
8924
4008
2010
ENDCHAR
STARTCHAR U+24A9
ENCODING 9385
SWIDTH 1000 0
DWIDTH 16 0
BBX 14 12 1 -1
BITMAP
2010
4008
9B84
8C44
8844
8844
8844
8844
8844
9CE4
4008
2010
ENDCHAR
STARTCHAR U+24AA
ENCODING 9386
SWIDTH 1000 0
DWIDTH 16 0
BBX 14 12 1 -1
BITMAP
2010
4008
8004
8384
8444
8824
8824
8824
8444
8384
4008
2010
ENDCHAR
STARTCHAR U+24AB
ENCODING 9387
SWIDTH 1000 0
DWIDTH 16 0
BBX 14 12 1 -1
BITMAP
2010
4D88
8644
8424
8424
8424
8624
85C4
8404
8404
4E08
2010
ENDCHAR
STARTCHAR U+24AC
ENCODING 9388
SWIDTH 1000 0
DWIDTH 16 0
BBX 14 12 1 -1
BITMAP
2010
46C8
8984
9084
9084
9084
9184
8E84
8084
8084
41C8
2010
ENDCHAR
STARTCHAR U+24AD
ENCODING 9389
SWIDTH 1000 0
DWIDTH 16 0
BBX 14 12 1 -1
BITMAP
2010
4008
8004
8CC4
8324
8224
8204
8204
8204
8704
4008
2010
ENDCHAR
STARTCHAR U+24AE
ENCODING 9390
SWIDTH 1000 0
DWIDTH 16 0
BBX 14 12 1 -1
BITMAP
2010
4008
8784
8844
8804
8804
8784
8044
8044
8844
4788
2010
ENDCHAR
STARTCHAR U+24AF
ENCODING 9391
SWIDTH 1000 0
DWIDTH 16 0
BBX 14 12 1 -1
BITMAP
2010
4208
8204
8204
8F84
8204
8204
8204
8204
8244
4188
2010
ENDCHAR
STARTCHAR U+24B0
ENCODING 9392
SWIDTH 1000 0
DWIDTH 16 0
BBX 14 12 1 -1
BITMAP
2010
4008
8004
98C4
8844
8844
8844
8844
8844
87B4
4008
2010
ENDCHAR
STARTCHAR U+24B1
ENCODING 9393
SWIDTH 1000 0
DWIDTH 16 0
BBX 14 12 1 -1
BITMAP
2010
4008
8004
B8E4
9044
8884
8884
8504
8504
8204
4208
2010
ENDCHAR
STARTCHAR U+24B2
ENCODING 9394
SWIDTH 1000 0
DWIDTH 16 0
BBX 14 12 1 -1
BITMAP
2010
4008
8004
B81C
9114
9114
89A4
8AA4
8AA4
8444
4448
2010
ENDCHAR
STARTCHAR U+24B3
ENCODING 9395
SWIDTH 1000 0
DWIDTH 16 0
BBX 14 12 1 -1
BITMAP
2010
4008
8004
8C64
8444
8284
8104
8284
8444
8C64
4008
2010
ENDCHAR
STARTCHAR U+24B4
ENCODING 9396
SWIDTH 1000 0
DWIDTH 16 0
BBX 14 12 1 -1
BITMAP
2010
4008
8E34
8424
8424
8244
8244
8184
8084
8104
4208
2C10
ENDCHAR
STARTCHAR U+24B5
ENCODING 9397
SWIDTH 1000 0
DWIDTH 16 0
BBX 14 12 1 -1
BITMAP
2010
4008
8FC4
8844
8884
8104
8204
8444
8844
8FC4
4008
2010
ENDCHAR
STARTCHAR U+24D0
ENCODING 9424
SWIDTH 1000 0
DWIDTH 16 0
BBX 14 14 1 -2
BITMAP
0780
1860
2010
4388
4448
8044
87C4
8844
8844
48C8
4768
2010
1860
0780
ENDCHAR
STARTCHAR U+24D1
ENCODING 9425
SWIDTH 1000 0
DWIDTH 16 0
BBX 14 14 1 -2
BITMAP
0780
1860
2C10
4408
4408
85C4
8624
8424
8424
4628
45C8
2010
1860
0780
ENDCHAR
STARTCHAR U+24D2
ENCODING 9426
SWIDTH 1000 0
DWIDTH 16 0
BBX 14 14 1 -2
BITMAP
0780
1860
2010
4008
4388
8444
8804
8804
8804
4448
4388
2010
1860
0780
ENDCHAR
STARTCHAR U+24D3
ENCODING 9427
SWIDTH 1000 0
DWIDTH 16 0
BBX 14 14 1 -2
BITMAP
0780
1860
2190
4088
4088
8E84
9184
9084
9084
5188
4EC8
2010
1860
0780
ENDCHAR
STARTCHAR U+24D4
ENCODING 9428
SWIDTH 1000 0
DWIDTH 16 0
BBX 14 14 1 -2
BITMAP
0780
1860
2010
4308
4488
8844
8FC4
8804
8804
4448
4388
2010
1860
0780
ENDCHAR
STARTCHAR U+24D5
ENCODING 9429
SWIDTH 1000 0
DWIDTH 16 0
BBX 14 14 1 -2
BITMAP
0780
1860
2190
4248
4208
8204
8F84
8204
8204
4208
4208
2710
1860
0780
ENDCHAR
STARTCHAR U+24D6
ENCODING 9430
SWIDTH 1000 0
DWIDTH 16 0
BBX 14 14 1 -2
BITMAP
0780
1860
2010
4748
4888
8884
8704
8404
8784
4848
4848
2790
1860
0780
ENDCHAR
STARTCHAR U+24D7
ENCODING 9431
SWIDTH 1000 0
DWIDTH 16 0
BBX 14 14 1 -2
BITMAP
0780
1860
2810
4808
4808
8B84
8C44
8844
8844
4848
4848
2010
1860
0780
ENDCHAR
STARTCHAR U+24D8
ENCODING 9432
SWIDTH 1000 0
DWIDTH 16 0
BBX 14 14 1 -2
BITMAP
0780
1860
2110
4108
4008
8304
8104
8104
8104
4108
4108
2390
1860
0780
ENDCHAR
STARTCHAR U+24D9
ENCODING 9433
SWIDTH 1000 0
DWIDTH 16 0
BBX 14 14 1 -2
BITMAP
0780
1860
2110
4108
4008
8304
8104
8104
8104
4108
4908
2610
1860
0780
ENDCHAR
STARTCHAR U+24DA
ENCODING 9434
SWIDTH 1000 0
DWIDTH 16 0
BBX 14 14 1 -2
BITMAP
0780
1860
2C10
4408
4408
8464
8484
8504
8704
4488
4448
2430
1860
0780
ENDCHAR
STARTCHAR U+24DB
ENCODING 9435
SWIDTH 1000 0
DWIDTH 16 0
BBX 14 14 1 -2
BITMAP
0780
1860
2310
4108
4108
8104
8104
8104
8104
4108
4108
2390
1860
0780
ENDCHAR
STARTCHAR U+24DC
ENCODING 9436
SWIDTH 1000 0
DWIDTH 16 0
BBX 14 14 1 -2
BITMAP
0780
1860
2010
4008
56C8
8924
8924
8924
8924
4928
4928
2010
1860
0780
ENDCHAR
STARTCHAR U+24DD
ENCODING 9437
SWIDTH 1000 0
DWIDTH 16 0
BBX 14 14 1 -2
BITMAP
0780
1860
2010
4008
5B88
8C44
8844
8844
8844
4848
5CE8
2010
1860
0780
ENDCHAR
STARTCHAR U+24DE
ENCODING 9438
SWIDTH 1000 0
DWIDTH 16 0
BBX 14 14 1 -2
BITMAP
0780
1860
2010
4008
4388
8444
8824
8824
8824
4448
4388
2010
1860
0780
ENDCHAR
STARTCHAR U+24DF
ENCODING 9439
SWIDTH 1000 0
DWIDTH 16 0
BBX 14 14 1 -2
BITMAP
0780
1860
2010
4D88
4648
8424
8424
8424
8624
45C8
4408
2610
1860
0780
ENDCHAR
STARTCHAR U+24E0
ENCODING 9440
SWIDTH 1000 0
DWIDTH 16 0
BBX 14 14 1 -2
BITMAP
0780
1860
2010
46C8
4988
9084
9084
9084
9184
4E88
4088
21D0
1860
0780
ENDCHAR
STARTCHAR U+24E1
ENCODING 9441
SWIDTH 1000 0
DWIDTH 16 0
BBX 14 14 1 -2
BITMAP
0780
1860
2010
4008
5988
8644
8444
8404
8404
4408
4E08
2010
1860
0780
ENDCHAR
STARTCHAR U+24E2
ENCODING 9442
SWIDTH 1000 0
DWIDTH 16 0
BBX 14 14 1 -2
BITMAP
0780
1860
2010
4008
4788
8844
8804
8784
8044
4848
4788
2010
1860
0780
ENDCHAR
STARTCHAR U+24E3
ENCODING 9443
SWIDTH 1000 0
DWIDTH 16 0
BBX 14 14 1 -2
BITMAP
0780
1860
2210
4208
4208
8F84
8204
8204
8204
4208
4248
2190
1860
0780
ENDCHAR
STARTCHAR U+24E4
ENCODING 9444
SWIDTH 1000 0
DWIDTH 16 0
BBX 14 14 1 -2
BITMAP
0780
1860
2010
4008
5988
8884
8884
8884
8884
4888
4768
2010
1860
0780
ENDCHAR
STARTCHAR U+24E5
ENCODING 9445
SWIDTH 1000 0
DWIDTH 16 0
BBX 14 14 1 -2
BITMAP
0780
1860
2010
4008
5CE8
8844
8444
8484
8284
4308
4108
2010
1860
0780
ENDCHAR
STARTCHAR U+24E6
ENCODING 9446
SWIDTH 1000 0
DWIDTH 16 0
BBX 14 14 1 -2
BITMAP
0780
1860
2010
4008
7BB8
9114
9194
8AA4
8AA4
4448
4448
2010
1860
0780
ENDCHAR
STARTCHAR U+24E7
ENCODING 9447
SWIDTH 1000 0
DWIDTH 16 0
BBX 14 14 1 -2
BITMAP
0780
1860
2010
4008
4E68
8444
8284
8104
8284
4448
4CE8
2010
1860
0780
ENDCHAR
STARTCHAR U+24E8
ENCODING 9448
SWIDTH 1000 0
DWIDTH 16 0
BBX 14 14 1 -2
BITMAP
0780
1860
2010
4E38
4428
8424
8244
8244
8184
4088
4108
2A10
1C60
0780
ENDCHAR
STARTCHAR U+24E9
ENCODING 9449
SWIDTH 1000 0
DWIDTH 16 0
BBX 14 14 1 -2
BITMAP
0780
1860
2010
4FC8
4848
8884
8104
8204
8444
4848
4FC8
2010
1860
0780
ENDCHAR
STARTCHAR U+2500
ENCODING 9472
SWIDTH 500 0
DWIDTH 8 0
BBX 8 1 0 5
BITMAP
FF
ENDCHAR
STARTCHAR U+2501
ENCODING 9473
SWIDTH 500 0
DWIDTH 8 0
BBX 8 2 0 4
BITMAP
FF
FF
ENDCHAR
STARTCHAR U+2502
ENCODING 9474
SWIDTH 500 0
DWIDTH 8 0
BBX 1 16 3 -3
BITMAP
80
80
80
80
80
80
80
80
80
80
80
80
80
80
80
80
ENDCHAR
STARTCHAR U+2503
ENCODING 9475
SWIDTH 500 0
DWIDTH 8 0
BBX 2 16 3 -3
BITMAP
C0
C0
C0
C0
C0
C0
C0
C0
C0
C0
C0
C0
C0
C0
C0
C0
ENDCHAR
STARTCHAR U+250C
ENCODING 9484
SWIDTH 500 0
DWIDTH 8 0
BBX 5 9 3 -3
BITMAP
F8
80
80
80
80
80
80
80
80
ENDCHAR
STARTCHAR U+250D
ENCODING 9485
SWIDTH 500 0
DWIDTH 8 0
BBX 5 9 3 -3
BITMAP
F8
F8
80
80
80
80
80
80
80
ENDCHAR
STARTCHAR U+250E
ENCODING 9486
SWIDTH 500 0
DWIDTH 8 0
BBX 5 9 3 -3
BITMAP
F8
C0
C0
C0
C0
C0
C0
C0
C0
ENDCHAR
STARTCHAR U+250F
ENCODING 9487
SWIDTH 500 0
DWIDTH 8 0
BBX 5 9 3 -3
BITMAP
F8
F8
C0
C0
C0
C0
C0
C0
C0
ENDCHAR
STARTCHAR U+2510
ENCODING 9488
SWIDTH 500 0
DWIDTH 8 0
BBX 4 9 0 -3
BITMAP
F0
10
10
10
10
10
10
10
10
ENDCHAR
STARTCHAR U+2511
ENCODING 9489
SWIDTH 500 0
DWIDTH 8 0
BBX 4 9 0 -3
BITMAP
F0
F0
10
10
10
10
10
10
10
ENDCHAR
STARTCHAR U+2512
ENCODING 9490
SWIDTH 500 0
DWIDTH 8 0
BBX 5 9 0 -3
BITMAP
F8
18
18
18
18
18
18
18
18
ENDCHAR
STARTCHAR U+2513
ENCODING 9491
SWIDTH 500 0
DWIDTH 8 0
BBX 5 9 0 -3
BITMAP
F8
F8
18
18
18
18
18
18
18
ENDCHAR
STARTCHAR U+2514
ENCODING 9492
SWIDTH 500 0
DWIDTH 8 0
BBX 5 8 3 5
BITMAP
80
80
80
80
80
80
80
F8
ENDCHAR
STARTCHAR U+2515
ENCODING 9493
SWIDTH 500 0
DWIDTH 8 0
BBX 5 9 3 4
BITMAP
80
80
80
80
80
80
80
F8
F8
ENDCHAR
STARTCHAR U+2516
ENCODING 9494
SWIDTH 500 0
DWIDTH 8 0
BBX 5 8 3 5
BITMAP
C0
C0
C0
C0
C0
C0
C0
F8
ENDCHAR
STARTCHAR U+2517
ENCODING 9495
SWIDTH 500 0
DWIDTH 8 0
BBX 5 9 3 4
BITMAP
C0
C0
C0
C0
C0
C0
C0
F8
F8
ENDCHAR
STARTCHAR U+2518
ENCODING 9496
SWIDTH 500 0
DWIDTH 8 0
BBX 4 8 0 5
BITMAP
10
10
10
10
10
10
10
F0
ENDCHAR
STARTCHAR U+2519
ENCODING 9497
SWIDTH 500 0
DWIDTH 8 0
BBX 4 9 0 4
BITMAP
10
10
10
10
10
10
10
F0
F0
ENDCHAR
STARTCHAR U+251A
ENCODING 9498
SWIDTH 500 0
DWIDTH 8 0
BBX 5 8 0 5
BITMAP
18
18
18
18
18
18
18
F8
ENDCHAR
STARTCHAR U+251B
ENCODING 9499
SWIDTH 500 0
DWIDTH 8 0
BBX 5 9 0 4
BITMAP
18
18
18
18
18
18
18
F8
F8
ENDCHAR
STARTCHAR U+251C
ENCODING 9500
SWIDTH 500 0
DWIDTH 8 0
BBX 5 16 3 -3
BITMAP
80
80
80
80
80
80
80
F8
80
80
80
80
80
80
80
80
ENDCHAR
STARTCHAR U+251D
ENCODING 9501
SWIDTH 500 0
DWIDTH 8 0
BBX 5 16 3 -3
BITMAP
80
80
80
80
80
80
80
F8
F8
80
80
80
80
80
80
80
ENDCHAR
STARTCHAR U+251E
ENCODING 9502
SWIDTH 500 0
DWIDTH 8 0
BBX 5 16 3 -3
BITMAP
C0
C0
C0
C0
C0
C0
C0
F8
80
80
80
80
80
80
80
80
ENDCHAR
STARTCHAR U+251F
ENCODING 9503
SWIDTH 500 0
DWIDTH 8 0
BBX 5 16 3 -3
BITMAP
80
80
80
80
80
80
80
F8
C0
C0
C0
C0
C0
C0
C0
C0
ENDCHAR
STARTCHAR U+2520
ENCODING 9504
SWIDTH 500 0
DWIDTH 8 0
BBX 5 16 3 -3
BITMAP
C0
C0
C0
C0
C0
C0
C0
F8
C0
C0
C0
C0
C0
C0
C0
C0
ENDCHAR
STARTCHAR U+2521
ENCODING 9505
SWIDTH 500 0
DWIDTH 8 0
BBX 5 16 3 -3
BITMAP
C0
C0
C0
C0
C0
C0
C0
F8
F8
80
80
80
80
80
80
80
ENDCHAR
STARTCHAR U+2522
ENCODING 9506
SWIDTH 500 0
DWIDTH 8 0
BBX 5 16 3 -3
BITMAP
80
80
80
80
80
80
80
F8
F8
C0
C0
C0
C0
C0
C0
C0
ENDCHAR
STARTCHAR U+2523
ENCODING 9507
SWIDTH 500 0
DWIDTH 8 0
BBX 5 16 3 -3
BITMAP
C0
C0
C0
C0
C0
C0
C0
F8
F8
C0
C0
C0
C0
C0
C0
C0
ENDCHAR
STARTCHAR U+2524
ENCODING 9508
SWIDTH 500 0
DWIDTH 8 0
BBX 4 16 0 -3
BITMAP
10
10
10
10
10
10
10
F0
10
10
10
10
10
10
10
10
ENDCHAR
STARTCHAR U+2525
ENCODING 9509
SWIDTH 500 0
DWIDTH 8 0
BBX 4 16 0 -3
BITMAP
10
10
10
10
10
10
10
F0
F0
10
10
10
10
10
10
10
ENDCHAR
STARTCHAR U+2526
ENCODING 9510
SWIDTH 500 0
DWIDTH 8 0
BBX 5 16 0 -3
BITMAP
18
18
18
18
18
18
18
F8
10
10
10
10
10
10
10
10
ENDCHAR
STARTCHAR U+2527
ENCODING 9511
SWIDTH 500 0
DWIDTH 8 0
BBX 5 16 0 -3
BITMAP
10
10
10
10
10
10
10
F8
18
18
18
18
18
18
18
18
ENDCHAR
STARTCHAR U+2528
ENCODING 9512
SWIDTH 500 0
DWIDTH 8 0
BBX 5 16 0 -3
BITMAP
18
18
18
18
18
18
18
F8
18
18
18
18
18
18
18
18
ENDCHAR
STARTCHAR U+2529
ENCODING 9513
SWIDTH 500 0
DWIDTH 8 0
BBX 5 16 0 -3
BITMAP
18
18
18
18
18
18
18
F8
F8
10
10
10
10
10
10
10
ENDCHAR
STARTCHAR U+252A
ENCODING 9514
SWIDTH 500 0
DWIDTH 8 0
BBX 5 16 0 -3
BITMAP
10
10
10
10
10
10
10
F8
F8
18
18
18
18
18
18
18
ENDCHAR
STARTCHAR U+252B
ENCODING 9515
SWIDTH 500 0
DWIDTH 8 0
BBX 5 16 0 -3
BITMAP
18
18
18
18
18
18
18
F8
F8
18
18
18
18
18
18
18
ENDCHAR
STARTCHAR U+252C
ENCODING 9516
SWIDTH 500 0
DWIDTH 8 0
BBX 8 9 0 -3
BITMAP
FF
10
10
10
10
10
10
10
10
ENDCHAR
STARTCHAR U+252D
ENCODING 9517
SWIDTH 500 0
DWIDTH 8 0
BBX 8 9 0 -3
BITMAP
FF
F0
10
10
10
10
10
10
10
ENDCHAR
STARTCHAR U+252E
ENCODING 9518
SWIDTH 500 0
DWIDTH 8 0
BBX 8 9 0 -3
BITMAP
FF
1F
10
10
10
10
10
10
10
ENDCHAR
STARTCHAR U+252F
ENCODING 9519
SWIDTH 500 0
DWIDTH 8 0
BBX 8 9 0 -3
BITMAP
FF
FF
10
10
10
10
10
10
10
ENDCHAR
STARTCHAR U+2530
ENCODING 9520
SWIDTH 500 0
DWIDTH 8 0
BBX 8 9 0 -3
BITMAP
FF
18
18
18
18
18
18
18
18
ENDCHAR
STARTCHAR U+2531
ENCODING 9521
SWIDTH 500 0
DWIDTH 8 0
BBX 8 9 0 -3
BITMAP
FF
F8
18
18
18
18
18
18
18
ENDCHAR
STARTCHAR U+2532
ENCODING 9522
SWIDTH 500 0
DWIDTH 8 0
BBX 8 9 0 -3
BITMAP
FF
1F
18
18
18
18
18
18
18
ENDCHAR
STARTCHAR U+2533
ENCODING 9523
SWIDTH 500 0
DWIDTH 8 0
BBX 8 9 0 -3
BITMAP
FF
FF
18
18
18
18
18
18
18
ENDCHAR
STARTCHAR U+2534
ENCODING 9524
SWIDTH 500 0
DWIDTH 8 0
BBX 8 8 0 5
BITMAP
10
10
10
10
10
10
10
FF
ENDCHAR
STARTCHAR U+2535
ENCODING 9525
SWIDTH 500 0
DWIDTH 8 0
BBX 8 9 0 4
BITMAP
10
10
10
10
10
10
10
FF
F0
ENDCHAR
STARTCHAR U+2536
ENCODING 9526
SWIDTH 500 0
DWIDTH 8 0
BBX 8 9 0 4
BITMAP
10
10
10
10
10
10
10
FF
1F
ENDCHAR
STARTCHAR U+2537
ENCODING 9527
SWIDTH 500 0
DWIDTH 8 0
BBX 8 9 0 4
BITMAP
10
10
10
10
10
10
10
FF
FF
ENDCHAR
STARTCHAR U+2538
ENCODING 9528
SWIDTH 500 0
DWIDTH 8 0
BBX 8 8 0 5
BITMAP
18
18
18
18
18
18
18
FF
ENDCHAR
STARTCHAR U+2539
ENCODING 9529
SWIDTH 500 0
DWIDTH 8 0
BBX 8 9 0 4
BITMAP
18
18
18
18
18
18
18
FF
F8
ENDCHAR
STARTCHAR U+253A
ENCODING 9530
SWIDTH 500 0
DWIDTH 8 0
BBX 8 9 0 4
BITMAP
18
18
18
18
18
18
18
FF
1F
ENDCHAR
STARTCHAR U+253B
ENCODING 9531
SWIDTH 500 0
DWIDTH 8 0
BBX 8 9 0 4
BITMAP
18
18
18
18
18
18
18
FF
FF
ENDCHAR
STARTCHAR U+253C
ENCODING 9532
SWIDTH 500 0
DWIDTH 8 0
BBX 8 16 0 -3
BITMAP
10
10
10
10
10
10
10
FF
10
10
10
10
10
10
10
10
ENDCHAR
STARTCHAR U+253D
ENCODING 9533
SWIDTH 500 0
DWIDTH 8 0
BBX 8 16 0 -3
BITMAP
10
10
10
10
10
10
10
FF
F0
10
10
10
10
10
10
10
ENDCHAR
STARTCHAR U+253E
ENCODING 9534
SWIDTH 500 0
DWIDTH 8 0
BBX 8 16 0 -3
BITMAP
10
10
10
10
10
10
10
FF
1F
10
10
10
10
10
10
10
ENDCHAR
STARTCHAR U+253F
ENCODING 9535
SWIDTH 500 0
DWIDTH 8 0
BBX 8 16 0 -3
BITMAP
10
10
10
10
10
10
10
FF
FF
10
10
10
10
10
10
10
ENDCHAR
STARTCHAR U+2540
ENCODING 9536
SWIDTH 500 0
DWIDTH 8 0
BBX 8 16 0 -3
BITMAP
18
18
18
18
18
18
18
FF
10
10
10
10
10
10
10
10
ENDCHAR
STARTCHAR U+2541
ENCODING 9537
SWIDTH 500 0
DWIDTH 8 0
BBX 8 16 0 -3
BITMAP
10
10
10
10
10
10
10
FF
18
18
18
18
18
18
18
18
ENDCHAR
STARTCHAR U+2542
ENCODING 9538
SWIDTH 500 0
DWIDTH 8 0
BBX 8 16 0 -3
BITMAP
18
18
18
18
18
18
18
FF
18
18
18
18
18
18
18
18
ENDCHAR
STARTCHAR U+2543
ENCODING 9539
SWIDTH 500 0
DWIDTH 8 0
BBX 8 16 0 -3
BITMAP
18
18
18
18
18
18
18
FF
F8
10
10
10
10
10
10
10
ENDCHAR
STARTCHAR U+2544
ENCODING 9540
SWIDTH 500 0
DWIDTH 8 0
BBX 8 16 0 -3
BITMAP
18
18
18
18
18
18
18
FF
1F
10
10
10
10
10
10
10
ENDCHAR
STARTCHAR U+2545
ENCODING 9541
SWIDTH 500 0
DWIDTH 8 0
BBX 8 16 0 -3
BITMAP
10
10
10
10
10
10
10
FF
F8
18
18
18
18
18
18
18
ENDCHAR
STARTCHAR U+2546
ENCODING 9542
SWIDTH 500 0
DWIDTH 8 0
BBX 8 16 0 -3
BITMAP
10
10
10
10
10
10
10
FF
1F
18
18
18
18
18
18
18
ENDCHAR
STARTCHAR U+2547
ENCODING 9543
SWIDTH 500 0
DWIDTH 8 0
BBX 8 16 0 -3
BITMAP
18
18
18
18
18
18
18
FF
FF
10
10
10
10
10
10
10
ENDCHAR
STARTCHAR U+2548
ENCODING 9544
SWIDTH 500 0
DWIDTH 8 0
BBX 8 16 0 -3
BITMAP
10
10
10
10
10
10
10
FF
FF
18
18
18
18
18
18
18
ENDCHAR
STARTCHAR U+2549
ENCODING 9545
SWIDTH 500 0
DWIDTH 8 0
BBX 8 16 0 -3
BITMAP
18
18
18
18
18
18
18
FF
F8
18
18
18
18
18
18
18
ENDCHAR
STARTCHAR U+254A
ENCODING 9546
SWIDTH 500 0
DWIDTH 8 0
BBX 8 16 0 -3
BITMAP
18
18
18
18
18
18
18
FF
1F
18
18
18
18
18
18
18
ENDCHAR
STARTCHAR U+254B
ENCODING 9547
SWIDTH 500 0
DWIDTH 8 0
BBX 8 16 0 -3
BITMAP
18
18
18
18
18
18
18
FF
FF
18
18
18
18
18
18
18
ENDCHAR
STARTCHAR U+2550
ENCODING 9552
SWIDTH 500 0
DWIDTH 8 0
BBX 8 3 0 4
BITMAP
FF
00
FF
ENDCHAR
STARTCHAR U+2551
ENCODING 9553
SWIDTH 500 0
DWIDTH 8 0
BBX 5 16 2 -3
BITMAP
D8
D8
D8
D8
D8
D8
D8
D8
D8
D8
D8
D8
D8
D8
D8
D8
ENDCHAR
STARTCHAR U+2552
ENCODING 9554
SWIDTH 500 0
DWIDTH 8 0
BBX 5 10 3 -3
BITMAP
F8
C0
F8
C0
C0
C0
C0
C0
C0
C0
ENDCHAR
STARTCHAR U+2553
ENCODING 9555
SWIDTH 500 0
DWIDTH 8 0
BBX 6 8 2 -3
BITMAP
FC
D8
D8
D8
D8
D8
D8
D8
ENDCHAR
STARTCHAR U+2554
ENCODING 9556
SWIDTH 500 0
DWIDTH 8 0
BBX 6 10 2 -3
BITMAP
FC
C0
DC
D8
D8
D8
D8
D8
D8
D8
ENDCHAR
STARTCHAR U+2555
ENCODING 9557
SWIDTH 500 0
DWIDTH 8 0
BBX 5 10 0 -3
BITMAP
F8
18
F8
18
18
18
18
18
18
18
ENDCHAR
STARTCHAR U+2556
ENCODING 9558
SWIDTH 500 0
DWIDTH 8 0
BBX 7 8 0 -3
BITMAP
FE
36
36
36
36
36
36
36
ENDCHAR
STARTCHAR U+2557
ENCODING 9559
SWIDTH 500 0
DWIDTH 8 0
BBX 7 10 0 -3
BITMAP
FE
06
F6
36
36
36
36
36
36
36
ENDCHAR
STARTCHAR U+2558
ENCODING 9560
SWIDTH 500 0
DWIDTH 8 0
BBX 5 9 3 4
BITMAP
C0
C0
C0
C0
C0
C0
F8
C0
F8
ENDCHAR
STARTCHAR U+2559
ENCODING 9561
SWIDTH 500 0
DWIDTH 8 0
BBX 6 9 2 4
BITMAP
D8
D8
D8
D8
D8
D8
D8
D8
FC
ENDCHAR
STARTCHAR U+255A
ENCODING 9562
SWIDTH 500 0
DWIDTH 8 0
BBX 6 9 2 4
BITMAP
D8
D8
D8
D8
D8
D8
DC
C0
FC
ENDCHAR
STARTCHAR U+255B
ENCODING 9563
SWIDTH 500 0
DWIDTH 8 0
BBX 5 9 0 4
BITMAP
18
18
18
18
18
18
F8
18
F8
ENDCHAR
STARTCHAR U+255C
ENCODING 9564
SWIDTH 500 0
DWIDTH 8 0
BBX 7 9 0 4
BITMAP
36
36
36
36
36
36
36
36
FE
ENDCHAR
STARTCHAR U+255D
ENCODING 9565
SWIDTH 500 0
DWIDTH 8 0
BBX 7 9 0 4
BITMAP
36
36
36
36
36
36
F6
06
FE
ENDCHAR
STARTCHAR U+255E
ENCODING 9566
SWIDTH 500 0
DWIDTH 8 0
BBX 5 16 3 -3
BITMAP
C0
C0
C0
C0
C0
C0
F8
C0
F8
C0
C0
C0
C0
C0
C0
C0
ENDCHAR
STARTCHAR U+255F
ENCODING 9567
SWIDTH 500 0
DWIDTH 8 0
BBX 6 16 2 -3
BITMAP
D8
D8
D8
D8
D8
D8
D8
D8
DC
D8
D8
D8
D8
D8
D8
D8
ENDCHAR
STARTCHAR U+2560
ENCODING 9568
SWIDTH 500 0
DWIDTH 8 0
BBX 6 16 2 -3
BITMAP
D8
D8
D8
D8
D8
D8
DC
C0
DC
D8
D8
D8
D8
D8
D8
D8
ENDCHAR
STARTCHAR U+2561
ENCODING 9569
SWIDTH 500 0
DWIDTH 8 0
BBX 5 16 0 -3
BITMAP
18
18
18
18
18
18
F8
18
F8
18
18
18
18
18
18
18
ENDCHAR
STARTCHAR U+2562
ENCODING 9570
SWIDTH 500 0
DWIDTH 8 0
BBX 7 16 0 -3
BITMAP
36
36
36
36
36
36
36
36
F6
36
36
36
36
36
36
36
ENDCHAR
STARTCHAR U+2563
ENCODING 9571
SWIDTH 500 0
DWIDTH 8 0
BBX 7 16 0 -3
BITMAP
36
36
36
36
36
36
F6
06
F6
36
36
36
36
36
36
36
ENDCHAR
STARTCHAR U+2564
ENCODING 9572
SWIDTH 500 0
DWIDTH 8 0
BBX 8 10 0 -3
BITMAP
FF
00
FF
18
18
18
18
18
18
18
ENDCHAR
STARTCHAR U+2565
ENCODING 9573
SWIDTH 500 0
DWIDTH 8 0
BBX 8 8 0 -3
BITMAP
FF
36
36
36
36
36
36
36
ENDCHAR
STARTCHAR U+2566
ENCODING 9574
SWIDTH 500 0
DWIDTH 8 0
BBX 8 10 0 -3
BITMAP
FF
00
F7
36
36
36
36
36
36
36
ENDCHAR
STARTCHAR U+2567
ENCODING 9575
SWIDTH 500 0
DWIDTH 8 0
BBX 8 9 0 4
BITMAP
18
18
18
18
18
18
FF
00
FF
ENDCHAR
STARTCHAR U+2568
ENCODING 9576
SWIDTH 500 0
DWIDTH 8 0
BBX 8 9 0 4
BITMAP
36
36
36
36
36
36
36
36
FF
ENDCHAR
STARTCHAR U+2569
ENCODING 9577
SWIDTH 500 0
DWIDTH 8 0
BBX 8 9 0 4
BITMAP
36
36
36
36
36
36
F7
00
FF
ENDCHAR
STARTCHAR U+256A
ENCODING 9578
SWIDTH 500 0
DWIDTH 8 0
BBX 8 16 0 -3
BITMAP
18
18
18
18
18
18
FF
18
FF
18
18
18
18
18
18
18
ENDCHAR
STARTCHAR U+256B
ENCODING 9579
SWIDTH 500 0
DWIDTH 8 0
BBX 8 16 0 -3
BITMAP
36
36
36
36
36
36
36
36
FF
36
36
36
36
36
36
36
ENDCHAR
STARTCHAR U+256C
ENCODING 9580
SWIDTH 500 0
DWIDTH 8 0
BBX 8 16 0 -3
BITMAP
36
36
36
36
36
36
F7
00
F7
36
36
36
36
36
36
36
ENDCHAR
STARTCHAR U+2580
ENCODING 9600
SWIDTH 500 0
DWIDTH 8 0
BBX 8 8 0 5
BITMAP
FF
FF
FF
FF
FF
FF
FF
FF
ENDCHAR
STARTCHAR U+2581
ENCODING 9601
SWIDTH 500 0
DWIDTH 8 0
BBX 8 2 0 -3
BITMAP
FF
FF
ENDCHAR
STARTCHAR U+2582
ENCODING 9602
SWIDTH 500 0
DWIDTH 8 0
BBX 8 4 0 -3
BITMAP
FF
FF
FF
FF
ENDCHAR
STARTCHAR U+2583
ENCODING 9603
SWIDTH 500 0
DWIDTH 8 0
BBX 8 6 0 -3
BITMAP
FF
FF
FF
FF
FF
FF
ENDCHAR
STARTCHAR U+2584
ENCODING 9604
SWIDTH 500 0
DWIDTH 8 0
BBX 8 8 0 -3
BITMAP
FF
FF
FF
FF
FF
FF
FF
FF
ENDCHAR
STARTCHAR U+2585
ENCODING 9605
SWIDTH 500 0
DWIDTH 8 0
BBX 8 10 0 -3
BITMAP
FF
FF
FF
FF
FF
FF
FF
FF
FF
FF
ENDCHAR
STARTCHAR U+2586
ENCODING 9606
SWIDTH 500 0
DWIDTH 8 0
BBX 8 12 0 -3
BITMAP
FF
FF
FF
FF
FF
FF
FF
FF
FF
FF
FF
FF
ENDCHAR
STARTCHAR U+2587
ENCODING 9607
SWIDTH 500 0
DWIDTH 8 0
BBX 8 14 0 -3
BITMAP
FF
FF
FF
FF
FF
FF
FF
FF
FF
FF
FF
FF
FF
FF
ENDCHAR
STARTCHAR U+2588
ENCODING 9608
SWIDTH 500 0
DWIDTH 8 0
BBX 8 16 0 -3
BITMAP
FF
FF
FF
FF
FF
FF
FF
FF
FF
FF
FF
FF
FF
FF
FF
FF
ENDCHAR
STARTCHAR U+2589
ENCODING 9609
SWIDTH 500 0
DWIDTH 8 0
BBX 7 16 0 -3
BITMAP
FE
FE
FE
FE
FE
FE
FE
FE
FE
FE
FE
FE
FE
FE
FE
FE
ENDCHAR
STARTCHAR U+258A
ENCODING 9610
SWIDTH 500 0
DWIDTH 8 0
BBX 6 16 0 -3
BITMAP
FC
FC
FC
FC
FC
FC
FC
FC
FC
FC
FC
FC
FC
FC
FC
FC
ENDCHAR
STARTCHAR U+258B
ENCODING 9611
SWIDTH 500 0
DWIDTH 8 0
BBX 5 16 0 -3
BITMAP
F8
F8
F8
F8
F8
F8
F8
F8
F8
F8
F8
F8
F8
F8
F8
F8
ENDCHAR
STARTCHAR U+258C
ENCODING 9612
SWIDTH 500 0
DWIDTH 8 0
BBX 4 16 0 -3
BITMAP
F0
F0
F0
F0
F0
F0
F0
F0
F0
F0
F0
F0
F0
F0
F0
F0
ENDCHAR
STARTCHAR U+258D
ENCODING 9613
SWIDTH 500 0
DWIDTH 8 0
BBX 3 16 0 -3
BITMAP
E0
E0
E0
E0
E0
E0
E0
E0
E0
E0
E0
E0
E0
E0
E0
E0
ENDCHAR
STARTCHAR U+258E
ENCODING 9614
SWIDTH 500 0
DWIDTH 8 0
BBX 2 16 0 -3
BITMAP
C0
C0
C0
C0
C0
C0
C0
C0
C0
C0
C0
C0
C0
C0
C0
C0
ENDCHAR
STARTCHAR U+258F
ENCODING 9615
SWIDTH 500 0
DWIDTH 8 0
BBX 1 16 0 -3
BITMAP
80
80
80
80
80
80
80
80
80
80
80
80
80
80
80
80
ENDCHAR
STARTCHAR U+2590
ENCODING 9616
SWIDTH 500 0
DWIDTH 8 0
BBX 4 16 4 -3
BITMAP
F0
F0
F0
F0
F0
F0
F0
F0
F0
F0
F0
F0
F0
F0
F0
F0
ENDCHAR
STARTCHAR U+2591
ENCODING 9617
SWIDTH 500 0
DWIDTH 8 0
BBX 7 16 1 -3
BITMAP
22
88
22
88
22
88
22
88
22
88
22
88
22
88
22
88
ENDCHAR
STARTCHAR U+2592
ENCODING 9618
SWIDTH 500 0
DWIDTH 8 0
BBX 8 16 0 -3
BITMAP
55
AA
55
AA
55
AA
55
AA
55
AA
55
AA
55
AA
55
AA
ENDCHAR
STARTCHAR U+2593
ENCODING 9619
SWIDTH 500 0
DWIDTH 8 0
BBX 8 16 0 -3
BITMAP
DD
77
DD
77
DD
77
DD
77
DD
77
DD
77
DD
77
DD
77
ENDCHAR
STARTCHAR U+2594
ENCODING 9620
SWIDTH 500 0
DWIDTH 8 0
BBX 8 2 0 11
BITMAP
FF
FF
ENDCHAR
STARTCHAR U+2595
ENCODING 9621
SWIDTH 500 0
DWIDTH 8 0
BBX 1 16 7 -3
BITMAP
80
80
80
80
80
80
80
80
80
80
80
80
80
80
80
80
ENDCHAR
STARTCHAR U+2596
ENCODING 9622
SWIDTH 500 0
DWIDTH 8 0
BBX 4 8 0 -3
BITMAP
F0
F0
F0
F0
F0
F0
F0
F0
ENDCHAR
STARTCHAR U+2597
ENCODING 9623
SWIDTH 500 0
DWIDTH 8 0
BBX 4 8 4 -3
BITMAP
F0
F0
F0
F0
F0
F0
F0
F0
ENDCHAR
STARTCHAR U+2598
ENCODING 9624
SWIDTH 500 0
DWIDTH 8 0
BBX 4 8 0 5
BITMAP
F0
F0
F0
F0
F0
F0
F0
F0
ENDCHAR
STARTCHAR U+2599
ENCODING 9625
SWIDTH 500 0
DWIDTH 8 0
BBX 8 16 0 -3
BITMAP
F0
F0
F0
F0
F0
F0
F0
F0
FF
FF
FF
FF
FF
FF
FF
FF
ENDCHAR
STARTCHAR U+259A
ENCODING 9626
SWIDTH 500 0
DWIDTH 8 0
BBX 8 16 0 -3
BITMAP
F0
F0
F0
F0
F0
F0
F0
F0
0F
0F
0F
0F
0F
0F
0F
0F
ENDCHAR
STARTCHAR U+259B
ENCODING 9627
SWIDTH 500 0
DWIDTH 8 0
BBX 8 16 0 -3
BITMAP
FF
FF
FF
FF
FF
FF
FF
FF
F0
F0
F0
F0
F0
F0
F0
F0
ENDCHAR
STARTCHAR U+259C
ENCODING 9628
SWIDTH 500 0
DWIDTH 8 0
BBX 8 16 0 -3
BITMAP
FF
FF
FF
FF
FF
FF
FF
FF
0F
0F
0F
0F
0F
0F
0F
0F
ENDCHAR
STARTCHAR U+259D
ENCODING 9629
SWIDTH 500 0
DWIDTH 8 0
BBX 4 8 4 5
BITMAP
F0
F0
F0
F0
F0
F0
F0
F0
ENDCHAR
STARTCHAR U+259E
ENCODING 9630
SWIDTH 500 0
DWIDTH 8 0
BBX 8 16 0 -3
BITMAP
0F
0F
0F
0F
0F
0F
0F
0F
F0
F0
F0
F0
F0
F0
F0
F0
ENDCHAR
STARTCHAR U+259F
ENCODING 9631
SWIDTH 500 0
DWIDTH 8 0
BBX 8 16 0 -3
BITMAP
0F
0F
0F
0F
0F
0F
0F
0F
FF
FF
FF
FF
FF
FF
FF
FF
ENDCHAR
STARTCHAR U+25A0
ENCODING 9632
SWIDTH 1000 0
DWIDTH 16 0
BBX 12 12 2 -1
BITMAP
FFF0
FFF0
FFF0
FFF0
FFF0
FFF0
FFF0
FFF0
FFF0
FFF0
FFF0
FFF0
ENDCHAR
STARTCHAR U+25A1
ENCODING 9633
SWIDTH 1000 0
DWIDTH 16 0
BBX 12 12 2 -1
BITMAP
FFF0
8010
8010
8010
8010
8010
8010
8010
8010
8010
8010
FFF0
ENDCHAR
STARTCHAR U+25A3
ENCODING 9635
SWIDTH 1000 0
DWIDTH 16 0
BBX 12 12 2 -1
BITMAP
FFF0
8010
8010
9F90
9F90
9F90
9F90
9F90
9F90
8010
8010
FFF0
ENDCHAR
STARTCHAR U+25A4
ENCODING 9636
SWIDTH 1000 0
DWIDTH 16 0
BBX 12 12 2 -1
BITMAP
FFF0
8010
8010
FFF0
8010
8010
FFF0
8010
8010
FFF0
8010
FFF0
ENDCHAR
STARTCHAR U+25A5
ENCODING 9637
SWIDTH 1000 0
DWIDTH 16 0
BBX 12 12 2 -1
BITMAP
FFF0
9250
9250
9250
9250
9250
9250
9250
9250
9250
9250
FFF0
ENDCHAR
STARTCHAR U+25A6
ENCODING 9638
SWIDTH 1000 0
DWIDTH 16 0
BBX 12 12 2 -1
BITMAP
FFF0
9250
9250
FFF0
9250
9250
FFF0
9250
9250
FFF0
9250
FFF0
ENDCHAR
STARTCHAR U+25A7
ENCODING 9639
SWIDTH 1000 0
DWIDTH 16 0
BBX 12 12 2 -1
BITMAP
FFF0
C450
A230
9110
8890
C450
A230
9110
8890
C450
A230
FFF0
ENDCHAR
STARTCHAR U+25A8
ENCODING 9640
SWIDTH 1000 0
DWIDTH 16 0
BBX 12 12 2 -1
BITMAP
FFF0
A230
C450
8890
9110
A230
C450
8890
9110
A230
C450
FFF0
ENDCHAR
STARTCHAR U+25A9
ENCODING 9641
SWIDTH 1000 0
DWIDTH 16 0
BBX 12 12 2 -1
BITMAP
FFF0
C630
A950
9090
A950
C630
C630
A950
9090
A950
C630
FFF0
ENDCHAR
STARTCHAR U+25AA
ENCODING 9642
SWIDTH 500 0
DWIDTH 8 0
BBX 5 4 1 3
BITMAP
F8
F8
F8
F8
ENDCHAR
STARTCHAR U+25AB
ENCODING 9643
SWIDTH 500 0
DWIDTH 8 0
BBX 5 4 1 3
BITMAP
F8
D8
D8
F8
ENDCHAR
STARTCHAR U+25AC
ENCODING 9644
SWIDTH 500 0
DWIDTH 8 0
BBX 7 3 0 1
BITMAP
FE
FE
FE
ENDCHAR
STARTCHAR U+25B2
ENCODING 9650
SWIDTH 1000 0
DWIDTH 16 0
BBX 15 8 0 1
BITMAP
0100
0380
07C0
0FE0
1FF0
3FF8
7FFC
FFFE
ENDCHAR
STARTCHAR U+25B3
ENCODING 9651
SWIDTH 1000 0
DWIDTH 16 0
BBX 15 8 0 1
BITMAP
0100
0280
0440
0820
1010
2008
4004
FFFE
ENDCHAR
STARTCHAR U+25B6
ENCODING 9654
SWIDTH 1000 0
DWIDTH 16 0
BBX 11 11 2 -1
BITMAP
C000
F000
FC00
FF00
FFC0
FFE0
FFC0
FF00
FC00
F000
C000
ENDCHAR
STARTCHAR U+25B7
ENCODING 9655
SWIDTH 1000 0
DWIDTH 16 0
BBX 11 11 2 -1
BITMAP
C000
B000
8C00
8300
80C0
8020
80C0
8300
8C00
B000
C000
ENDCHAR
STARTCHAR U+25BA
ENCODING 9658
SWIDTH 500 0
DWIDTH 8 0
BBX 7 9 0 1
BITMAP
80
C0
E0
F8
FE
F8
E0
C0
80
ENDCHAR
STARTCHAR U+25BC
ENCODING 9660
SWIDTH 1000 0
DWIDTH 16 0
BBX 15 8 0 1
BITMAP
FFFE
7FFC
3FF8
1FF0
0FE0
07C0
0380
0100
ENDCHAR
STARTCHAR U+25BD
ENCODING 9661
SWIDTH 1000 0
DWIDTH 16 0
BBX 15 8 0 1
BITMAP
FFFE
4004
2008
1010
0820
0440
0280
0100
ENDCHAR
STARTCHAR U+25C0
ENCODING 9664
SWIDTH 1000 0
DWIDTH 16 0
BBX 11 11 2 -1
BITMAP
0060
01E0
07E0
1FE0
7FE0
FFE0
7FE0
1FE0
07E0
01E0
0060
ENDCHAR
STARTCHAR U+25C1
ENCODING 9665
SWIDTH 1000 0
DWIDTH 16 0
BBX 11 11 2 -1
BITMAP
0060
01A0
0620
1820
6020
8020
6020
1820
0620
01A0
0060
ENDCHAR
STARTCHAR U+25C4
ENCODING 9668
SWIDTH 500 0
DWIDTH 8 0
BBX 7 9 0 1
BITMAP
02
06
0E
3E
FE
3E
0E
06
02
ENDCHAR
STARTCHAR U+25C6
ENCODING 9670
SWIDTH 1000 0
DWIDTH 16 0
BBX 13 13 1 -2
BITMAP
0200
0700
0F80
1FC0
3FE0
7FF0
FFF8
7FF0
3FE0
1FC0
0F80
0700
0200
ENDCHAR
STARTCHAR U+25C7
ENCODING 9671
SWIDTH 1000 0
DWIDTH 16 0
BBX 13 13 1 -2
BITMAP
0200
0500
0880
1040
2020
4010
8008
4010
2020
1040
0880
0500
0200
ENDCHAR
STARTCHAR U+25C8
ENCODING 9672
SWIDTH 1000 0
DWIDTH 16 0
BBX 13 13 1 -2
BITMAP
0200
0500
0880
1240
2720
4F90
9FC8
4F90
2720
1240
0880
0500
0200
ENDCHAR
STARTCHAR U+25CA
ENCODING 9674
SWIDTH 500 0
DWIDTH 8 0
BBX 7 7 0 2
BITMAP
10
38
6C
C6
6C
38
10
ENDCHAR
STARTCHAR U+25CB
ENCODING 9675
SWIDTH 1000 0
DWIDTH 16 0
BBX 13 13 1 -2
BITMAP
0F80
3060
4010
4010
8008
8008
8008
8008
8008
4010
4010
3060
0F80
ENDCHAR
STARTCHAR U+25CE
ENCODING 9678
SWIDTH 1000 0
DWIDTH 16 0
BBX 13 13 1 -2
BITMAP
0F80
3060
4010
4710
8888
9048
9048
9048
8888
4710
4010
3060
0F80
ENDCHAR
STARTCHAR U+25CF
ENCODING 9679
SWIDTH 1000 0
DWIDTH 16 0
BBX 13 13 1 -2
BITMAP
0F80
3FE0
7FF0
7FF0
FFF8
FFF8
FFF8
FFF8
FFF8
7FF0
7FF0
3FE0
0F80
ENDCHAR
STARTCHAR U+25D0
ENCODING 9680
SWIDTH 1000 0
DWIDTH 16 0
BBX 12 12 2 -1
BITMAP
0F00
3CC0
7C20
7C20
FC10
FC10
FC10
FC10
7C20
7C20
3CC0
0F00
ENDCHAR
STARTCHAR U+25D1
ENCODING 9681
SWIDTH 1000 0
DWIDTH 16 0
BBX 12 12 2 -1
BITMAP
0F00
33C0
43E0
43E0
83F0
83F0
83F0
83F0
43E0
43E0
33C0
0F00
ENDCHAR
STARTCHAR U+25D8
ENCODING 9688
SWIDTH 500 0
DWIDTH 8 0
BBX 8 16 0 -3
BITMAP
FF
FF
FF
FF
FF
FF
E7
C3
C3
E7
FF
FF
FF
FF
FF
FF
ENDCHAR
STARTCHAR U+25D9
ENCODING 9689
SWIDTH 500 0
DWIDTH 8 0
BBX 8 16 0 -3
BITMAP
FF
FF
FF
FF
FF
E7
C3
99
99
C3
E7
FF
FF
FF
FF
FF
ENDCHAR
STARTCHAR U+25E6
ENCODING 9702
SWIDTH 500 0
DWIDTH 8 0
BBX 6 6 1 2
BITMAP
30
78
CC
CC
78
30
ENDCHAR
STARTCHAR U+2605
ENCODING 9733
SWIDTH 1000 0
DWIDTH 16 0
BBX 15 14 0 -2
BITMAP
0100
0100
0380
0380
07C0
FFFE
7FFC
1FF0
0FE0
0FE0
1FF0
1EF0
3838
2008
ENDCHAR
STARTCHAR U+2606
ENCODING 9734
SWIDTH 1000 0
DWIDTH 16 0
BBX 15 14 0 -2
BITMAP
0100
0100
0280
0280
0440
FC7E
4004
2008
0820
0820
1110
16D0
2828
2008
ENDCHAR
STARTCHAR U+260E
ENCODING 9742
SWIDTH 1000 0
DWIDTH 16 0
BBX 15 11 0 -1
BITMAP
3FF8
7FFC
FFFE
EC6E
EFEE
0EE0
1C70
3C78
3EF8
3FF8
3FF8
ENDCHAR
STARTCHAR U+260F
ENCODING 9743
SWIDTH 1000 0
DWIDTH 16 0
BBX 15 11 0 -1
BITMAP
3FF8
4004
9C72
ABAA
E82E
0BA0
1450
2448
2388
2008
3FF8
ENDCHAR
STARTCHAR U+261C
ENCODING 9756
SWIDTH 1000 0
DWIDTH 16 0
BBX 14 8 1 1
BITMAP
7FDC
8034
7F14
1014
1F14
0814
07F4
001C
ENDCHAR
STARTCHAR U+261D
ENCODING 9757
SWIDTH 1000 0
DWIDTH 16 0
BBX 8 14 4 -1
BITMAP
02
05
05
1D
35
55
55
55
41
41
42
FF
81
FF
ENDCHAR
STARTCHAR U+261E
ENCODING 9758
SWIDTH 1000 0
DWIDTH 16 0
BBX 14 8 1 1
BITMAP
EFF8
B004
A3F8
A020
A3E0
A040
BF80
E000
ENDCHAR
STARTCHAR U+261F
ENCODING 9759
SWIDTH 1000 0
DWIDTH 16 0
BBX 8 14 4 -1
BITMAP
FF
81
FF
42
41
41
55
55
55
35
1D
05
05
02
ENDCHAR
STARTCHAR U+263A
ENCODING 9786
SWIDTH 500 0
DWIDTH 8 0
BBX 8 9 0 1
BITMAP
7E
81
A5
81
81
BD
99
81
7E
ENDCHAR
STARTCHAR U+263B
ENCODING 9787
SWIDTH 500 0
DWIDTH 8 0
BBX 8 9 0 1
BITMAP
7E
FF
DB
FF
FF
C3
E7
FF
7E
ENDCHAR
STARTCHAR U+263C
ENCODING 9788
SWIDTH 500 0
DWIDTH 8 0
BBX 8 9 0 1
BITMAP
18
18
DB
3C
E7
3C
DB
18
18
ENDCHAR
STARTCHAR U+2640
ENCODING 9792
SWIDTH 500 0
DWIDTH 8 0
BBX 6 9 1 1
BITMAP
30
78
CC
CC
78
30
FC
30
30
ENDCHAR
STARTCHAR U+2642
ENCODING 9794
SWIDTH 500 0
DWIDTH 8 0
BBX 7 9 0 1
BITMAP
1E
0E
1A
3A
6C
C6
C6
6C
38
ENDCHAR
STARTCHAR U+2660
ENCODING 9824
SWIDTH 1000 0
DWIDTH 16 0
BBX 11 12 2 -1
BITMAP
0400
0E00
1F00
3F80
7FC0
7FC0
FFE0
FFE0
FFE0
75C0
0400
0E00
ENDCHAR
STARTCHAR U+2661
ENCODING 9825
SWIDTH 1000 0
DWIDTH 16 0
BBX 13 12 1 -1
BITMAP
38E0
4510
8208
8208
8008
4010
4010
2020
1040
0880
0500
0200
ENDCHAR
STARTCHAR U+2663
ENCODING 9827
SWIDTH 1000 0
DWIDTH 16 0
BBX 13 13 1 -2
BITMAP
0700
0F80
1FC0
1FC0
0F80
7770
FFF8
FFF8
FFF8
FAF8
7270
0200
0700
ENDCHAR
STARTCHAR U+2664
ENCODING 9828
SWIDTH 1000 0
DWIDTH 16 0
BBX 11 12 2 -1
BITMAP
0400
0A00
1100
2080
4040
4040
8020
8420
8E20
75C0
0400
0E00
ENDCHAR
STARTCHAR U+2665
ENCODING 9829
SWIDTH 1000 0
DWIDTH 16 0
BBX 13 12 1 -1
BITMAP
38E0
7DF0
FFF8
FFF8
FFF8
7FF0
7FF0
3FE0
1FC0
0F80
0700
0200
ENDCHAR
STARTCHAR U+2666
ENCODING 9830
SWIDTH 500 0
DWIDTH 8 0
BBX 7 7 0 2
BITMAP
10
38
7C
FE
7C
38
10
ENDCHAR
STARTCHAR U+2667
ENCODING 9831
SWIDTH 1000 0
DWIDTH 16 0
BBX 13 13 1 -2
BITMAP
0700
0880
1040
1040
0880
7570
8D88
8008
8708
8A88
7270
0200
0700
ENDCHAR
STARTCHAR U+2668
ENCODING 9832
SWIDTH 1000 0
DWIDTH 16 0
BBX 14 12 1 -1
BITMAP
0100
0A20
1240
1240
1240
0920
4928
8924
9244
8004
6018
1FE0
ENDCHAR
STARTCHAR U+2669
ENCODING 9833
SWIDTH 1000 0
DWIDTH 16 0
BBX 4 12 5 -1
BITMAP
10
10
10
10
10
10
10
10
30
70
E0
C0
ENDCHAR
STARTCHAR U+266A
ENCODING 9834
SWIDTH 1000 0
DWIDTH 16 0
BBX 7 12 5 -1
BITMAP
10
18
14
12
12
12
14
10
30
70
E0
C0
ENDCHAR
STARTCHAR U+266B
ENCODING 9835
SWIDTH 500 0
DWIDTH 8 0
BBX 8 10 0 1
BITMAP
07
19
17
19
11
11
17
7F
F6
60
ENDCHAR
STARTCHAR U+266C
ENCODING 9836
SWIDTH 1000 0
DWIDTH 16 0
BBX 9 12 3 -1
BITMAP
3000
3C00
2700
3180
3C80
2780
2180
6080
E080
C180
0380
0300
ENDCHAR
STARTCHAR U+266D
ENCODING 9837
SWIDTH 1000 0
DWIDTH 16 0
BBX 6 12 5 -1
BITMAP
80
80
80
80
B8
C4
84
84
88
90
A0
C0
ENDCHAR
STARTCHAR U+2713
ENCODING 10003
SWIDTH 500 0
DWIDTH 8 0
BBX 7 10 0 1
BITMAP
06
06
06
0C
0C
0C
98
D8
78
30
ENDCHAR
STARTCHAR U+2800
ENCODING 10240
SWIDTH 500 0
DWIDTH 8 0
BBX 0 0 0 0
BITMAP
ENDCHAR
STARTCHAR U+2801
ENCODING 10241
SWIDTH 500 0
DWIDTH 8 0
BBX 2 2 1 10
BITMAP
C0
C0
ENDCHAR
STARTCHAR U+2802
ENCODING 10242
SWIDTH 500 0
DWIDTH 8 0
BBX 2 2 1 6
BITMAP
C0
C0
ENDCHAR
STARTCHAR U+2803
ENCODING 10243
SWIDTH 500 0
DWIDTH 8 0
BBX 2 6 1 6
BITMAP
C0
C0
00
00
C0
C0
ENDCHAR
STARTCHAR U+2804
ENCODING 10244
SWIDTH 500 0
DWIDTH 8 0
BBX 2 2 1 2
BITMAP
C0
C0
ENDCHAR
STARTCHAR U+2805
ENCODING 10245
SWIDTH 500 0
DWIDTH 8 0
BBX 2 10 1 2
BITMAP
C0
C0
00
00
00
00
00
00
C0
C0
ENDCHAR
STARTCHAR U+2806
ENCODING 10246
SWIDTH 500 0
DWIDTH 8 0
BBX 2 6 1 2
BITMAP
C0
C0
00
00
C0
C0
ENDCHAR
STARTCHAR U+2807
ENCODING 10247
SWIDTH 500 0
DWIDTH 8 0
BBX 2 10 1 2
BITMAP
C0
C0
00
00
C0
C0
00
00
C0
C0
ENDCHAR
STARTCHAR U+2808
ENCODING 10248
SWIDTH 500 0
DWIDTH 8 0
BBX 2 2 5 10
BITMAP
C0
C0
ENDCHAR
STARTCHAR U+2809
ENCODING 10249
SWIDTH 500 0
DWIDTH 8 0
BBX 6 2 1 10
BITMAP
CC
CC
ENDCHAR
STARTCHAR U+280A
ENCODING 10250
SWIDTH 500 0
DWIDTH 8 0
BBX 6 6 1 6
BITMAP
0C
0C
00
00
C0
C0
ENDCHAR
STARTCHAR U+280B
ENCODING 10251
SWIDTH 500 0
DWIDTH 8 0
BBX 6 6 1 6
BITMAP
CC
CC
00
00
C0
C0
ENDCHAR
STARTCHAR U+280C
ENCODING 10252
SWIDTH 500 0
DWIDTH 8 0
BBX 6 10 1 2
BITMAP
0C
0C
00
00
00
00
00
00
C0
C0
ENDCHAR
STARTCHAR U+280D
ENCODING 10253
SWIDTH 500 0
DWIDTH 8 0
BBX 6 10 1 2
BITMAP
CC
CC
00
00
00
00
00
00
C0
C0
ENDCHAR
STARTCHAR U+280E
ENCODING 10254
SWIDTH 500 0
DWIDTH 8 0
BBX 6 10 1 2
BITMAP
0C
0C
00
00
C0
C0
00
00
C0
C0
ENDCHAR
STARTCHAR U+280F
ENCODING 10255
SWIDTH 500 0
DWIDTH 8 0
BBX 6 10 1 2
BITMAP
CC
CC
00
00
C0
C0
00
00
C0
C0
ENDCHAR
STARTCHAR U+2810
ENCODING 10256
SWIDTH 500 0
DWIDTH 8 0
BBX 2 2 5 6
BITMAP
C0
C0
ENDCHAR
STARTCHAR U+2811
ENCODING 10257
SWIDTH 500 0
DWIDTH 8 0
BBX 6 6 1 6
BITMAP
C0
C0
00
00
0C
0C
ENDCHAR
STARTCHAR U+2812
ENCODING 10258
SWIDTH 500 0
DWIDTH 8 0
BBX 6 2 1 6
BITMAP
CC
CC
ENDCHAR
STARTCHAR U+2813
ENCODING 10259
SWIDTH 500 0
DWIDTH 8 0
BBX 6 6 1 6
BITMAP
C0
C0
00
00
CC
CC
ENDCHAR
STARTCHAR U+2814
ENCODING 10260
SWIDTH 500 0
DWIDTH 8 0
BBX 6 6 1 2
BITMAP
0C
0C
00
00
C0
C0
ENDCHAR
STARTCHAR U+2815
ENCODING 10261
SWIDTH 500 0
DWIDTH 8 0
BBX 6 10 1 2
BITMAP
C0
C0
00
00
0C
0C
00
00
C0
C0
ENDCHAR
STARTCHAR U+2816
ENCODING 10262
SWIDTH 500 0
DWIDTH 8 0
BBX 6 6 1 2
BITMAP
CC
CC
00
00
C0
C0
ENDCHAR
STARTCHAR U+2817
ENCODING 10263
SWIDTH 500 0
DWIDTH 8 0
BBX 6 10 1 2
BITMAP
C0
C0
00
00
CC
CC
00
00
C0
C0
ENDCHAR
STARTCHAR U+2818
ENCODING 10264
SWIDTH 500 0
DWIDTH 8 0
BBX 2 6 5 6
BITMAP
C0
C0
00
00
C0
C0
ENDCHAR
STARTCHAR U+2819
ENCODING 10265
SWIDTH 500 0
DWIDTH 8 0
BBX 6 6 1 6
BITMAP
CC
CC
00
00
0C
0C
ENDCHAR
STARTCHAR U+281A
ENCODING 10266
SWIDTH 500 0
DWIDTH 8 0
BBX 6 6 1 6
BITMAP
0C
0C
00
00
CC
CC
ENDCHAR
STARTCHAR U+281B
ENCODING 10267
SWIDTH 500 0
DWIDTH 8 0
BBX 6 6 1 6
BITMAP
CC
CC
00
00
CC
CC
ENDCHAR
STARTCHAR U+281C
ENCODING 10268
SWIDTH 500 0
DWIDTH 8 0
BBX 6 10 1 2
BITMAP
0C
0C
00
00
0C
0C
00
00
C0
C0
ENDCHAR
STARTCHAR U+281D
ENCODING 10269
SWIDTH 500 0
DWIDTH 8 0
BBX 6 10 1 2
BITMAP
CC
CC
00
00
0C
0C
00
00
C0
C0
ENDCHAR
STARTCHAR U+281E
ENCODING 10270
SWIDTH 500 0
DWIDTH 8 0
BBX 6 10 1 2
BITMAP
0C
0C
00
00
CC
CC
00
00
C0
C0
ENDCHAR
STARTCHAR U+281F
ENCODING 10271
SWIDTH 500 0
DWIDTH 8 0
BBX 6 10 1 2
BITMAP
CC
CC
00
00
CC
CC
00
00
C0
C0
ENDCHAR
STARTCHAR U+2820
ENCODING 10272
SWIDTH 500 0
DWIDTH 8 0
BBX 2 2 5 2
BITMAP
C0
C0
ENDCHAR
STARTCHAR U+2821
ENCODING 10273
SWIDTH 500 0
DWIDTH 8 0
BBX 6 10 1 2
BITMAP
C0
C0
00
00
00
00
00
00
0C
0C
ENDCHAR
STARTCHAR U+2822
ENCODING 10274
SWIDTH 500 0
DWIDTH 8 0
BBX 6 6 1 2
BITMAP
C0
C0
00
00
0C
0C
ENDCHAR
STARTCHAR U+2823
ENCODING 10275
SWIDTH 500 0
DWIDTH 8 0
BBX 6 10 1 2
BITMAP
C0
C0
00
00
C0
C0
00
00
0C
0C
ENDCHAR
STARTCHAR U+2824
ENCODING 10276
SWIDTH 500 0
DWIDTH 8 0
BBX 6 2 1 2
BITMAP
CC
CC
ENDCHAR
STARTCHAR U+2825
ENCODING 10277
SWIDTH 500 0
DWIDTH 8 0
BBX 6 10 1 2
BITMAP
C0
C0
00
00
00
00
00
00
CC
CC
ENDCHAR
STARTCHAR U+2826
ENCODING 10278
SWIDTH 500 0
DWIDTH 8 0
BBX 6 6 1 2
BITMAP
C0
C0
00
00
CC
CC
ENDCHAR
STARTCHAR U+2827
ENCODING 10279
SWIDTH 500 0
DWIDTH 8 0
BBX 6 10 1 2
BITMAP
C0
C0
00
00
C0
C0
00
00
CC
CC
ENDCHAR
STARTCHAR U+2828
ENCODING 10280
SWIDTH 500 0
DWIDTH 8 0
BBX 2 10 5 2
BITMAP
C0
C0
00
00
00
00
00
00
C0
C0
ENDCHAR
STARTCHAR U+2829
ENCODING 10281
SWIDTH 500 0
DWIDTH 8 0
BBX 6 10 1 2
BITMAP
CC
CC
00
00
00
00
00
00
0C
0C
ENDCHAR
STARTCHAR U+282A
ENCODING 10282
SWIDTH 500 0
DWIDTH 8 0
BBX 6 10 1 2
BITMAP
0C
0C
00
00
C0
C0
00
00
0C
0C
ENDCHAR
STARTCHAR U+282B
ENCODING 10283
SWIDTH 500 0
DWIDTH 8 0
BBX 6 10 1 2
BITMAP
CC
CC
00
00
C0
C0
00
00
0C
0C
ENDCHAR
STARTCHAR U+282C
ENCODING 10284
SWIDTH 500 0
DWIDTH 8 0
BBX 6 10 1 2
BITMAP
0C
0C
00
00
00
00
00
00
CC
CC
ENDCHAR
STARTCHAR U+282D
ENCODING 10285
SWIDTH 500 0
DWIDTH 8 0
BBX 6 10 1 2
BITMAP
CC
CC
00
00
00
00
00
00
CC
CC
ENDCHAR
STARTCHAR U+282E
ENCODING 10286
SWIDTH 500 0
DWIDTH 8 0
BBX 6 10 1 2
BITMAP
0C
0C
00
00
C0
C0
00
00
CC
CC
ENDCHAR
STARTCHAR U+282F
ENCODING 10287
SWIDTH 500 0
DWIDTH 8 0
BBX 6 10 1 2
BITMAP
CC
CC
00
00
C0
C0
00
00
CC
CC
ENDCHAR
STARTCHAR U+2830
ENCODING 10288
SWIDTH 500 0
DWIDTH 8 0
BBX 2 6 5 2
BITMAP
C0
C0
00
00
C0
C0
ENDCHAR
STARTCHAR U+2831
ENCODING 10289
SWIDTH 500 0
DWIDTH 8 0
BBX 6 10 1 2
BITMAP
C0
C0
00
00
0C
0C
00
00
0C
0C
ENDCHAR
STARTCHAR U+2832
ENCODING 10290
SWIDTH 500 0
DWIDTH 8 0
BBX 6 6 1 2
BITMAP
CC
CC
00
00
0C
0C
ENDCHAR
STARTCHAR U+2833
ENCODING 10291
SWIDTH 500 0
DWIDTH 8 0
BBX 6 10 1 2
BITMAP
C0
C0
00
00
CC
CC
00
00
0C
0C
ENDCHAR
STARTCHAR U+2834
ENCODING 10292
SWIDTH 500 0
DWIDTH 8 0
BBX 6 6 1 2
BITMAP
0C
0C
00
00
CC
CC
ENDCHAR
STARTCHAR U+2835
ENCODING 10293
SWIDTH 500 0
DWIDTH 8 0
BBX 6 10 1 2
BITMAP
C0
C0
00
00
0C
0C
00
00
CC
CC
ENDCHAR
STARTCHAR U+2836
ENCODING 10294
SWIDTH 500 0
DWIDTH 8 0
BBX 6 6 1 2
BITMAP
CC
CC
00
00
CC
CC
ENDCHAR
STARTCHAR U+2837
ENCODING 10295
SWIDTH 500 0
DWIDTH 8 0
BBX 6 10 1 2
BITMAP
C0
C0
00
00
CC
CC
00
00
CC
CC
ENDCHAR
STARTCHAR U+2838
ENCODING 10296
SWIDTH 500 0
DWIDTH 8 0
BBX 2 10 5 2
BITMAP
C0
C0
00
00
C0
C0
00
00
C0
C0
ENDCHAR
STARTCHAR U+2839
ENCODING 10297
SWIDTH 500 0
DWIDTH 8 0
BBX 6 10 1 2
BITMAP
CC
CC
00
00
0C
0C
00
00
0C
0C
ENDCHAR
STARTCHAR U+283A
ENCODING 10298
SWIDTH 500 0
DWIDTH 8 0
BBX 6 10 1 2
BITMAP
0C
0C
00
00
CC
CC
00
00
0C
0C
ENDCHAR
STARTCHAR U+283B
ENCODING 10299
SWIDTH 500 0
DWIDTH 8 0
BBX 6 10 1 2
BITMAP
CC
CC
00
00
CC
CC
00
00
0C
0C
ENDCHAR
STARTCHAR U+283C
ENCODING 10300
SWIDTH 500 0
DWIDTH 8 0
BBX 6 10 1 2
BITMAP
0C
0C
00
00
0C
0C
00
00
CC
CC
ENDCHAR
STARTCHAR U+283D
ENCODING 10301
SWIDTH 500 0
DWIDTH 8 0
BBX 6 10 1 2
BITMAP
CC
CC
00
00
0C
0C
00
00
CC
CC
ENDCHAR
STARTCHAR U+283E
ENCODING 10302
SWIDTH 500 0
DWIDTH 8 0
BBX 6 10 1 2
BITMAP
0C
0C
00
00
CC
CC
00
00
CC
CC
ENDCHAR
STARTCHAR U+283F
ENCODING 10303
SWIDTH 500 0
DWIDTH 8 0
BBX 6 10 1 2
BITMAP
CC
CC
00
00
CC
CC
00
00
CC
CC
ENDCHAR
STARTCHAR U+2840
ENCODING 10304
SWIDTH 500 0
DWIDTH 8 0
BBX 2 2 1 -2
BITMAP
C0
C0
ENDCHAR
STARTCHAR U+2841
ENCODING 10305
SWIDTH 500 0
DWIDTH 8 0
BBX 2 14 1 -2
BITMAP
C0
C0
00
00
00
00
00
00
00
00
00
00
C0
C0
ENDCHAR
STARTCHAR U+2842
ENCODING 10306
SWIDTH 500 0
DWIDTH 8 0
BBX 2 10 1 -2
BITMAP
C0
C0
00
00
00
00
00
00
C0
C0
ENDCHAR
STARTCHAR U+2843
ENCODING 10307
SWIDTH 500 0
DWIDTH 8 0
BBX 2 14 1 -2
BITMAP
C0
C0
00
00
C0
C0
00
00
00
00
00
00
C0
C0
ENDCHAR
STARTCHAR U+2844
ENCODING 10308
SWIDTH 500 0
DWIDTH 8 0
BBX 2 6 1 -2
BITMAP
C0
C0
00
00
C0
C0
ENDCHAR
STARTCHAR U+2845
ENCODING 10309
SWIDTH 500 0
DWIDTH 8 0
BBX 2 14 1 -2
BITMAP
C0
C0
00
00
00
00
00
00
C0
C0
00
00
C0
C0
ENDCHAR
STARTCHAR U+2846
ENCODING 10310
SWIDTH 500 0
DWIDTH 8 0
BBX 2 10 1 -2
BITMAP
C0
C0
00
00
C0
C0
00
00
C0
C0
ENDCHAR
STARTCHAR U+2847
ENCODING 10311
SWIDTH 500 0
DWIDTH 8 0
BBX 2 14 1 -2
BITMAP
C0
C0
00
00
C0
C0
00
00
C0
C0
00
00
C0
C0
ENDCHAR
STARTCHAR U+2848
ENCODING 10312
SWIDTH 500 0
DWIDTH 8 0
BBX 6 14 1 -2
BITMAP
0C
0C
00
00
00
00
00
00
00
00
00
00
C0
C0
ENDCHAR
STARTCHAR U+2849
ENCODING 10313
SWIDTH 500 0
DWIDTH 8 0
BBX 6 14 1 -2
BITMAP
CC
CC
00
00
00
00
00
00
00
00
00
00
C0
C0
ENDCHAR
STARTCHAR U+284A
ENCODING 10314
SWIDTH 500 0
DWIDTH 8 0
BBX 6 14 1 -2
BITMAP
0C
0C
00
00
C0
C0
00
00
00
00
00
00
C0
C0
ENDCHAR
STARTCHAR U+284B
ENCODING 10315
SWIDTH 500 0
DWIDTH 8 0
BBX 6 14 1 -2
BITMAP
CC
CC
00
00
C0
C0
00
00
00
00
00
00
C0
C0
ENDCHAR
STARTCHAR U+284C
ENCODING 10316
SWIDTH 500 0
DWIDTH 8 0
BBX 6 14 1 -2
BITMAP
0C
0C
00
00
00
00
00
00
C0
C0
00
00
C0
C0
ENDCHAR
STARTCHAR U+284D
ENCODING 10317
SWIDTH 500 0
DWIDTH 8 0
BBX 6 14 1 -2
BITMAP
CC
CC
00
00
00
00
00
00
C0
C0
00
00
C0
C0
ENDCHAR
STARTCHAR U+284E
ENCODING 10318
SWIDTH 500 0
DWIDTH 8 0
BBX 6 14 1 -2
BITMAP
0C
0C
00
00
C0
C0
00
00
C0
C0
00
00
C0
C0
ENDCHAR
STARTCHAR U+284F
ENCODING 10319
SWIDTH 500 0
DWIDTH 8 0
BBX 6 14 1 -2
BITMAP
CC
CC
00
00
C0
C0
00
00
C0
C0
00
00
C0
C0
ENDCHAR
STARTCHAR U+2850
ENCODING 10320
SWIDTH 500 0
DWIDTH 8 0
BBX 6 10 1 -2
BITMAP
0C
0C
00
00
00
00
00
00
C0
C0
ENDCHAR
STARTCHAR U+2851
ENCODING 10321
SWIDTH 500 0
DWIDTH 8 0
BBX 6 14 1 -2
BITMAP
C0
C0
00
00
0C
0C
00
00
00
00
00
00
C0
C0
ENDCHAR
STARTCHAR U+2852
ENCODING 10322
SWIDTH 500 0
DWIDTH 8 0
BBX 6 10 1 -2
BITMAP
CC
CC
00
00
00
00
00
00
C0
C0
ENDCHAR
STARTCHAR U+2853
ENCODING 10323
SWIDTH 500 0
DWIDTH 8 0
BBX 6 14 1 -2
BITMAP
C0
C0
00
00
CC
CC
00
00
00
00
00
00
C0
C0
ENDCHAR
STARTCHAR U+2854
ENCODING 10324
SWIDTH 500 0
DWIDTH 8 0
BBX 6 10 1 -2
BITMAP
0C
0C
00
00
C0
C0
00
00
C0
C0
ENDCHAR
STARTCHAR U+2855
ENCODING 10325
SWIDTH 500 0
DWIDTH 8 0
BBX 6 14 1 -2
BITMAP
C0
C0
00
00
0C
0C
00
00
C0
C0
00
00
C0
C0
ENDCHAR
STARTCHAR U+2856
ENCODING 10326
SWIDTH 500 0
DWIDTH 8 0
BBX 6 10 1 -2
BITMAP
CC
CC
00
00
C0
C0
00
00
C0
C0
ENDCHAR
STARTCHAR U+2857
ENCODING 10327
SWIDTH 500 0
DWIDTH 8 0
BBX 6 14 1 -2
BITMAP
C0
C0
00
00
CC
CC
00
00
C0
C0
00
00
C0
C0
ENDCHAR
STARTCHAR U+2858
ENCODING 10328
SWIDTH 500 0
DWIDTH 8 0
BBX 6 14 1 -2
BITMAP
0C
0C
00
00
0C
0C
00
00
00
00
00
00
C0
C0
ENDCHAR
STARTCHAR U+2859
ENCODING 10329
SWIDTH 500 0
DWIDTH 8 0
BBX 6 14 1 -2
BITMAP
CC
CC
00
00
0C
0C
00
00
00
00
00
00
C0
C0
ENDCHAR
STARTCHAR U+285A
ENCODING 10330
SWIDTH 500 0
DWIDTH 8 0
BBX 6 14 1 -2
BITMAP
0C
0C
00
00
CC
CC
00
00
00
00
00
00
C0
C0
ENDCHAR
STARTCHAR U+285B
ENCODING 10331
SWIDTH 500 0
DWIDTH 8 0
BBX 6 14 1 -2
BITMAP
CC
CC
00
00
CC
CC
00
00
00
00
00
00
C0
C0
ENDCHAR
STARTCHAR U+285C
ENCODING 10332
SWIDTH 500 0
DWIDTH 8 0
BBX 6 14 1 -2
BITMAP
0C
0C
00
00
0C
0C
00
00
C0
C0
00
00
C0
C0
ENDCHAR
STARTCHAR U+285D
ENCODING 10333
SWIDTH 500 0
DWIDTH 8 0
BBX 6 14 1 -2
BITMAP
CC
CC
00
00
0C
0C
00
00
C0
C0
00
00
C0
C0
ENDCHAR
STARTCHAR U+285E
ENCODING 10334
SWIDTH 500 0
DWIDTH 8 0
BBX 6 14 1 -2
BITMAP
0C
0C
00
00
CC
CC
00
00
C0
C0
00
00
C0
C0
ENDCHAR
STARTCHAR U+285F
ENCODING 10335
SWIDTH 500 0
DWIDTH 8 0
BBX 6 14 1 -2
BITMAP
CC
CC
00
00
CC
CC
00
00
C0
C0
00
00
C0
C0
ENDCHAR
STARTCHAR U+2860
ENCODING 10336
SWIDTH 500 0
DWIDTH 8 0
BBX 6 6 1 -2
BITMAP
0C
0C
00
00
C0
C0
ENDCHAR
STARTCHAR U+2861
ENCODING 10337
SWIDTH 500 0
DWIDTH 8 0
BBX 6 14 1 -2
BITMAP
C0
C0
00
00
00
00
00
00
0C
0C
00
00
C0
C0
ENDCHAR
STARTCHAR U+2862
ENCODING 10338
SWIDTH 500 0
DWIDTH 8 0
BBX 6 10 1 -2
BITMAP
C0
C0
00
00
0C
0C
00
00
C0
C0
ENDCHAR
STARTCHAR U+2863
ENCODING 10339
SWIDTH 500 0
DWIDTH 8 0
BBX 6 14 1 -2
BITMAP
C0
C0
00
00
C0
C0
00
00
0C
0C
00
00
C0
C0
ENDCHAR
STARTCHAR U+2864
ENCODING 10340
SWIDTH 500 0
DWIDTH 8 0
BBX 6 6 1 -2
BITMAP
CC
CC
00
00
C0
C0
ENDCHAR
STARTCHAR U+2865
ENCODING 10341
SWIDTH 500 0
DWIDTH 8 0
BBX 6 14 1 -2
BITMAP
C0
C0
00
00
00
00
00
00
CC
CC
00
00
C0
C0
ENDCHAR
STARTCHAR U+2866
ENCODING 10342
SWIDTH 500 0
DWIDTH 8 0
BBX 6 10 1 -2
BITMAP
C0
C0
00
00
CC
CC
00
00
C0
C0
ENDCHAR
STARTCHAR U+2867
ENCODING 10343
SWIDTH 500 0
DWIDTH 8 0
BBX 6 14 1 -2
BITMAP
C0
C0
00
00
C0
C0
00
00
CC
CC
00
00
C0
C0
ENDCHAR
STARTCHAR U+2868
ENCODING 10344
SWIDTH 500 0
DWIDTH 8 0
BBX 6 14 1 -2
BITMAP
0C
0C
00
00
00
00
00
00
0C
0C
00
00
C0
C0
ENDCHAR
STARTCHAR U+2869
ENCODING 10345
SWIDTH 500 0
DWIDTH 8 0
BBX 6 14 1 -2
BITMAP
CC
CC
00
00
00
00
00
00
0C
0C
00
00
C0
C0
ENDCHAR
STARTCHAR U+286A
ENCODING 10346
SWIDTH 500 0
DWIDTH 8 0
BBX 6 14 1 -2
BITMAP
0C
0C
00
00
C0
C0
00
00
0C
0C
00
00
C0
C0
ENDCHAR
STARTCHAR U+286B
ENCODING 10347
SWIDTH 500 0
DWIDTH 8 0
BBX 6 14 1 -2
BITMAP
CC
CC
00
00
C0
C0
00
00
0C
0C
00
00
C0
C0
ENDCHAR
STARTCHAR U+286C
ENCODING 10348
SWIDTH 500 0
DWIDTH 8 0
BBX 6 14 1 -2
BITMAP
0C
0C
00
00
00
00
00
00
CC
CC
00
00
C0
C0
ENDCHAR
STARTCHAR U+286D
ENCODING 10349
SWIDTH 500 0
DWIDTH 8 0
BBX 6 14 1 -2
BITMAP
CC
CC
00
00
00
00
00
00
CC
CC
00
00
C0
C0
ENDCHAR
STARTCHAR U+286E
ENCODING 10350
SWIDTH 500 0
DWIDTH 8 0
BBX 6 14 1 -2
BITMAP
0C
0C
00
00
C0
C0
00
00
CC
CC
00
00
C0
C0
ENDCHAR
STARTCHAR U+286F
ENCODING 10351
SWIDTH 500 0
DWIDTH 8 0
BBX 6 14 1 -2
BITMAP
CC
CC
00
00
C0
C0
00
00
CC
CC
00
00
C0
C0
ENDCHAR
STARTCHAR U+2870
ENCODING 10352
SWIDTH 500 0
DWIDTH 8 0
BBX 6 10 1 -2
BITMAP
0C
0C
00
00
0C
0C
00
00
C0
C0
ENDCHAR
STARTCHAR U+2871
ENCODING 10353
SWIDTH 500 0
DWIDTH 8 0
BBX 6 14 1 -2
BITMAP
C0
C0
00
00
0C
0C
00
00
0C
0C
00
00
C0
C0
ENDCHAR
STARTCHAR U+2872
ENCODING 10354
SWIDTH 500 0
DWIDTH 8 0
BBX 6 10 1 -2
BITMAP
CC
CC
00
00
0C
0C
00
00
C0
C0
ENDCHAR
STARTCHAR U+2873
ENCODING 10355
SWIDTH 500 0
DWIDTH 8 0
BBX 6 14 1 -2
BITMAP
C0
C0
00
00
CC
CC
00
00
0C
0C
00
00
C0
C0
ENDCHAR
STARTCHAR U+2874
ENCODING 10356
SWIDTH 500 0
DWIDTH 8 0
BBX 6 10 1 -2
BITMAP
0C
0C
00
00
CC
CC
00
00
C0
C0
ENDCHAR
STARTCHAR U+2875
ENCODING 10357
SWIDTH 500 0
DWIDTH 8 0
BBX 6 14 1 -2
BITMAP
C0
C0
00
00
0C
0C
00
00
CC
CC
00
00
C0
C0
ENDCHAR
STARTCHAR U+2876
ENCODING 10358
SWIDTH 500 0
DWIDTH 8 0
BBX 6 10 1 -2
BITMAP
CC
CC
00
00
CC
CC
00
00
C0
C0
ENDCHAR
STARTCHAR U+2877
ENCODING 10359
SWIDTH 500 0
DWIDTH 8 0
BBX 6 14 1 -2
BITMAP
C0
C0
00
00
CC
CC
00
00
CC
CC
00
00
C0
C0
ENDCHAR
STARTCHAR U+2878
ENCODING 10360
SWIDTH 500 0
DWIDTH 8 0
BBX 6 14 1 -2
BITMAP
0C
0C
00
00
0C
0C
00
00
0C
0C
00
00
C0
C0
ENDCHAR
STARTCHAR U+2879
ENCODING 10361
SWIDTH 500 0
DWIDTH 8 0
BBX 6 14 1 -2
BITMAP
CC
CC
00
00
0C
0C
00
00
0C
0C
00
00
C0
C0
ENDCHAR
STARTCHAR U+287A
ENCODING 10362
SWIDTH 500 0
DWIDTH 8 0
BBX 6 14 1 -2
BITMAP
0C
0C
00
00
CC
CC
00
00
0C
0C
00
00
C0
C0
ENDCHAR
STARTCHAR U+287B
ENCODING 10363
SWIDTH 500 0
DWIDTH 8 0
BBX 6 14 1 -2
BITMAP
CC
CC
00
00
CC
CC
00
00
0C
0C
00
00
C0
C0
ENDCHAR
STARTCHAR U+287C
ENCODING 10364
SWIDTH 500 0
DWIDTH 8 0
BBX 6 14 1 -2
BITMAP
0C
0C
00
00
0C
0C
00
00
CC
CC
00
00
C0
C0
ENDCHAR
STARTCHAR U+287D
ENCODING 10365
SWIDTH 500 0
DWIDTH 8 0
BBX 6 14 1 -2
BITMAP
CC
CC
00
00
0C
0C
00
00
CC
CC
00
00
C0
C0
ENDCHAR
STARTCHAR U+287E
ENCODING 10366
SWIDTH 500 0
DWIDTH 8 0
BBX 6 14 1 -2
BITMAP
0C
0C
00
00
CC
CC
00
00
CC
CC
00
00
C0
C0
ENDCHAR
STARTCHAR U+287F
ENCODING 10367
SWIDTH 500 0
DWIDTH 8 0
BBX 6 14 1 -2
BITMAP
CC
CC
00
00
CC
CC
00
00
CC
CC
00
00
C0
C0
ENDCHAR
STARTCHAR U+2880
ENCODING 10368
SWIDTH 500 0
DWIDTH 8 0
BBX 2 2 5 -2
BITMAP
C0
C0
ENDCHAR
STARTCHAR U+2881
ENCODING 10369
SWIDTH 500 0
DWIDTH 8 0
BBX 6 14 1 -2
BITMAP
C0
C0
00
00
00
00
00
00
00
00
00
00
0C
0C
ENDCHAR
STARTCHAR U+2882
ENCODING 10370
SWIDTH 500 0
DWIDTH 8 0
BBX 6 10 1 -2
BITMAP
C0
C0
00
00
00
00
00
00
0C
0C
ENDCHAR
STARTCHAR U+2883
ENCODING 10371
SWIDTH 500 0
DWIDTH 8 0
BBX 6 14 1 -2
BITMAP
C0
C0
00
00
C0
C0
00
00
00
00
00
00
0C
0C
ENDCHAR
STARTCHAR U+2884
ENCODING 10372
SWIDTH 500 0
DWIDTH 8 0
BBX 6 6 1 -2
BITMAP
C0
C0
00
00
0C
0C
ENDCHAR
STARTCHAR U+2885
ENCODING 10373
SWIDTH 500 0
DWIDTH 8 0
BBX 6 14 1 -2
BITMAP
C0
C0
00
00
00
00
00
00
C0
C0
00
00
0C
0C
ENDCHAR
STARTCHAR U+2886
ENCODING 10374
SWIDTH 500 0
DWIDTH 8 0
BBX 6 10 1 -2
BITMAP
C0
C0
00
00
C0
C0
00
00
0C
0C
ENDCHAR
STARTCHAR U+2887
ENCODING 10375
SWIDTH 500 0
DWIDTH 8 0
BBX 6 14 1 -2
BITMAP
C0
C0
00
00
C0
C0
00
00
C0
C0
00
00
0C
0C
ENDCHAR
STARTCHAR U+2888
ENCODING 10376
SWIDTH 500 0
DWIDTH 8 0
BBX 2 14 5 -2
BITMAP
C0
C0
00
00
00
00
00
00
00
00
00
00
C0
C0
ENDCHAR
STARTCHAR U+2889
ENCODING 10377
SWIDTH 500 0
DWIDTH 8 0
BBX 6 14 1 -2
BITMAP
CC
CC
00
00
00
00
00
00
00
00
00
00
0C
0C
ENDCHAR
STARTCHAR U+288A
ENCODING 10378
SWIDTH 500 0
DWIDTH 8 0
BBX 6 14 1 -2
BITMAP
0C
0C
00
00
C0
C0
00
00
00
00
00
00
0C
0C
ENDCHAR
STARTCHAR U+288B
ENCODING 10379
SWIDTH 500 0
DWIDTH 8 0
BBX 6 14 1 -2
BITMAP
CC
CC
00
00
C0
C0
00
00
00
00
00
00
0C
0C
ENDCHAR
STARTCHAR U+288C
ENCODING 10380
SWIDTH 500 0
DWIDTH 8 0
BBX 6 14 1 -2
BITMAP
0C
0C
00
00
00
00
00
00
C0
C0
00
00
0C
0C
ENDCHAR
STARTCHAR U+288D
ENCODING 10381
SWIDTH 500 0
DWIDTH 8 0
BBX 6 14 1 -2
BITMAP
CC
CC
00
00
00
00
00
00
C0
C0
00
00
0C
0C
ENDCHAR
STARTCHAR U+288E
ENCODING 10382
SWIDTH 500 0
DWIDTH 8 0
BBX 6 14 1 -2
BITMAP
0C
0C
00
00
C0
C0
00
00
C0
C0
00
00
0C
0C
ENDCHAR
STARTCHAR U+288F
ENCODING 10383
SWIDTH 500 0
DWIDTH 8 0
BBX 6 14 1 -2
BITMAP
CC
CC
00
00
C0
C0
00
00
C0
C0
00
00
0C
0C
ENDCHAR
STARTCHAR U+2890
ENCODING 10384
SWIDTH 500 0
DWIDTH 8 0
BBX 2 10 5 -2
BITMAP
C0
C0
00
00
00
00
00
00
C0
C0
ENDCHAR
STARTCHAR U+2891
ENCODING 10385
SWIDTH 500 0
DWIDTH 8 0
BBX 6 14 1 -2
BITMAP
C0
C0
00
00
0C
0C
00
00
00
00
00
00
0C
0C
ENDCHAR
STARTCHAR U+2892
ENCODING 10386
SWIDTH 500 0
DWIDTH 8 0
BBX 6 10 1 -2
BITMAP
CC
CC
00
00
00
00
00
00
0C
0C
ENDCHAR
STARTCHAR U+2893
ENCODING 10387
SWIDTH 500 0
DWIDTH 8 0
BBX 6 14 1 -2
BITMAP
C0
C0
00
00
CC
CC
00
00
00
00
00
00
0C
0C
ENDCHAR
STARTCHAR U+2894
ENCODING 10388
SWIDTH 500 0
DWIDTH 8 0
BBX 6 10 1 -2
BITMAP
0C
0C
00
00
C0
C0
00
00
0C
0C
ENDCHAR
STARTCHAR U+2895
ENCODING 10389
SWIDTH 500 0
DWIDTH 8 0
BBX 6 14 1 -2
BITMAP
C0
C0
00
00
0C
0C
00
00
C0
C0
00
00
0C
0C
ENDCHAR
STARTCHAR U+2896
ENCODING 10390
SWIDTH 500 0
DWIDTH 8 0
BBX 6 10 1 -2
BITMAP
CC
CC
00
00
C0
C0
00
00
0C
0C
ENDCHAR
STARTCHAR U+2897
ENCODING 10391
SWIDTH 500 0
DWIDTH 8 0
BBX 6 14 1 -2
BITMAP
C0
C0
00
00
CC
CC
00
00
C0
C0
00
00
0C
0C
ENDCHAR
STARTCHAR U+2898
ENCODING 10392
SWIDTH 500 0
DWIDTH 8 0
BBX 2 14 5 -2
BITMAP
C0
C0
00
00
C0
C0
00
00
00
00
00
00
C0
C0
ENDCHAR
STARTCHAR U+2899
ENCODING 10393
SWIDTH 500 0
DWIDTH 8 0
BBX 6 14 1 -2
BITMAP
CC
CC
00
00
0C
0C
00
00
00
00
00
00
0C
0C
ENDCHAR
STARTCHAR U+289A
ENCODING 10394
SWIDTH 500 0
DWIDTH 8 0
BBX 6 14 1 -2
BITMAP
0C
0C
00
00
CC
CC
00
00
00
00
00
00
0C
0C
ENDCHAR
STARTCHAR U+289B
ENCODING 10395
SWIDTH 500 0
DWIDTH 8 0
BBX 6 14 1 -2
BITMAP
CC
CC
00
00
CC
CC
00
00
00
00
00
00
0C
0C
ENDCHAR
STARTCHAR U+289C
ENCODING 10396
SWIDTH 500 0
DWIDTH 8 0
BBX 6 14 1 -2
BITMAP
0C
0C
00
00
0C
0C
00
00
C0
C0
00
00
0C
0C
ENDCHAR
STARTCHAR U+289D
ENCODING 10397
SWIDTH 500 0
DWIDTH 8 0
BBX 6 14 1 -2
BITMAP
CC
CC
00
00
0C
0C
00
00
C0
C0
00
00
0C
0C
ENDCHAR
STARTCHAR U+289E
ENCODING 10398
SWIDTH 500 0
DWIDTH 8 0
BBX 6 14 1 -2
BITMAP
0C
0C
00
00
CC
CC
00
00
C0
C0
00
00
0C
0C
ENDCHAR
STARTCHAR U+289F
ENCODING 10399
SWIDTH 500 0
DWIDTH 8 0
BBX 6 14 1 -2
BITMAP
CC
CC
00
00
CC
CC
00
00
C0
C0
00
00
0C
0C
ENDCHAR
STARTCHAR U+28A0
ENCODING 10400
SWIDTH 500 0
DWIDTH 8 0
BBX 2 6 5 -2
BITMAP
C0
C0
00
00
C0
C0
ENDCHAR
STARTCHAR U+28A1
ENCODING 10401
SWIDTH 500 0
DWIDTH 8 0
BBX 6 14 1 -2
BITMAP
C0
C0
00
00
00
00
00
00
0C
0C
00
00
0C
0C
ENDCHAR
STARTCHAR U+28A2
ENCODING 10402
SWIDTH 500 0
DWIDTH 8 0
BBX 6 10 1 -2
BITMAP
C0
C0
00
00
0C
0C
00
00
0C
0C
ENDCHAR
STARTCHAR U+28A3
ENCODING 10403
SWIDTH 500 0
DWIDTH 8 0
BBX 6 14 1 -2
BITMAP
C0
C0
00
00
C0
C0
00
00
0C
0C
00
00
0C
0C
ENDCHAR
STARTCHAR U+28A4
ENCODING 10404
SWIDTH 500 0
DWIDTH 8 0
BBX 6 6 1 -2
BITMAP
CC
CC
00
00
0C
0C
ENDCHAR
STARTCHAR U+28A5
ENCODING 10405
SWIDTH 500 0
DWIDTH 8 0
BBX 6 14 1 -2
BITMAP
C0
C0
00
00
00
00
00
00
CC
CC
00
00
0C
0C
ENDCHAR
STARTCHAR U+28A6
ENCODING 10406
SWIDTH 500 0
DWIDTH 8 0
BBX 6 10 1 -2
BITMAP
C0
C0
00
00
CC
CC
00
00
0C
0C
ENDCHAR
STARTCHAR U+28A7
ENCODING 10407
SWIDTH 500 0
DWIDTH 8 0
BBX 6 14 1 -2
BITMAP
C0
C0
00
00
C0
C0
00
00
CC
CC
00
00
0C
0C
ENDCHAR
STARTCHAR U+28A8
ENCODING 10408
SWIDTH 500 0
DWIDTH 8 0
BBX 2 14 5 -2
BITMAP
C0
C0
00
00
00
00
00
00
C0
C0
00
00
C0
C0
ENDCHAR
STARTCHAR U+28A9
ENCODING 10409
SWIDTH 500 0
DWIDTH 8 0
BBX 6 14 1 -2
BITMAP
CC
CC
00
00
00
00
00
00
0C
0C
00
00
0C
0C
ENDCHAR
STARTCHAR U+28AA
ENCODING 10410
SWIDTH 500 0
DWIDTH 8 0
BBX 6 14 1 -2
BITMAP
0C
0C
00
00
C0
C0
00
00
0C
0C
00
00
0C
0C
ENDCHAR
STARTCHAR U+28AB
ENCODING 10411
SWIDTH 500 0
DWIDTH 8 0
BBX 6 14 1 -2
BITMAP
CC
CC
00
00
C0
C0
00
00
0C
0C
00
00
0C
0C
ENDCHAR
STARTCHAR U+28AC
ENCODING 10412
SWIDTH 500 0
DWIDTH 8 0
BBX 6 14 1 -2
BITMAP
0C
0C
00
00
00
00
00
00
CC
CC
00
00
0C
0C
ENDCHAR
STARTCHAR U+28AD
ENCODING 10413
SWIDTH 500 0
DWIDTH 8 0
BBX 6 14 1 -2
BITMAP
CC
CC
00
00
00
00
00
00
CC
CC
00
00
0C
0C
ENDCHAR
STARTCHAR U+28AE
ENCODING 10414
SWIDTH 500 0
DWIDTH 8 0
BBX 6 14 1 -2
BITMAP
0C
0C
00
00
C0
C0
00
00
CC
CC
00
00
0C
0C
ENDCHAR
STARTCHAR U+28AF
ENCODING 10415
SWIDTH 500 0
DWIDTH 8 0
BBX 6 14 1 -2
BITMAP
CC
CC
00
00
C0
C0
00
00
CC
CC
00
00
0C
0C
ENDCHAR
STARTCHAR U+28B0
ENCODING 10416
SWIDTH 500 0
DWIDTH 8 0
BBX 2 10 5 -2
BITMAP
C0
C0
00
00
C0
C0
00
00
C0
C0
ENDCHAR
STARTCHAR U+28B1
ENCODING 10417
SWIDTH 500 0
DWIDTH 8 0
BBX 6 14 1 -2
BITMAP
C0
C0
00
00
0C
0C
00
00
0C
0C
00
00
0C
0C
ENDCHAR
STARTCHAR U+28B2
ENCODING 10418
SWIDTH 500 0
DWIDTH 8 0
BBX 6 10 1 -2
BITMAP
CC
CC
00
00
0C
0C
00
00
0C
0C
ENDCHAR
STARTCHAR U+28B3
ENCODING 10419
SWIDTH 500 0
DWIDTH 8 0
BBX 6 14 1 -2
BITMAP
C0
C0
00
00
CC
CC
00
00
0C
0C
00
00
0C
0C
ENDCHAR
STARTCHAR U+28B4
ENCODING 10420
SWIDTH 500 0
DWIDTH 8 0
BBX 6 10 1 -2
BITMAP
0C
0C
00
00
CC
CC
00
00
0C
0C
ENDCHAR
STARTCHAR U+28B5
ENCODING 10421
SWIDTH 500 0
DWIDTH 8 0
BBX 6 14 1 -2
BITMAP
C0
C0
00
00
0C
0C
00
00
CC
CC
00
00
0C
0C
ENDCHAR
STARTCHAR U+28B6
ENCODING 10422
SWIDTH 500 0
DWIDTH 8 0
BBX 6 10 1 -2
BITMAP
CC
CC
00
00
CC
CC
00
00
0C
0C
ENDCHAR
STARTCHAR U+28B7
ENCODING 10423
SWIDTH 500 0
DWIDTH 8 0
BBX 6 14 1 -2
BITMAP
C0
C0
00
00
CC
CC
00
00
CC
CC
00
00
0C
0C
ENDCHAR
STARTCHAR U+28B8
ENCODING 10424
SWIDTH 500 0
DWIDTH 8 0
BBX 2 14 5 -2
BITMAP
C0
C0
00
00
C0
C0
00
00
C0
C0
00
00
C0
C0
ENDCHAR
STARTCHAR U+28B9
ENCODING 10425
SWIDTH 500 0
DWIDTH 8 0
BBX 6 14 1 -2
BITMAP
CC
CC
00
00
0C
0C
00
00
0C
0C
00
00
0C
0C
ENDCHAR
STARTCHAR U+28BA
ENCODING 10426
SWIDTH 500 0
DWIDTH 8 0
BBX 6 14 1 -2
BITMAP
0C
0C
00
00
CC
CC
00
00
0C
0C
00
00
0C
0C
ENDCHAR
STARTCHAR U+28BB
ENCODING 10427
SWIDTH 500 0
DWIDTH 8 0
BBX 6 14 1 -2
BITMAP
CC
CC
00
00
CC
CC
00
00
0C
0C
00
00
0C
0C
ENDCHAR
STARTCHAR U+28BC
ENCODING 10428
SWIDTH 500 0
DWIDTH 8 0
BBX 6 14 1 -2
BITMAP
0C
0C
00
00
0C
0C
00
00
CC
CC
00
00
0C
0C
ENDCHAR
STARTCHAR U+28BD
ENCODING 10429
SWIDTH 500 0
DWIDTH 8 0
BBX 6 14 1 -2
BITMAP
CC
CC
00
00
0C
0C
00
00
CC
CC
00
00
0C
0C
ENDCHAR
STARTCHAR U+28BE
ENCODING 10430
SWIDTH 500 0
DWIDTH 8 0
BBX 6 14 1 -2
BITMAP
0C
0C
00
00
CC
CC
00
00
CC
CC
00
00
0C
0C
ENDCHAR
STARTCHAR U+28BF
ENCODING 10431
SWIDTH 500 0
DWIDTH 8 0
BBX 6 14 1 -2
BITMAP
CC
CC
00
00
CC
CC
00
00
CC
CC
00
00
0C
0C
ENDCHAR
STARTCHAR U+28C0
ENCODING 10432
SWIDTH 500 0
DWIDTH 8 0
BBX 6 2 1 -2
BITMAP
CC
CC
ENDCHAR
STARTCHAR U+28C1
ENCODING 10433
SWIDTH 500 0
DWIDTH 8 0
BBX 6 14 1 -2
BITMAP
C0
C0
00
00
00
00
00
00
00
00
00
00
CC
CC
ENDCHAR
STARTCHAR U+28C2
ENCODING 10434
SWIDTH 500 0
DWIDTH 8 0
BBX 6 10 1 -2
BITMAP
C0
C0
00
00
00
00
00
00
CC
CC
ENDCHAR
STARTCHAR U+28C3
ENCODING 10435
SWIDTH 500 0
DWIDTH 8 0
BBX 6 14 1 -2
BITMAP
C0
C0
00
00
C0
C0
00
00
00
00
00
00
CC
CC
ENDCHAR
STARTCHAR U+28C4
ENCODING 10436
SWIDTH 500 0
DWIDTH 8 0
BBX 6 6 1 -2
BITMAP
C0
C0
00
00
CC
CC
ENDCHAR
STARTCHAR U+28C5
ENCODING 10437
SWIDTH 500 0
DWIDTH 8 0
BBX 6 14 1 -2
BITMAP
C0
C0
00
00
00
00
00
00
C0
C0
00
00
CC
CC
ENDCHAR
STARTCHAR U+28C6
ENCODING 10438
SWIDTH 500 0
DWIDTH 8 0
BBX 6 10 1 -2
BITMAP
C0
C0
00
00
C0
C0
00
00
CC
CC
ENDCHAR
STARTCHAR U+28C7
ENCODING 10439
SWIDTH 500 0
DWIDTH 8 0
BBX 6 14 1 -2
BITMAP
C0
C0
00
00
C0
C0
00
00
C0
C0
00
00
CC
CC
ENDCHAR
STARTCHAR U+28C8
ENCODING 10440
SWIDTH 500 0
DWIDTH 8 0
BBX 6 14 1 -2
BITMAP
0C
0C
00
00
00
00
00
00
00
00
00
00
CC
CC
ENDCHAR
STARTCHAR U+28C9
ENCODING 10441
SWIDTH 500 0
DWIDTH 8 0
BBX 6 14 1 -2
BITMAP
CC
CC
00
00
00
00
00
00
00
00
00
00
CC
CC
ENDCHAR
STARTCHAR U+28CA
ENCODING 10442
SWIDTH 500 0
DWIDTH 8 0
BBX 6 14 1 -2
BITMAP
0C
0C
00
00
C0
C0
00
00
00
00
00
00
CC
CC
ENDCHAR
STARTCHAR U+28CB
ENCODING 10443
SWIDTH 500 0
DWIDTH 8 0
BBX 6 14 1 -2
BITMAP
CC
CC
00
00
C0
C0
00
00
00
00
00
00
CC
CC
ENDCHAR
STARTCHAR U+28CC
ENCODING 10444
SWIDTH 500 0
DWIDTH 8 0
BBX 6 14 1 -2
BITMAP
0C
0C
00
00
00
00
00
00
C0
C0
00
00
CC
CC
ENDCHAR
STARTCHAR U+28CD
ENCODING 10445
SWIDTH 500 0
DWIDTH 8 0
BBX 6 14 1 -2
BITMAP
CC
CC
00
00
00
00
00
00
C0
C0
00
00
CC
CC
ENDCHAR
STARTCHAR U+28CE
ENCODING 10446
SWIDTH 500 0
DWIDTH 8 0
BBX 6 14 1 -2
BITMAP
0C
0C
00
00
C0
C0
00
00
C0
C0
00
00
CC
CC
ENDCHAR
STARTCHAR U+28CF
ENCODING 10447
SWIDTH 500 0
DWIDTH 8 0
BBX 6 14 1 -2
BITMAP
CC
CC
00
00
C0
C0
00
00
C0
C0
00
00
CC
CC
ENDCHAR
STARTCHAR U+28D0
ENCODING 10448
SWIDTH 500 0
DWIDTH 8 0
BBX 6 10 1 -2
BITMAP
0C
0C
00
00
00
00
00
00
CC
CC
ENDCHAR
STARTCHAR U+28D1
ENCODING 10449
SWIDTH 500 0
DWIDTH 8 0
BBX 6 14 1 -2
BITMAP
C0
C0
00
00
0C
0C
00
00
00
00
00
00
CC
CC
ENDCHAR
STARTCHAR U+28D2
ENCODING 10450
SWIDTH 500 0
DWIDTH 8 0
BBX 6 10 1 -2
BITMAP
CC
CC
00
00
00
00
00
00
CC
CC
ENDCHAR
STARTCHAR U+28D3
ENCODING 10451
SWIDTH 500 0
DWIDTH 8 0
BBX 6 14 1 -2
BITMAP
C0
C0
00
00
CC
CC
00
00
00
00
00
00
CC
CC
ENDCHAR
STARTCHAR U+28D4
ENCODING 10452
SWIDTH 500 0
DWIDTH 8 0
BBX 6 10 1 -2
BITMAP
0C
0C
00
00
C0
C0
00
00
CC
CC
ENDCHAR
STARTCHAR U+28D5
ENCODING 10453
SWIDTH 500 0
DWIDTH 8 0
BBX 6 14 1 -2
BITMAP
C0
C0
00
00
0C
0C
00
00
C0
C0
00
00
CC
CC
ENDCHAR
STARTCHAR U+28D6
ENCODING 10454
SWIDTH 500 0
DWIDTH 8 0
BBX 6 10 1 -2
BITMAP
CC
CC
00
00
C0
C0
00
00
CC
CC
ENDCHAR
STARTCHAR U+28D7
ENCODING 10455
SWIDTH 500 0
DWIDTH 8 0
BBX 6 14 1 -2
BITMAP
C0
C0
00
00
CC
CC
00
00
C0
C0
00
00
CC
CC
ENDCHAR
STARTCHAR U+28D8
ENCODING 10456
SWIDTH 500 0
DWIDTH 8 0
BBX 6 14 1 -2
BITMAP
0C
0C
00
00
0C
0C
00
00
00
00
00
00
CC
CC
ENDCHAR
STARTCHAR U+28D9
ENCODING 10457
SWIDTH 500 0
DWIDTH 8 0
BBX 6 14 1 -2
BITMAP
CC
CC
00
00
0C
0C
00
00
00
00
00
00
CC
CC
ENDCHAR
STARTCHAR U+28DA
ENCODING 10458
SWIDTH 500 0
DWIDTH 8 0
BBX 6 14 1 -2
BITMAP
0C
0C
00
00
CC
CC
00
00
00
00
00
00
CC
CC
ENDCHAR
STARTCHAR U+28DB
ENCODING 10459
SWIDTH 500 0
DWIDTH 8 0
BBX 6 14 1 -2
BITMAP
CC
CC
00
00
CC
CC
00
00
00
00
00
00
CC
CC
ENDCHAR
STARTCHAR U+28DC
ENCODING 10460
SWIDTH 500 0
DWIDTH 8 0
BBX 6 14 1 -2
BITMAP
0C
0C
00
00
0C
0C
00
00
C0
C0
00
00
CC
CC
ENDCHAR
STARTCHAR U+28DD
ENCODING 10461
SWIDTH 500 0
DWIDTH 8 0
BBX 6 14 1 -2
BITMAP
CC
CC
00
00
0C
0C
00
00
C0
C0
00
00
CC
CC
ENDCHAR
STARTCHAR U+28DE
ENCODING 10462
SWIDTH 500 0
DWIDTH 8 0
BBX 6 14 1 -2
BITMAP
0C
0C
00
00
CC
CC
00
00
C0
C0
00
00
CC
CC
ENDCHAR
STARTCHAR U+28DF
ENCODING 10463
SWIDTH 500 0
DWIDTH 8 0
BBX 6 14 1 -2
BITMAP
CC
CC
00
00
CC
CC
00
00
C0
C0
00
00
CC
CC
ENDCHAR
STARTCHAR U+28E0
ENCODING 10464
SWIDTH 500 0
DWIDTH 8 0
BBX 6 6 1 -2
BITMAP
0C
0C
00
00
CC
CC
ENDCHAR
STARTCHAR U+28E1
ENCODING 10465
SWIDTH 500 0
DWIDTH 8 0
BBX 6 14 1 -2
BITMAP
C0
C0
00
00
00
00
00
00
0C
0C
00
00
CC
CC
ENDCHAR
STARTCHAR U+28E2
ENCODING 10466
SWIDTH 500 0
DWIDTH 8 0
BBX 6 10 1 -2
BITMAP
C0
C0
00
00
0C
0C
00
00
CC
CC
ENDCHAR
STARTCHAR U+28E3
ENCODING 10467
SWIDTH 500 0
DWIDTH 8 0
BBX 6 14 1 -2
BITMAP
C0
C0
00
00
C0
C0
00
00
0C
0C
00
00
CC
CC
ENDCHAR
STARTCHAR U+28E4
ENCODING 10468
SWIDTH 500 0
DWIDTH 8 0
BBX 6 6 1 -2
BITMAP
CC
CC
00
00
CC
CC
ENDCHAR
STARTCHAR U+28E5
ENCODING 10469
SWIDTH 500 0
DWIDTH 8 0
BBX 6 14 1 -2
BITMAP
C0
C0
00
00
00
00
00
00
CC
CC
00
00
CC
CC
ENDCHAR
STARTCHAR U+28E6
ENCODING 10470
SWIDTH 500 0
DWIDTH 8 0
BBX 6 10 1 -2
BITMAP
C0
C0
00
00
CC
CC
00
00
CC
CC
ENDCHAR
STARTCHAR U+28E7
ENCODING 10471
SWIDTH 500 0
DWIDTH 8 0
BBX 6 14 1 -2
BITMAP
C0
C0
00
00
C0
C0
00
00
CC
CC
00
00
CC
CC
ENDCHAR
STARTCHAR U+28E8
ENCODING 10472
SWIDTH 500 0
DWIDTH 8 0
BBX 6 14 1 -2
BITMAP
0C
0C
00
00
00
00
00
00
0C
0C
00
00
CC
CC
ENDCHAR
STARTCHAR U+28E9
ENCODING 10473
SWIDTH 500 0
DWIDTH 8 0
BBX 6 14 1 -2
BITMAP
CC
CC
00
00
00
00
00
00
0C
0C
00
00
CC
CC
ENDCHAR
STARTCHAR U+28EA
ENCODING 10474
SWIDTH 500 0
DWIDTH 8 0
BBX 6 14 1 -2
BITMAP
0C
0C
00
00
C0
C0
00
00
0C
0C
00
00
CC
CC
ENDCHAR
STARTCHAR U+28EB
ENCODING 10475
SWIDTH 500 0
DWIDTH 8 0
BBX 6 14 1 -2
BITMAP
CC
CC
00
00
C0
C0
00
00
0C
0C
00
00
CC
CC
ENDCHAR
STARTCHAR U+28EC
ENCODING 10476
SWIDTH 500 0
DWIDTH 8 0
BBX 6 14 1 -2
BITMAP
0C
0C
00
00
00
00
00
00
CC
CC
00
00
CC
CC
ENDCHAR
STARTCHAR U+28ED
ENCODING 10477
SWIDTH 500 0
DWIDTH 8 0
BBX 6 14 1 -2
BITMAP
CC
CC
00
00
00
00
00
00
CC
CC
00
00
CC
CC
ENDCHAR
STARTCHAR U+28EE
ENCODING 10478
SWIDTH 500 0
DWIDTH 8 0
BBX 6 14 1 -2
BITMAP
0C
0C
00
00
C0
C0
00
00
CC
CC
00
00
CC
CC
ENDCHAR
STARTCHAR U+28EF
ENCODING 10479
SWIDTH 500 0
DWIDTH 8 0
BBX 6 14 1 -2
BITMAP
CC
CC
00
00
C0
C0
00
00
CC
CC
00
00
CC
CC
ENDCHAR
STARTCHAR U+28F0
ENCODING 10480
SWIDTH 500 0
DWIDTH 8 0
BBX 6 10 1 -2
BITMAP
0C
0C
00
00
0C
0C
00
00
CC
CC
ENDCHAR
STARTCHAR U+28F1
ENCODING 10481
SWIDTH 500 0
DWIDTH 8 0
BBX 6 14 1 -2
BITMAP
C0
C0
00
00
0C
0C
00
00
0C
0C
00
00
CC
CC
ENDCHAR
STARTCHAR U+28F2
ENCODING 10482
SWIDTH 500 0
DWIDTH 8 0
BBX 6 10 1 -2
BITMAP
CC
CC
00
00
0C
0C
00
00
CC
CC
ENDCHAR
STARTCHAR U+28F3
ENCODING 10483
SWIDTH 500 0
DWIDTH 8 0
BBX 6 14 1 -2
BITMAP
C0
C0
00
00
CC
CC
00
00
0C
0C
00
00
CC
CC
ENDCHAR
STARTCHAR U+28F4
ENCODING 10484
SWIDTH 500 0
DWIDTH 8 0
BBX 6 10 1 -2
BITMAP
0C
0C
00
00
CC
CC
00
00
CC
CC
ENDCHAR
STARTCHAR U+28F5
ENCODING 10485
SWIDTH 500 0
DWIDTH 8 0
BBX 6 14 1 -2
BITMAP
C0
C0
00
00
0C
0C
00
00
CC
CC
00
00
CC
CC
ENDCHAR
STARTCHAR U+28F6
ENCODING 10486
SWIDTH 500 0
DWIDTH 8 0
BBX 6 10 1 -2
BITMAP
CC
CC
00
00
CC
CC
00
00
CC
CC
ENDCHAR
STARTCHAR U+28F7
ENCODING 10487
SWIDTH 500 0
DWIDTH 8 0
BBX 6 14 1 -2
BITMAP
C0
C0
00
00
CC
CC
00
00
CC
CC
00
00
CC
CC
ENDCHAR
STARTCHAR U+28F8
ENCODING 10488
SWIDTH 500 0
DWIDTH 8 0
BBX 6 14 1 -2
BITMAP
0C
0C
00
00
0C
0C
00
00
0C
0C
00
00
CC
CC
ENDCHAR
STARTCHAR U+28F9
ENCODING 10489
SWIDTH 500 0
DWIDTH 8 0
BBX 6 14 1 -2
BITMAP
CC
CC
00
00
0C
0C
00
00
0C
0C
00
00
CC
CC
ENDCHAR
STARTCHAR U+28FA
ENCODING 10490
SWIDTH 500 0
DWIDTH 8 0
BBX 6 14 1 -2
BITMAP
0C
0C
00
00
CC
CC
00
00
0C
0C
00
00
CC
CC
ENDCHAR
STARTCHAR U+28FB
ENCODING 10491
SWIDTH 500 0
DWIDTH 8 0
BBX 6 14 1 -2
BITMAP
CC
CC
00
00
CC
CC
00
00
0C
0C
00
00
CC
CC
ENDCHAR
STARTCHAR U+28FC
ENCODING 10492
SWIDTH 500 0
DWIDTH 8 0
BBX 6 14 1 -2
BITMAP
0C
0C
00
00
0C
0C
00
00
CC
CC
00
00
CC
CC
ENDCHAR
STARTCHAR U+28FD
ENCODING 10493
SWIDTH 500 0
DWIDTH 8 0
BBX 6 14 1 -2
BITMAP
CC
CC
00
00
0C
0C
00
00
CC
CC
00
00
CC
CC
ENDCHAR
STARTCHAR U+28FE
ENCODING 10494
SWIDTH 500 0
DWIDTH 8 0
BBX 6 14 1 -2
BITMAP
0C
0C
00
00
CC
CC
00
00
CC
CC
00
00
CC
CC
ENDCHAR
STARTCHAR U+28FF
ENCODING 10495
SWIDTH 500 0
DWIDTH 8 0
BBX 6 14 1 -2
BITMAP
CC
CC
00
00
CC
CC
00
00
CC
CC
00
00
CC
CC
ENDCHAR
STARTCHAR U+3000
ENCODING 12288
SWIDTH 1000 0
DWIDTH 16 0
BBX 0 0 0 0
BITMAP
ENDCHAR
STARTCHAR U+3001
ENCODING 12289
SWIDTH 1000 0
DWIDTH 16 0
BBX 4 5 1 -2
BITMAP
80
40
60
30
30
ENDCHAR
STARTCHAR U+3002
ENCODING 12290
SWIDTH 1000 0
DWIDTH 16 0
BBX 4 4 2 -2
BITMAP
60
90
90
60
ENDCHAR
STARTCHAR U+3003
ENCODING 12291
SWIDTH 1000 0
DWIDTH 16 0
BBX 8 5 4 3
BITMAP
33
33
66
44
88
ENDCHAR
STARTCHAR U+3008
ENCODING 12296
SWIDTH 1000 0
DWIDTH 16 0
BBX 7 12 7 -1
BITMAP
06
0C
18
30
60
C0
C0
60
30
18
0C
06
ENDCHAR
STARTCHAR U+3009
ENCODING 12297
SWIDTH 1000 0
DWIDTH 16 0
BBX 7 12 2 -1
BITMAP
C0
60
30
18
0C
06
06
0C
18
30
60
C0
ENDCHAR
STARTCHAR U+300A
ENCODING 12298
SWIDTH 1000 0
DWIDTH 16 0
BBX 11 12 3 -1
BITMAP
0660
0CC0
1980
3300
6600
CC00
CC00
6600
3300
1980
0CC0
0660
ENDCHAR
STARTCHAR U+300B
ENCODING 12299
SWIDTH 1000 0
DWIDTH 16 0
BBX 11 12 2 -1
BITMAP
CC00
6600
3300
1980
0CC0
0660
0660
0CC0
1980
3300
6600
CC00
ENDCHAR
STARTCHAR U+300C
ENCODING 12300
SWIDTH 1000 0
DWIDTH 16 0
BBX 6 9 8 2
BITMAP
FC
FC
C0
C0
C0
C0
C0
C0
C0
ENDCHAR
STARTCHAR U+300D
ENCODING 12301
SWIDTH 1000 0
DWIDTH 16 0
BBX 6 9 2 -1
BITMAP
0C
0C
0C
0C
0C
0C
0C
FC
FC
ENDCHAR
STARTCHAR U+300E
ENCODING 12302
SWIDTH 1000 0
DWIDTH 16 0
BBX 6 8 8 3
BITMAP
FC
84
BC
A0
A0
A0
A0
E0
ENDCHAR
STARTCHAR U+300F
ENCODING 12303
SWIDTH 1000 0
DWIDTH 16 0
BBX 6 8 2 -1
BITMAP
1C
14
14
14
14
F4
84
FC
ENDCHAR
STARTCHAR U+3010
ENCODING 12304
SWIDTH 1000 0
DWIDTH 16 0
BBX 6 12 8 -1
BITMAP
FC
F0
E0
C0
C0
C0
C0
C0
C0
E0
F0
FC
ENDCHAR
STARTCHAR U+3011
ENCODING 12305
SWIDTH 1000 0
DWIDTH 16 0
BBX 6 12 2 -1
BITMAP
FC
3C
1C
0C
0C
0C
0C
0C
0C
1C
3C
FC
ENDCHAR
STARTCHAR U+3013
ENCODING 12307
SWIDTH 1000 0
DWIDTH 16 0
BBX 10 4 3 3
BITMAP
FFC0
0000
0000
FFC0
ENDCHAR
STARTCHAR U+3014
ENCODING 12308
SWIDTH 1000 0
DWIDTH 16 0
BBX 4 12 9 -1
BITMAP
30
60
C0
C0
C0
C0
C0
C0
C0
C0
60
30
ENDCHAR
STARTCHAR U+3015
ENCODING 12309
SWIDTH 1000 0
DWIDTH 16 0
BBX 4 12 3 -1
BITMAP
C0
60
30
30
30
30
30
30
30
30
60
C0
ENDCHAR
STARTCHAR U+301C
ENCODING 12316
SWIDTH 1000 0
DWIDTH 16 0
BBX 10 3 3 5
BITMAP
7800
CCC0
0780
ENDCHAR
STARTCHAR U+3041
ENCODING 12353
SWIDTH 1000 0
DWIDTH 16 0
BBX 11 12 2 -2
BITMAP
0800
0800
0FC0
7800
0F80
3840
48A0
8920
8A20
8C20
7040
0180
ENDCHAR
STARTCHAR U+3042
ENCODING 12354
SWIDTH 1000 0
DWIDTH 16 0
BBX 13 15 1 -3
BITMAP
1000
0810
4860
3F80
0800
0F80
1860
2890
4888
8908
8608
8408
4810
3060
0180
ENDCHAR
STARTCHAR U+3043
ENCODING 12355
SWIDTH 1000 0
DWIDTH 16 0
BBX 11 9 2 -1
BITMAP
4000
4080
8040
8040
8820
9020
9020
6000
2000
ENDCHAR
STARTCHAR U+3044
ENCODING 12356
SWIDTH 1000 0
DWIDTH 16 0
BBX 13 13 1 -2
BITMAP
4000
4080
4040
8020
8010
8410
8408
8808
8808
9000
5000
7000
2000
ENDCHAR
STARTCHAR U+3045
ENCODING 12357
SWIDTH 1000 0
DWIDTH 16 0
BBX 9 12 3 -2
BITMAP
4000
3E00
0000
0E00
B100
4080
0080
0080
0100
0200
0C00
3000
ENDCHAR
STARTCHAR U+3046
ENCODING 12358
SWIDTH 1000 0
DWIDTH 16 0
BBX 11 15 2 -3
BITMAP
3C00
0380
0000
0000
0780
9840
6020
0020
0020
0020
0040
0040
0180
0600
3800
ENDCHAR
STARTCHAR U+3047
ENCODING 12359
SWIDTH 1000 0
DWIDTH 16 0
BBX 9 11 3 -2
BITMAP
2000
1C00
0000
8F00
7200
0400
0800
1400
2400
4400
8380
ENDCHAR
STARTCHAR U+3048
ENCODING 12360
SWIDTH 1000 0
DWIDTH 16 0
BBX 13 14 1 -2
BITMAP
1C00
0380
0040
0000
43C0
3C80
0100
0200
0700
0880
1080
2080
4080
8078
ENDCHAR
STARTCHAR U+3049
ENCODING 12361
SWIDTH 1000 0
DWIDTH 16 0
BBX 11 12 2 -2
BITMAP
0800
0800
8E40
7820
0820
3F00
4880
8840
8840
8840
7080
0300
ENDCHAR
STARTCHAR U+304A
ENCODING 12362
SWIDTH 1000 0
DWIDTH 16 0
BBX 13 14 1 -2
BITMAP
1000
0820
0890
8F08
7808
0800
0F80
3860
4810
8810
8810
8810
4820
30C0
ENDCHAR
STARTCHAR U+304B
ENCODING 12363
SWIDTH 1000 0
DWIDTH 16 0
BBX 13 14 1 -2
BITMAP
0800
0400
0440
0420
8710
7890
0888
0888
1088
1080
2080
2100
4D00
0200
ENDCHAR
STARTCHAR U+304C
ENCODING 12364
SWIDTH 1000 0
DWIDTH 16 0
BBX 14 15 1 -2
BITMAP
0048
0824
0424
0400
0420
8710
7890
0888
0888
1088
1080
2080
2100
4D00
0200
ENDCHAR
STARTCHAR U+304D
ENCODING 12365
SWIDTH 1000 0
DWIDTH 16 0
BBX 13 14 1 -2
BITMAP
0200
0210
41E0
3F00
0108
80F0
7F80
0040
0F40
30E0
4020
4000
3000
0F80
ENDCHAR
STARTCHAR U+304E
ENCODING 12366
SWIDTH 1000 0
DWIDTH 16 0
BBX 15 15 0 -2
BITMAP
0004
0212
020A
41E8
3F00
0108
80F0
7F80
0040
0F40
30E0
4020
4000
3000
0F80
ENDCHAR
STARTCHAR U+304F
ENCODING 12367
SWIDTH 1000 0
DWIDTH 16 0
BBX 10 15 2 -3
BITMAP
0080
0100
0200
0C00
1000
6000
8000
8000
6000
1000
0C00
0200
0100
0080
0040
ENDCHAR
STARTCHAR U+3050
ENCODING 12368
SWIDTH 1000 0
DWIDTH 16 0
BBX 13 15 2 -3
BITMAP
0080
0100
0210
0C88
1048
6040
8000
8000
6000
1000
0C00
0200
0100
0080
0040
ENDCHAR
STARTCHAR U+3051
ENCODING 12369
SWIDTH 1000 0
DWIDTH 16 0
BBX 13 14 1 -2
BITMAP
0080
4040
4040
8048
8870
87C0
8040
8040
8040
9040
A080
4080
4100
0200
ENDCHAR
STARTCHAR U+3052
ENCODING 12370
SWIDTH 1000 0
DWIDTH 16 0
BBX 14 15 1 -2
BITMAP
0028
0014
4094
4040
8048
8870
87C0
8040
8040
8040
9040
A080
4080
4100
0200
ENDCHAR
STARTCHAR U+3053
ENCODING 12371
SWIDTH 1000 0
DWIDTH 16 0
BBX 11 13 2 -2
BITMAP
2020
1FC0
0000
0000
0000
2000
4000
8000
8000
8000
8000
6020
1FC0
ENDCHAR
STARTCHAR U+3054
ENCODING 12372
SWIDTH 1000 0
DWIDTH 16 0
BBX 14 15 1 -2
BITMAP
0008
0024
2014
1FD0
0000
0000
0000
2000
4000
8000
8000
8000
8000
6020
1FC0
ENDCHAR
STARTCHAR U+3055
ENCODING 12373
SWIDTH 1000 0
DWIDTH 16 0
BBX 12 14 1 -2
BITMAP
0200
0200
0110
81E0
7F00
0080
0080
0F40
30C0
4020
4000
4000
3000
0F80
ENDCHAR
STARTCHAR U+3056
ENCODING 12374
SWIDTH 1000 0
DWIDTH 16 0
BBX 14 15 1 -2
BITMAP
0048
0224
0224
0110
81E0
7F00
0080
0080
0F40
30C0
4020
4000
4000
3000
0F80
ENDCHAR
STARTCHAR U+3057
ENCODING 12375
SWIDTH 1000 0
DWIDTH 16 0
BBX 11 14 3 -2
BITMAP
8000
8000
8000
8000
8000
8000
8000
8020
8020
8040
8040
8080
6300
1C00
ENDCHAR
STARTCHAR U+3058
ENCODING 12376
SWIDTH 1000 0
DWIDTH 16 0
BBX 11 14 3 -2
BITMAP
8000
8080
8440
8240
8200
8000
8000
8020
8020
8040
8040
8080
6300
1C00
ENDCHAR
STARTCHAR U+3059
ENCODING 12377
SWIDTH 1000 0
DWIDTH 16 0
BBX 13 14 1 -2
BITMAP
0100
0088
80F0
7F80
0080
0680
0980
0880
0980
0680
0080
0100
0200
0400
ENDCHAR
STARTCHAR U+305A
ENCODING 12378
SWIDTH 1000 0
DWIDTH 16 0
BBX 15 15 0 -2
BITMAP
0024
0112
0090
8086
7FF8
0080
0680
0980
0880
0980
0680
0080
0100
0200
0400
ENDCHAR
STARTCHAR U+305B
ENCODING 12379
SWIDTH 1000 0
DWIDTH 16 0
BBX 14 15 0 -2
BITMAP
0040
1020
0820
0824
0838
8FE0
7820
0820
0920
08E0
0840
0800
0800
0600
01F8
ENDCHAR
STARTCHAR U+305C
ENCODING 12380
SWIDTH 1000 0
DWIDTH 16 0
BBX 15 15 0 -2
BITMAP
0024
0012
1052
0820
0824
8FF8
7820
0820
0920
08E0
0840
0800
0800
0600
01F8
ENDCHAR
STARTCHAR U+305D
ENCODING 12381
SWIDTH 1000 0
DWIDTH 16 0
BBX 14 15 0 -3
BITMAP
21E0
1E20
00C0
0100
0600
083C
9FC0
6100
0200
0200
0400
0400
0400
0300
00E0
ENDCHAR
STARTCHAR U+305E
ENCODING 12382
SWIDTH 1000 0
DWIDTH 16 0
BBX 15 15 0 -3
BITMAP
23C4
1C52
008A
0108
0600
083C
9FC0
6100
0200
0200
0400
0400
0400
0300
00E0
ENDCHAR
STARTCHAR U+305F
ENCODING 12383
SWIDTH 1000 0
DWIDTH 16 0
BBX 13 14 0 -2
BITMAP
1000
0880
8F00
7800
08F0
0908
0800
1000
1000
1200
2200
2180
4078
4000
ENDCHAR
STARTCHAR U+3060
ENCODING 12384
SWIDTH 1000 0
DWIDTH 16 0
BBX 14 15 0 -2
BITMAP
0008
1024
0894
8F10
7800
08F0
0908
0800
1000
1000
1200
2200
2180
4078
4000
ENDCHAR
STARTCHAR U+3061
ENCODING 12385
SWIDTH 1000 0
DWIDTH 16 0
BBX 12 14 1 -2
BITMAP
2000
1020
90C0
7F00
1000
1000
23C0
2C20
3010
4010
4010
0020
00C0
0F00
ENDCHAR
STARTCHAR U+3062
ENCODING 12386
SWIDTH 1000 0
DWIDTH 16 0
BBX 14 15 1 -2
BITMAP
0048
2024
1024
90C0
7F00
1000
1000
23C0
2C20
3010
4010
4010
0020
00C0
0F00
ENDCHAR
STARTCHAR U+3063
ENCODING 12387
SWIDTH 1000 0
DWIDTH 16 0
BBX 11 9 1 -1
BITMAP
0780
9840
6020
0020
0020
0020
0040
0180
0E00
ENDCHAR
STARTCHAR U+3064
ENCODING 12388
SWIDTH 1000 0
DWIDTH 16 0
BBX 13 11 1 -1
BITMAP
0780
9860
6010
0008
0008
0008
0010
0010
0020
00C0
0F00
ENDCHAR
STARTCHAR U+3065
ENCODING 12389
SWIDTH 1000 0
DWIDTH 16 0
BBX 14 14 1 -1
BITMAP
0048
0024
0024
0780
9860
6010
0008
0008
0008
0010
0010
0020
00C0
0F00
ENDCHAR
STARTCHAR U+3066
ENCODING 12390
SWIDTH 1000 0
DWIDTH 16 0
BBX 13 14 1 -2
BITMAP
0010
87F8
7880
0100
0200
0400
0400
0800
0800
0800
0400
0400
0300
00C0
ENDCHAR
STARTCHAR U+3067
ENCODING 12391
SWIDTH 1000 0
DWIDTH 16 0
BBX 14 14 1 -2
BITMAP
0010
87F8
7880
0100
0248
0424
0424
0800
0800
0800
0400
0400
0300
00C0
ENDCHAR
STARTCHAR U+3068
ENCODING 12392
SWIDTH 1000 0
DWIDTH 16 0
BBX 11 14 2 -2
BITMAP
1000
1000
1000
1000
1060
1380
0C00
3000
4000
8000
8000
8000
6000
1FE0
ENDCHAR
STARTCHAR U+3069
ENCODING 12393
SWIDTH 1000 0
DWIDTH 16 0
BBX 11 15 2 -2
BITMAP
0040
1120
10A0
1080
1000
1060
1380
0C00
3000
4000
8000
8000
8000
6000
1FE0
ENDCHAR
STARTCHAR U+306A
ENCODING 12394
SWIDTH 1000 0
DWIDTH 16 0
BBX 13 14 1 -2
BITMAP
1000
0900
8E00
7000
11E0
1010
2030
2040
4040
4040
87C0
0870
0848
0780
ENDCHAR
STARTCHAR U+306B
ENCODING 12395
SWIDTH 1000 0
DWIDTH 16 0
BBX 12 14 2 -2
BITMAP
4000
4010
8FE0
8080
8100
8000
8000
8000
9200
A400
A400
C410
43E0
4000
ENDCHAR
STARTCHAR U+306C
ENCODING 12396
SWIDTH 1000 0
DWIDTH 16 0
BBX 14 14 1 -2
BITMAP
0100
4100
47C0
4920
3110
6208
5208
9208
9208
8C08
8CE8
4918
3114
00E0
ENDCHAR
STARTCHAR U+306D
ENCODING 12397
SWIDTH 1000 0
DWIDTH 16 0
BBX 14 14 0 -2
BITMAP
1000
0800
0CE0
9D10
6A08
0C08
1808
1808
A808
48E8
0918
0918
08E4
0800
ENDCHAR
STARTCHAR U+306E
ENCODING 12398
SWIDTH 1000 0
DWIDTH 16 0
BBX 13 12 1 -1
BITMAP
0F80
3260
4210
4208
8408
8408
8408
8408
8808
4810
3020
00C0
ENDCHAR
STARTCHAR U+306F
ENCODING 12399
SWIDTH 1000 0
DWIDTH 16 0
BBX 12 13 2 -1
BITMAP
4100
4080
8090
90E0
8F80
8080
8080
8080
9080
A7C0
A8A0
C890
4700
ENDCHAR
STARTCHAR U+3070
ENCODING 12400
SWIDTH 1000 0
DWIDTH 16 0
BBX 13 15 2 -2
BITMAP
0090
0048
4148
4080
8090
90E0
8F80
8080
8080
8080
9080
A7C0
A8A0
4890
4700
ENDCHAR
STARTCHAR U+3071
ENCODING 12401
SWIDTH 1000 0
DWIDTH 16 0
BBX 13 15 2 -2
BITMAP
0030
0048
4148
40B0
8090
90E0
8F80
8080
8080
8080
9080
A7C0
A8A0
4890
4700
ENDCHAR
STARTCHAR U+3072
ENCODING 12402
SWIDTH 1000 0
DWIDTH 16 0
BBX 15 13 0 -2
BITMAP
8C20
7420
0810
1018
1014
2012
2010
2010
2010
2020
1020
0840
0780
ENDCHAR
STARTCHAR U+3073
ENCODING 12403
SWIDTH 1000 0
DWIDTH 16 0
BBX 15 15 0 -2
BITMAP
0014
000A
8C2A
7420
0810
1018
1014
2012
2010
2010
2010
2020
1020
0840
0780
ENDCHAR
STARTCHAR U+3074
ENCODING 12404
SWIDTH 1000 0
DWIDTH 16 0
BBX 15 15 0 -2
BITMAP
000C
0012
8C32
742C
0810
1018
1014
2012
2010
2010
2010
2020
1020
0840
0780
ENDCHAR
STARTCHAR U+3075
ENCODING 12405
SWIDTH 1000 0
DWIDTH 16 0
BBX 15 14 0 -2
BITMAP
0C00
0300
00C0
0100
0200
0200
0100
1108
2084
4084
4082
8C82
8380
0100
ENDCHAR
STARTCHAR U+3076
ENCODING 12406
SWIDTH 1000 0
DWIDTH 16 0
BBX 15 15 0 -2
BITMAP
0024
0C12
0312
00C0
0100
0200
0200
0100
1108
2084
4084
4082
8C82
8380
0100
ENDCHAR
STARTCHAR U+3077
ENCODING 12407
SWIDTH 1000 0
DWIDTH 16 0
BBX 15 15 0 -2
BITMAP
000C
0C12
0312
00CC
0100
0200
0200
0100
1108
2084
4084
4082
8C82
8380
0100
ENDCHAR
STARTCHAR U+3078
ENCODING 12408
SWIDTH 1000 0
DWIDTH 16 0
BBX 14 8 1 2
BITMAP
0600
0900
1080
A040
4040
0020
0010
000C
ENDCHAR
STARTCHAR U+3079
ENCODING 12409
SWIDTH 1000 0
DWIDTH 16 0
BBX 14 10 1 1
BITMAP
0048
0024
0624
0900
1080
A040
4040
0020
0010
000C
ENDCHAR
STARTCHAR U+307A
ENCODING 12410
SWIDTH 1000 0
DWIDTH 16 0
BBX 14 10 1 1
BITMAP
0018
0024
0624
0918
1080
A040
4040
0020
0010
000C
ENDCHAR
STARTCHAR U+307B
ENCODING 12411
SWIDTH 1000 0
DWIDTH 16 0
BBX 13 13 1 -1
BITMAP
0010
47E0
4040
8040
8848
87F0
8040
8040
9040
A7C0
A870
C848
4780
ENDCHAR
STARTCHAR U+307C
ENCODING 12412
SWIDTH 1000 0
DWIDTH 16 0
BBX 14 15 1 -2
BITMAP
0048
0024
0034
47E0
4040
8040
8848
87F0
8040
8040
9040
A7C0
A870
C848
4780
ENDCHAR
STARTCHAR U+307D
ENCODING 12413
SWIDTH 1000 0
DWIDTH 16 0
BBX 14 15 1 -2
BITMAP
0018
0024
0024
47F8
4040
8040
8848
87F0
8040
8040
9040
A7C0
A870
C848
4780
ENDCHAR
STARTCHAR U+307E
ENCODING 12414
SWIDTH 1000 0
DWIDTH 16 0
BBX 11 14 2 -2
BITMAP
0400
0220
83C0
7E00
0200
0220
43C0
3E00
0200
0200
7F00
82C0
8220
7C00
ENDCHAR
STARTCHAR U+307F
ENCODING 12415
SWIDTH 1000 0
DWIDTH 16 0
BBX 14 14 1 -2
BITMAP
0600
7B00
2200
0220
0210
0410
1F10
24D0
4430
8828
8844
9040
6080
0100
ENDCHAR
STARTCHAR U+3080
ENCODING 12416
SWIDTH 1000 0
DWIDTH 16 0
BBX 14 14 1 -2
BITMAP
0800
0900
8E00
7860
0818
1004
7000
9040
9020
9010
7010
1010
1060
0F80
ENDCHAR
STARTCHAR U+3081
ENCODING 12417
SWIDTH 1000 0
DWIDTH 16 0
BBX 13 14 1 -2
BITMAP
2080
2080
27C0
1920
3110
5110
5108
8A08
8A08
8408
8410
4810
3020
0040
ENDCHAR
STARTCHAR U+3082
ENCODING 12418
SWIDTH 1000 0
DWIDTH 16 0
BBX 13 15 1 -2
BITMAP
0400
0400
0480
4700
3800
0800
0880
8F10
7008
1008
1008
1008
1010
0C20
03C0
ENDCHAR
STARTCHAR U+3083
ENCODING 12419
SWIDTH 1000 0
DWIDTH 16 0
BBX 12 12 1 -3
BITMAP
2200
1100
11C0
1F20
F110
0810
0920
08C0
0800
0400
0400
0400
ENDCHAR
STARTCHAR U+3084
ENCODING 12420
SWIDTH 1000 0
DWIDTH 16 0
BBX 14 15 0 -3
BITMAP
1100
0880
0880
09F0
0E88
B844
4844
0804
0408
0430
0400
0200
0200
0200
0200
ENDCHAR
STARTCHAR U+3085
ENCODING 12421
SWIDTH 1000 0
DWIDTH 16 0
BBX 11 13 2 -3
BITMAP
0400
0200
4200
8F80
9240
A220
C220
8220
9240
4F80
0400
0800
1000
ENDCHAR
STARTCHAR U+3086
ENCODING 12422
SWIDTH 1000 0
DWIDTH 16 0
BBX 13 15 1 -3
BITMAP
0200
2100
4100
43E0
8D10
9108
A108
C108
C108
9110
8920
47C0
0200
0400
1800
ENDCHAR
STARTCHAR U+3087
ENCODING 12423
SWIDTH 1000 0
DWIDTH 16 0
BBX 8 11 3 -2
BITMAP
10
08
09
0E
08
08
08
7C
8A
89
70
ENDCHAR
STARTCHAR U+3088
ENCODING 12424
SWIDTH 1000 0
DWIDTH 16 0
BBX 11 14 2 -2
BITMAP
0800
0400
0400
0420
04C0
0700
0400
0400
0400
7C00
8700
84C0
8420
7800
ENDCHAR
STARTCHAR U+3089
ENCODING 12425
SWIDTH 1000 0
DWIDTH 16 0
BBX 11 14 2 -2
BITMAP
3C00
0300
8080
4000
4000
8000
8F80
B040
C020
8020
0020
0040
0380
1C00
ENDCHAR
STARTCHAR U+308A
ENCODING 12426
SWIDTH 1000 0
DWIDTH 16 0
BBX 11 14 2 -2
BITMAP
4000
4380
8440
8840
8820
9020
A020
A020
C020
4040
0040
0180
0600
3800
ENDCHAR
STARTCHAR U+308B
ENCODING 12427
SWIDTH 1000 0
DWIDTH 16 0
BBX 12 14 2 -2
BITMAP
0700
5880
2100
0200
0400
0B80
1840
2020
4010
8010
1C10
2320
20C0
1F00
ENDCHAR
STARTCHAR U+308C
ENCODING 12428
SWIDTH 1000 0
DWIDTH 16 0
BBX 14 14 1 -2
BITMAP
2000
1000
11C0
9220
7420
1820
1020
3020
5040
9040
1044
1048
1030
1000
ENDCHAR
STARTCHAR U+308D
ENCODING 12429
SWIDTH 1000 0
DWIDTH 16 0
BBX 12 14 2 -2
BITMAP
0380
9C80
6100
0200
0400
0F80
1840
2020
4010
8010
0010
0020
01C0
1E00
ENDCHAR
STARTCHAR U+308E
ENCODING 12430
SWIDTH 1000 0
DWIDTH 16 0
BBX 10 11 2 -2
BITMAP
4000
2000
2700
E880
3040
2040
6040
A040
2080
2100
2000
ENDCHAR
STARTCHAR U+308F
ENCODING 12431
SWIDTH 1000 0
DWIDTH 16 0
BBX 14 14 0 -2
BITMAP
1000
0800
0800
98F0
6B08
0C04
0804
1804
A804
4804
0808
0830
09C0
0800
ENDCHAR
STARTCHAR U+3090
ENCODING 12432
SWIDTH 1000 0
DWIDTH 16 0
BBX 13 13 1 -1
BITMAP
4700
3900
0100
0F80
1260
2210
4210
4408
8408
89C8
8A30
9230
61C8
ENDCHAR
STARTCHAR U+3091
ENCODING 12433
SWIDTH 1000 0
DWIDTH 16 0
BBX 13 15 1 -3
BITMAP
0780
78C0
2100
07C0
1820
2010
4E10
1120
0FC0
0800
1860
2490
4510
8208
8208
ENDCHAR
STARTCHAR U+3092
ENCODING 12434
SWIDTH 1000 0
DWIDTH 16 0
BBX 13 14 1 -2
BITMAP
0800
0440
8780
7800
0800
1C08
2230
41C0
8700
0900
1100
1000
0C00
03F0
ENDCHAR
STARTCHAR U+3093
ENCODING 12435
SWIDTH 1000 0
DWIDTH 16 0
BBX 14 14 1 -2
BITMAP
1000
0800
0800
1000
1000
1000
2C00
3200
2104
4104
4108
4108
8110
80E0
ENDCHAR
STARTCHAR U+30A1
ENCODING 12449
SWIDTH 1000 0
DWIDTH 16 0
BBX 10 11 2 -3
BITMAP
FFC0
0040
0080
0880
0900
0A00
1000
1000
2000
2000
4000
ENDCHAR
STARTCHAR U+30A2
ENCODING 12450
SWIDTH 1000 0
DWIDTH 16 0
BBX 13 14 1 -2
BITMAP
0010
81F8
7E10
0010
0420
0320
0240
0280
0400
0400
0800
0800
1000
2000
ENDCHAR
STARTCHAR U+30A3
ENCODING 12451
SWIDTH 1000 0
DWIDTH 16 0
BBX 9 11 3 -2
BITMAP
0080
0100
0200
0400
0C00
3400
C400
0400
0400
0400
0400
ENDCHAR
STARTCHAR U+30A4
ENCODING 12452
SWIDTH 1000 0
DWIDTH 16 0
BBX 12 14 1 -2
BITMAP
0020
0030
0020
0040
0080
0100
0700
1900
E100
0100
0100
0100
0100
0100
ENDCHAR
STARTCHAR U+30A5
ENCODING 12453
SWIDTH 1000 0
DWIDTH 16 0
BBX 9 12 3 -2
BITMAP
0800
0800
0800
FF80
8080
8080
8080
0100
0100
0200
0400
1800
ENDCHAR
STARTCHAR U+30A6
ENCODING 12454
SWIDTH 1000 0
DWIDTH 16 0
BBX 13 15 1 -2
BITMAP
0400
0200
0210
83F8
7C10
4010
4010
4010
0020
0020
0040
0040
0080
0100
0600
ENDCHAR
STARTCHAR U+30A7
ENCODING 12455
SWIDTH 1000 0
DWIDTH 16 0
BBX 9 8 3 -1
BITMAP
7F80
0800
0800
0800
0800
0800
0800
FF80
ENDCHAR
STARTCHAR U+30A8
ENCODING 12456
SWIDTH 1000 0
DWIDTH 16 0
BBX 14 11 1 0
BITMAP
0010
41F0
3E00
0300
0200
0200
0200
0200
0210
83F8
7C04
ENDCHAR
STARTCHAR U+30A9
ENCODING 12457
SWIDTH 1000 0
DWIDTH 16 0
BBX 10 11 2 -2
BITMAP
0200
0200
0200
FFC0
0A00
0A00
1200
1200
2200
4600
0200
ENDCHAR
STARTCHAR U+30AA
ENCODING 12458
SWIDTH 1000 0
DWIDTH 16 0
BBX 14 14 1 -2
BITMAP
0100
0080
0088
80FC
7F80
0280
0280
0480
0480
0880
1080
2080
C280
0180
ENDCHAR
STARTCHAR U+30AB
ENCODING 12459
SWIDTH 1000 0
DWIDTH 16 0
BBX 13 14 1 -2
BITMAP
0800
0400
0420
84F0
7F18
0410
0810
0810
1010
1020
2020
4120
80C0
0040
ENDCHAR
STARTCHAR U+30AC
ENCODING 12460
SWIDTH 1000 0
DWIDTH 16 0
BBX 15 15 1 -2
BITMAP
0024
0812
0412
0400
84F0
7F18
0410
0810
0810
1010
1020
2020
4120
80C0
0040
ENDCHAR
STARTCHAR U+30AD
ENCODING 12461
SWIDTH 1000 0
DWIDTH 16 0
BBX 13 14 1 -2
BITMAP
0800
0400
0420
87F0
7E00
0200
0210
83F8
7E00
0100
0100
0100
0100
0100
ENDCHAR
STARTCHAR U+30AE
ENCODING 12462
SWIDTH 1000 0
DWIDTH 16 0
BBX 15 15 1 -2
BITMAP
0024
0812
0412
0440
87E0
7E00
0200
0210
83F8
7E00
0100
0100
0100
0100
0100
ENDCHAR
STARTCHAR U+30AF
ENCODING 12463
SWIDTH 1000 0
DWIDTH 16 0
BBX 12 14 2 -2
BITMAP
1000
0800
1020
1FF0
2020
2020
4040
8040
0080
0080
0100
0600
1800
6000
ENDCHAR
STARTCHAR U+30B0
ENCODING 12464
SWIDTH 1000 0
DWIDTH 16 0
BBX 14 15 2 -2
BITMAP
0048
1024
0824
1000
1FF0
2020
2020
4040
8040
0080
0080
0100
0600
1800
6000
ENDCHAR
STARTCHAR U+30B1
ENCODING 12465
SWIDTH 1000 0
DWIDTH 16 0
BBX 14 14 1 -2
BITMAP
1000
0800
0808
103C
1FC0
2040
2040
4080
8080
0100
0100
0200
0400
1800
ENDCHAR
STARTCHAR U+30B2
ENCODING 12466
SWIDTH 1000 0
DWIDTH 16 0
BBX 15 15 1 -2
BITMAP
0024
1012
0812
0800
103C
1FC0
2040
2040
4080
8080
0100
0100
0200
0400
1800
ENDCHAR
STARTCHAR U+30B3
ENCODING 12467
SWIDTH 1000 0
DWIDTH 16 0
BBX 12 10 2 0
BITMAP
0020
83F0
7C20
0020
0020
0020
0020
0020
87E0
7820
ENDCHAR
STARTCHAR U+30B4
ENCODING 12468
SWIDTH 1000 0
DWIDTH 16 0
BBX 14 13 2 0
BITMAP
0048
0024
0024
0000
83F0
7C20
0020
0020
0020
0020
0020
87E0
7820
ENDCHAR
STARTCHAR U+30B5
ENCODING 12469
SWIDTH 1000 0
DWIDTH 16 0
BBX 15 14 0 -2
BITMAP
1040
0820
0824
083E
8FE0
7820
0820
0820
0840
0040
0080
0080
0100
0600
ENDCHAR
STARTCHAR U+30B6
ENCODING 12470
SWIDTH 1000 0
DWIDTH 16 0
BBX 16 15 0 -2
BITMAP
0012
1049
0829
0820
0824
8FFE
7820
0820
0820
0840
0040
0080
0080
0100
0600
ENDCHAR
STARTCHAR U+30B7
ENCODING 12471
SWIDTH 1000 0
DWIDTH 16 0
BBX 13 13 1 -2
BITMAP
3000
0C00
0200
0008
C008
3010
0810
0020
0040
0180
0600
7800
2000
ENDCHAR
STARTCHAR U+30B8
ENCODING 12472
SWIDTH 1000 0
DWIDTH 16 0
BBX 15 14 1 -2
BITMAP
0024
3012
0C12
0200
0008
C008
3010
0810
0020
0040
0180
0600
7800
2000
ENDCHAR
STARTCHAR U+30B9
ENCODING 12473
SWIDTH 1000 0
DWIDTH 16 0
BBX 12 12 2 -1
BITMAP
0040
43E0
3C40
0080
0080
0100
0100
0280
0440
0820
3010
C010
ENDCHAR
STARTCHAR U+30BA
ENCODING 12474
SWIDTH 1000 0
DWIDTH 16 0
BBX 14 14 2 -1
BITMAP
0048
0024
0024
0000
47C0
3880
0080
0100
0100
0280
0440
0820
3010
C010
ENDCHAR
STARTCHAR U+30BB
ENCODING 12475
SWIDTH 1000 0
DWIDTH 16 0
BBX 13 13 1 -1
BITMAP
1000
0800
0810
08F8
8F08
7810
0820
0840
0800
0800
0800
0820
07F0
ENDCHAR
STARTCHAR U+30BC
ENCODING 12476
SWIDTH 1000 0
DWIDTH 16 0
BBX 15 14 1 -1
BITMAP
0024
1012
0812
0800
08F8
8F08
7810
0820
0840
0800
0800
0800
0820
07F0
ENDCHAR
STARTCHAR U+30BD
ENCODING 12477
SWIDTH 1000 0
DWIDTH 16 0
BBX 11 12 2 -2
BITMAP
8000
4020
4020
2020
2040
0040
0080
0080
0100
0200
0C00
3000
ENDCHAR
STARTCHAR U+30BE
ENCODING 12478
SWIDTH 1000 0
DWIDTH 16 0
BBX 13 15 2 -2
BITMAP
0090
0048
0048
8000
4020
4020
2020
2040
0040
0080
0080
0100
0200
0C00
3000
ENDCHAR
STARTCHAR U+30BF
ENCODING 12479
SWIDTH 1000 0
DWIDTH 16 0
BBX 11 14 2 -2
BITMAP
2000
1000
1040
1FE0
2040
2040
5080
8C80
0300
0180
0240
0400
1800
6000
ENDCHAR
STARTCHAR U+30C0
ENCODING 12480
SWIDTH 1000 0
DWIDTH 16 0
BBX 14 15 2 -2
BITMAP
0048
2024
1024
1080
1FE0
2040
2040
5080
8C80
0300
0180
0240
0400
1800
6000
ENDCHAR
STARTCHAR U+30C1
ENCODING 12481
SWIDTH 1000 0
DWIDTH 16 0
BBX 14 13 1 -2
BITMAP
0040
00E0
0700
3900
0108
81FC
7F00
0100
0200
0200
0400
0800
3000
ENDCHAR
STARTCHAR U+30C2
ENCODING 12482
SWIDTH 1000 0
DWIDTH 16 0
BBX 15 15 1 -2
BITMAP
0024
0012
0012
00C0
0700
3900
0108
81FC
7F00
0100
0200
0200
0400
0800
3000
ENDCHAR
STARTCHAR U+30C3
ENCODING 12483
SWIDTH 1000 0
DWIDTH 16 0
BBX 10 10 2 -1
BITMAP
1000
8840
4440
2440
2040
0080
0080
0100
0600
1800
ENDCHAR
STARTCHAR U+30C4
ENCODING 12484
SWIDTH 1000 0
DWIDTH 16 0
BBX 14 14 1 -2
BITMAP
0800
0410
8408
420C
4208
2210
2010
2020
0020
0040
0080
0100
0600
1800
ENDCHAR
STARTCHAR U+30C5
ENCODING 12485
SWIDTH 1000 0
DWIDTH 16 0
BBX 14 14 1 -2
BITMAP
0848
0424
8424
4200
4200
2210
2010
2020
0020
0040
0080
0100
0600
1800
ENDCHAR
STARTCHAR U+30C6
ENCODING 12486
SWIDTH 1000 0
DWIDTH 16 0
BBX 13 14 1 -2
BITMAP
0040
21E0
1E00
0000
0010
80F8
7F00
0100
0100
0200
0200
0400
0800
1000
ENDCHAR
STARTCHAR U+30C7
ENCODING 12487
SWIDTH 1000 0
DWIDTH 16 0
BBX 15 15 1 -2
BITMAP
0024
0012
21D2
1E00
0000
0010
80F8
7F00
0100
0100
0200
0200
0400
0800
3000
ENDCHAR
STARTCHAR U+30C8
ENCODING 12488
SWIDTH 1000 0
DWIDTH 16 0
BBX 10 14 3 -2
BITMAP
8000
4000
4000
4000
4000
7000
4E00
4180
4040
4000
4000
4000
4000
4000
ENDCHAR
STARTCHAR U+30C9
ENCODING 12489
SWIDTH 1000 0
DWIDTH 16 0
BBX 11 14 3 -2
BITMAP
8240
4120
4120
4000
4000
7000
4E00
4180
4040
4000
4000
4000
4000
4000
ENDCHAR
STARTCHAR U+30CA
ENCODING 12490
SWIDTH 1000 0
DWIDTH 16 0
BBX 13 14 1 -2
BITMAP
0200
0100
0100
0110
81F8
7F00
0100
0100
0200
0200
0400
0400
0800
1000
ENDCHAR
STARTCHAR U+30CB
ENCODING 12491
SWIDTH 1000 0
DWIDTH 16 0
BBX 13 11 1 0
BITMAP
0040
21E0
1E00
0000
0000
0000
0000
0000
0010
81F8
7E00
ENDCHAR
STARTCHAR U+30CC
ENCODING 12492
SWIDTH 1000 0
DWIDTH 16 0
BBX 11 14 2 -2
BITMAP
0040
83E0
7C40
0040
0040
3080
0C80
0300
0180
0240
0420
0800
3000
C000
ENDCHAR
STARTCHAR U+30CD
ENCODING 12493
SWIDTH 1000 0
DWIDTH 16 0
BBX 14 15 0 -3
BITMAP
0E00
0180
0010
20F8
1F10
0020
0040
0080
0380
0D60
3118
C104
0100
0100
0100
ENDCHAR
STARTCHAR U+30CE
ENCODING 12494
SWIDTH 1000 0
DWIDTH 16 0
BBX 11 14 2 -2
BITMAP
0080
0040
0060
0040
0040
0080
0080
0100
0100
0200
0400
0800
3000
C000
ENDCHAR
STARTCHAR U+30CF
ENCODING 12495
SWIDTH 1000 0
DWIDTH 16 0
BBX 13 11 1 -1
BITMAP
0880
0840
0840
1020
1020
1010
2010
2010
4008
4008
8008
ENDCHAR
STARTCHAR U+30D0
ENCODING 12496
SWIDTH 1000 0
DWIDTH 16 0
BBX 14 13 1 -1
BITMAP
0048
0024
08A4
0840
0840
1020
1020
1010
2010
2010
4008
4008
8008
ENDCHAR
STARTCHAR U+30D1
ENCODING 12497
SWIDTH 1000 0
DWIDTH 16 0
BBX 14 13 1 -1
BITMAP
0018
0024
08A4
0858
0840
1020
1020
1010
2010
2010
4008
4008
8008
ENDCHAR
STARTCHAR U+30D2
ENCODING 12498
SWIDTH 1000 0
DWIDTH 16 0
BBX 11 12 2 -1
BITMAP
8000
4000
4040
40E0
4700
7800
4000
4000
4000
4000
2040
1FE0
ENDCHAR
STARTCHAR U+30D3
ENCODING 12499
SWIDTH 1000 0
DWIDTH 16 0
BBX 12 13 2 -1
BITMAP
0120
8090
4090
4040
40E0
4700
7800
4000
4000
4000
4000
2040
1FE0
ENDCHAR
STARTCHAR U+30D4
ENCODING 12500
SWIDTH 1000 0
DWIDTH 16 0
BBX 13 13 2 -1
BITMAP
0030
8048
4048
4030
4000
4780
7800
4000
4000
4000
4000
2040
1FE0
ENDCHAR
STARTCHAR U+30D5
ENCODING 12501
SWIDTH 1000 0
DWIDTH 16 0
BBX 12 12 2 -1
BITMAP
0020
83F0
7C20
0020
0040
0040
0080
0080
0100
0200
0C00
3000
ENDCHAR
STARTCHAR U+30D6
ENCODING 12502
SWIDTH 1000 0
DWIDTH 16 0
BBX 14 14 1 -2
BITMAP
0048
0024
0024
83F0
7C20
0020
0040
0040
0080
0080
0100
0200
0C00
3000
ENDCHAR
STARTCHAR U+30D7
ENCODING 12503
SWIDTH 1000 0
DWIDTH 16 0
BBX 14 14 1 -2
BITMAP
0018
0024
0024
0018
83E0
7C20
0040
0040
0080
0080
0100
0200
0C00
3000
ENDCHAR
STARTCHAR U+30D8
ENCODING 12504
SWIDTH 1000 0
DWIDTH 16 0
BBX 14 10 1 0
BITMAP
0600
0900
1080
A040
4040
0020
0010
0008
0004
0004
ENDCHAR
STARTCHAR U+30D9
ENCODING 12505
SWIDTH 1000 0
DWIDTH 16 0
BBX 14 11 1 0
BITMAP
0048
0624
0924
1080
A040
4040
0020
0010
0008
0004
0004
ENDCHAR
STARTCHAR U+30DA
ENCODING 12506
SWIDTH 1000 0
DWIDTH 16 0
BBX 14 11 1 0
BITMAP
0018
0624
0924
1098
A040
4040
0020
0010
0008
0004
0004
ENDCHAR
STARTCHAR U+30DB
ENCODING 12507
SWIDTH 1000 0
DWIDTH 16 0
BBX 13 14 1 -2
BITMAP
0400
0200
0220
43F0
3E00
0200
1240
1220
2210
2210
4208
8A08
0600
0200
ENDCHAR
STARTCHAR U+30DC
ENCODING 12508
SWIDTH 1000 0
DWIDTH 16 0
BBX 14 14 1 -2
BITMAP
0448
0224
0224
43F0
3E00
0200
1240
1220
2210
2210
4208
8A08
0600
0200
ENDCHAR
STARTCHAR U+30DD
ENCODING 12509
SWIDTH 1000 0
DWIDTH 16 0
BBX 14 15 1 -2
BITMAP
0018
0424
0224
0218
4200
3FF0
0200
1240
1220
2210
2210
4208
8A08
0600
0200
ENDCHAR
STARTCHAR U+30DE
ENCODING 12510
SWIDTH 1000 0
DWIDTH 16 0
BBX 13 12 1 -1
BITMAP
0010
81F8
7E10
0010
0020
2020
1040
0880
0500
0200
0100
0100
ENDCHAR
STARTCHAR U+30DF
ENCODING 12511
SWIDTH 1000 0
DWIDTH 16 0
BBX 10 13 2 -1
BITMAP
7000
0E00
0180
0000
3000
0E00
0100
0000
0000
F000
0C00
0300
00C0
ENDCHAR
STARTCHAR U+30E0
ENCODING 12512
SWIDTH 1000 0
DWIDTH 16 0
BBX 13 14 1 -2
BITMAP
0400
0600
0400
0400
0400
0800
0840
0820
1020
1010
1010
20F8
FF08
4008
ENDCHAR
STARTCHAR U+30E1
ENCODING 12513
SWIDTH 1000 0
DWIDTH 16 0
BBX 11 14 2 -2
BITMAP
0080
0040
0060
0040
3840
0680
0180
0080
0140
0220
0400
0800
3000
C000
ENDCHAR
STARTCHAR U+30E2
ENCODING 12514
SWIDTH 1000 0
DWIDTH 16 0
BBX 13 13 1 -1
BITMAP
0040
43E0
3C00
0400
0400
0410
87F8
7C00
0400
0400
0400
0420
03F0
ENDCHAR
STARTCHAR U+30E3
ENCODING 12515
SWIDTH 1000 0
DWIDTH 16 0
BBX 11 11 1 -2
BITMAP
1000
1000
0FE0
F820
0840
0880
0900
0400
0400
0400
0400
ENDCHAR
STARTCHAR U+30E4
ENCODING 12516
SWIDTH 1000 0
DWIDTH 16 0
BBX 13 14 1 -2
BITMAP
1000
0800
0800
0810
8FF8
7810
0410
0420
0420
0440
0200
0200
0200
0200
ENDCHAR
STARTCHAR U+30E5
ENCODING 12517
SWIDTH 1000 0
DWIDTH 16 0
BBX 10 8 3 0
BITMAP
7E00
0200
0200
0200
0200
0200
0200
FFC0
ENDCHAR
STARTCHAR U+30E6
ENCODING 12518
SWIDTH 1000 0
DWIDTH 16 0
BBX 14 12 1 -1
BITMAP
0040
21E0
1E40
0040
0040
0040
0080
0080
0080
0088
83FC
7C00
ENDCHAR
STARTCHAR U+30E7
ENCODING 12519
SWIDTH 1000 0
DWIDTH 16 0
BBX 9 9 2 -2
BITMAP
FF80
0080
0080
7F80
0080
0080
0080
FF80
0080
ENDCHAR
STARTCHAR U+30E8
ENCODING 12520
SWIDTH 1000 0
DWIDTH 16 0
BBX 12 12 2 -1
BITMAP
0020
87F0
7820
0020
0020
47E0
3840
0040
0040
0040
87C0
7840
ENDCHAR
STARTCHAR U+30E9
ENCODING 12521
SWIDTH 1000 0
DWIDTH 16 0
BBX 13 14 1 -2
BITMAP
0040
23E0
1C00
0010
83F8
7C08
0010
0010
0020
0020
0040
0180
0200
0C00
ENDCHAR
STARTCHAR U+30EA
ENCODING 12522
SWIDTH 1000 0
DWIDTH 16 0
BBX 9 14 3 -2
BITMAP
0100
8080
4080
4080
4080
4080
4080
4080
4080
0100
0100
0200
0400
1800
ENDCHAR
STARTCHAR U+30EB
ENCODING 12523
SWIDTH 1000 0
DWIDTH 16 0
BBX 15 14 0 -2
BITMAP
0200
1100
0900
0900
0900
0900
1102
1102
1104
1104
2108
2130
41C0
8000
ENDCHAR
STARTCHAR U+30EC
ENCODING 12524
SWIDTH 1000 0
DWIDTH 16 0
BBX 12 14 2 -2
BITMAP
8000
4000
4000
4000
4010
4010
4020
4020
4040
4080
4300
4C00
7000
4000
ENDCHAR
STARTCHAR U+30ED
ENCODING 12525
SWIDTH 1000 0
DWIDTH 16 0
BBX 12 12 2 -1
BITMAP
0020
83F0
7C20
4020
4020
4020
2020
2040
2040
2040
3FE0
2000
ENDCHAR
ENDFONT
